<?xml version="1.0" encoding="utf-8" standalone="no"?>
<!DOCTYPE svg PUBLIC "-//W3C//DTD SVG 1.1//EN"
  "http://www.w3.org/Graphics/SVG/1.1/DTD/svg11.dtd">
<!-- Created with matplotlib (https://matplotlib.org/) -->
<svg height="360pt" version="1.1" viewBox="0 0 360 360" width="360pt" xmlns="http://www.w3.org/2000/svg" xmlns:xlink="http://www.w3.org/1999/xlink">
 <defs>
  <style type="text/css">
*{stroke-linecap:butt;stroke-linejoin:round;}
  </style>
 </defs>
 <g id="figure_1">
  <g id="patch_1">
   <path d="M 0 360 
L 360 360 
L 360 0 
L 0 0 
z
" style="fill:#ffffff;"/>
  </g>
  <g id="axes_1">
   <g id="patch_2">
    <path d="M 184.5 43.2 
L 66.807148 111.15 
L 66.807148 247.05 
L 184.5 315 
L 302.192852 247.05 
L 302.192852 111.15 
z
" style="fill:#eaeaf2;"/>
   </g>
   <g id="matplotlib.axis_1">
    <g id="xtick_1">
     <g id="line2d_1">
      <path clip-path="url(#pbd7f5621f4)" d="M 184.5 179.1 
L 184.5 43.2 
" style="fill:none;stroke:#ffffff;stroke-linecap:round;"/>
     </g>
     <g id="text_1">
      <!-- Flights -->
      <defs>
       <path d="M 8.203125 0 
L 8.203125 71.578125 
L 56.5 71.578125 
L 56.5 63.140625 
L 17.671875 63.140625 
L 17.671875 40.96875 
L 51.265625 40.96875 
L 51.265625 32.515625 
L 17.671875 32.515625 
L 17.671875 0 
z
" id="ArialMT-70"/>
       <path d="M 6.390625 0 
L 6.390625 71.578125 
L 15.1875 71.578125 
L 15.1875 0 
z
" id="ArialMT-108"/>
       <path d="M 6.640625 61.46875 
L 6.640625 71.578125 
L 15.4375 71.578125 
L 15.4375 61.46875 
z
M 6.640625 0 
L 6.640625 51.859375 
L 15.4375 51.859375 
L 15.4375 0 
z
" id="ArialMT-105"/>
       <path d="M 4.984375 -4.296875 
L 13.53125 -5.5625 
Q 14.0625 -9.515625 16.5 -11.328125 
Q 19.78125 -13.765625 25.4375 -13.765625 
Q 31.546875 -13.765625 34.859375 -11.328125 
Q 38.1875 -8.890625 39.359375 -4.5 
Q 40.046875 -1.8125 39.984375 6.78125 
Q 34.234375 0 25.640625 0 
Q 14.9375 0 9.078125 7.71875 
Q 3.21875 15.4375 3.21875 26.21875 
Q 3.21875 33.640625 5.90625 39.90625 
Q 8.59375 46.1875 13.6875 49.609375 
Q 18.796875 53.03125 25.6875 53.03125 
Q 34.859375 53.03125 40.828125 45.609375 
L 40.828125 51.859375 
L 48.921875 51.859375 
L 48.921875 7.03125 
Q 48.921875 -5.078125 46.453125 -10.125 
Q 44 -15.1875 38.640625 -18.109375 
Q 33.296875 -21.046875 25.484375 -21.046875 
Q 16.21875 -21.046875 10.5 -16.875 
Q 4.78125 -12.703125 4.984375 -4.296875 
z
M 12.25 26.859375 
Q 12.25 16.65625 16.296875 11.96875 
Q 20.359375 7.28125 26.46875 7.28125 
Q 32.515625 7.28125 36.609375 11.9375 
Q 40.71875 16.609375 40.71875 26.5625 
Q 40.71875 36.078125 36.5 40.90625 
Q 32.28125 45.75 26.3125 45.75 
Q 20.453125 45.75 16.34375 40.984375 
Q 12.25 36.234375 12.25 26.859375 
z
" id="ArialMT-103"/>
       <path d="M 6.59375 0 
L 6.59375 71.578125 
L 15.375 71.578125 
L 15.375 45.90625 
Q 21.53125 53.03125 30.90625 53.03125 
Q 36.671875 53.03125 40.921875 50.75 
Q 45.171875 48.484375 47 44.484375 
Q 48.828125 40.484375 48.828125 32.859375 
L 48.828125 0 
L 40.046875 0 
L 40.046875 32.859375 
Q 40.046875 39.453125 37.1875 42.453125 
Q 34.328125 45.453125 29.109375 45.453125 
Q 25.203125 45.453125 21.75 43.421875 
Q 18.3125 41.40625 16.84375 37.9375 
Q 15.375 34.46875 15.375 28.375 
L 15.375 0 
z
" id="ArialMT-104"/>
       <path d="M 25.78125 7.859375 
L 27.046875 0.09375 
Q 23.34375 -0.6875 20.40625 -0.6875 
Q 15.625 -0.6875 12.984375 0.828125 
Q 10.359375 2.34375 9.28125 4.8125 
Q 8.203125 7.28125 8.203125 15.1875 
L 8.203125 45.015625 
L 1.765625 45.015625 
L 1.765625 51.859375 
L 8.203125 51.859375 
L 8.203125 64.703125 
L 16.9375 69.96875 
L 16.9375 51.859375 
L 25.78125 51.859375 
L 25.78125 45.015625 
L 16.9375 45.015625 
L 16.9375 14.703125 
Q 16.9375 10.9375 17.40625 9.859375 
Q 17.875 8.796875 18.921875 8.15625 
Q 19.96875 7.515625 21.921875 7.515625 
Q 23.390625 7.515625 25.78125 7.859375 
z
" id="ArialMT-116"/>
       <path d="M 3.078125 15.484375 
L 11.765625 16.84375 
Q 12.5 11.625 15.84375 8.84375 
Q 19.1875 6.0625 25.203125 6.0625 
Q 31.25 6.0625 34.171875 8.515625 
Q 37.109375 10.984375 37.109375 14.3125 
Q 37.109375 17.28125 34.515625 19 
Q 32.71875 20.171875 25.53125 21.96875 
Q 15.875 24.421875 12.140625 26.203125 
Q 8.40625 27.984375 6.46875 31.125 
Q 4.546875 34.28125 4.546875 38.09375 
Q 4.546875 41.546875 6.125 44.5 
Q 7.71875 47.46875 10.453125 49.421875 
Q 12.5 50.921875 16.03125 51.96875 
Q 19.578125 53.03125 23.640625 53.03125 
Q 29.734375 53.03125 34.34375 51.265625 
Q 38.96875 49.515625 41.15625 46.5 
Q 43.359375 43.5 44.1875 38.484375 
L 35.59375 37.3125 
Q 35.015625 41.3125 32.203125 43.546875 
Q 29.390625 45.796875 24.265625 45.796875 
Q 18.21875 45.796875 15.625 43.796875 
Q 13.03125 41.796875 13.03125 39.109375 
Q 13.03125 37.40625 14.109375 36.03125 
Q 15.1875 34.625 17.484375 33.6875 
Q 18.796875 33.203125 25.25 31.453125 
Q 34.578125 28.953125 38.25 27.359375 
Q 41.9375 25.78125 44.03125 22.75 
Q 46.140625 19.734375 46.140625 15.234375 
Q 46.140625 10.84375 43.578125 6.953125 
Q 41.015625 3.078125 36.171875 0.953125 
Q 31.34375 -1.171875 25.25 -1.171875 
Q 15.140625 -1.171875 9.84375 3.03125 
Q 4.546875 7.234375 3.078125 15.484375 
z
" id="ArialMT-115"/>
      </defs>
      <g style="fill:#262626;" transform="translate(168.301641 29.479219)scale(0.11 -0.11)">
       <use xlink:href="#ArialMT-70"/>
       <use x="61.083984" xlink:href="#ArialMT-108"/>
       <use x="83.300781" xlink:href="#ArialMT-105"/>
       <use x="105.517578" xlink:href="#ArialMT-103"/>
       <use x="161.132812" xlink:href="#ArialMT-104"/>
       <use x="216.748047" xlink:href="#ArialMT-116"/>
       <use x="244.53125" xlink:href="#ArialMT-115"/>
      </g>
     </g>
    </g>
    <g id="xtick_2">
     <g id="line2d_2">
      <path clip-path="url(#pbd7f5621f4)" d="M 184.5 179.1 
L 66.807148 111.15 
" style="fill:none;stroke:#ffffff;stroke-linecap:round;"/>
     </g>
     <g id="text_2">
      <!-- Hotel -->
      <defs>
       <path d="M 8.015625 0 
L 8.015625 71.578125 
L 17.484375 71.578125 
L 17.484375 42.1875 
L 54.6875 42.1875 
L 54.6875 71.578125 
L 64.15625 71.578125 
L 64.15625 0 
L 54.6875 0 
L 54.6875 33.734375 
L 17.484375 33.734375 
L 17.484375 0 
z
" id="ArialMT-72"/>
       <path d="M 3.328125 25.921875 
Q 3.328125 40.328125 11.328125 47.265625 
Q 18.015625 53.03125 27.640625 53.03125 
Q 38.328125 53.03125 45.109375 46.015625 
Q 51.90625 39.015625 51.90625 26.65625 
Q 51.90625 16.65625 48.90625 10.90625 
Q 45.90625 5.171875 40.15625 2 
Q 34.421875 -1.171875 27.640625 -1.171875 
Q 16.75 -1.171875 10.03125 5.8125 
Q 3.328125 12.796875 3.328125 25.921875 
z
M 12.359375 25.921875 
Q 12.359375 15.96875 16.703125 11.015625 
Q 21.046875 6.0625 27.640625 6.0625 
Q 34.1875 6.0625 38.53125 11.03125 
Q 42.875 16.015625 42.875 26.21875 
Q 42.875 35.84375 38.5 40.796875 
Q 34.125 45.75 27.640625 45.75 
Q 21.046875 45.75 16.703125 40.8125 
Q 12.359375 35.890625 12.359375 25.921875 
z
" id="ArialMT-111"/>
       <path d="M 42.09375 16.703125 
L 51.171875 15.578125 
Q 49.03125 7.625 43.21875 3.21875 
Q 37.40625 -1.171875 28.375 -1.171875 
Q 17 -1.171875 10.328125 5.828125 
Q 3.65625 12.84375 3.65625 25.484375 
Q 3.65625 38.578125 10.390625 45.796875 
Q 17.140625 53.03125 27.875 53.03125 
Q 38.28125 53.03125 44.875 45.953125 
Q 51.46875 38.875 51.46875 26.03125 
Q 51.46875 25.25 51.421875 23.6875 
L 12.75 23.6875 
Q 13.234375 15.140625 17.578125 10.59375 
Q 21.921875 6.0625 28.421875 6.0625 
Q 33.25 6.0625 36.671875 8.59375 
Q 40.09375 11.140625 42.09375 16.703125 
z
M 13.234375 30.90625 
L 42.1875 30.90625 
Q 41.609375 37.453125 38.875 40.71875 
Q 34.671875 45.796875 27.984375 45.796875 
Q 21.921875 45.796875 17.796875 41.75 
Q 13.671875 37.703125 13.234375 30.90625 
z
" id="ArialMT-101"/>
      </defs>
      <g style="fill:#262626;" transform="translate(39.678666 105.743672)scale(0.11 -0.11)">
       <use xlink:href="#ArialMT-72"/>
       <use x="72.216797" xlink:href="#ArialMT-111"/>
       <use x="127.832031" xlink:href="#ArialMT-116"/>
       <use x="155.615234" xlink:href="#ArialMT-101"/>
       <use x="211.230469" xlink:href="#ArialMT-108"/>
      </g>
     </g>
    </g>
    <g id="xtick_3">
     <g id="line2d_3">
      <path clip-path="url(#pbd7f5621f4)" d="M 184.5 179.1 
L 66.807148 247.05 
" style="fill:none;stroke:#ffffff;stroke-linecap:round;"/>
     </g>
     <g id="text_3">
      <!-- Grocery -->
      <defs>
       <path d="M 41.21875 28.078125 
L 41.21875 36.46875 
L 71.53125 36.53125 
L 71.53125 9.96875 
Q 64.546875 4.390625 57.125 1.578125 
Q 49.703125 -1.21875 41.890625 -1.21875 
Q 31.34375 -1.21875 22.71875 3.296875 
Q 14.109375 7.8125 9.71875 16.359375 
Q 5.328125 24.90625 5.328125 35.453125 
Q 5.328125 45.90625 9.6875 54.953125 
Q 14.0625 64.015625 22.265625 68.40625 
Q 30.46875 72.796875 41.15625 72.796875 
Q 48.921875 72.796875 55.1875 70.28125 
Q 61.46875 67.78125 65.03125 63.28125 
Q 68.609375 58.796875 70.453125 51.5625 
L 61.921875 49.21875 
Q 60.296875 54.6875 57.90625 57.8125 
Q 55.515625 60.9375 51.0625 62.8125 
Q 46.625 64.703125 41.21875 64.703125 
Q 34.71875 64.703125 29.984375 62.71875 
Q 25.25 60.75 22.34375 57.515625 
Q 19.4375 54.296875 17.828125 50.4375 
Q 15.09375 43.796875 15.09375 36.03125 
Q 15.09375 26.46875 18.390625 20.015625 
Q 21.6875 13.578125 27.984375 10.453125 
Q 34.28125 7.328125 41.359375 7.328125 
Q 47.515625 7.328125 53.375 9.6875 
Q 59.234375 12.0625 62.25 14.75 
L 62.25 28.078125 
z
" id="ArialMT-71"/>
       <path d="M 6.5 0 
L 6.5 51.859375 
L 14.40625 51.859375 
L 14.40625 44 
Q 17.4375 49.515625 20 51.265625 
Q 22.5625 53.03125 25.640625 53.03125 
Q 30.078125 53.03125 34.671875 50.203125 
L 31.640625 42.046875 
Q 28.421875 43.953125 25.203125 43.953125 
Q 22.3125 43.953125 20.015625 42.21875 
Q 17.71875 40.484375 16.75 37.40625 
Q 15.28125 32.71875 15.28125 27.15625 
L 15.28125 0 
z
" id="ArialMT-114"/>
       <path d="M 40.4375 19 
L 49.078125 17.875 
Q 47.65625 8.9375 41.8125 3.875 
Q 35.984375 -1.171875 27.484375 -1.171875 
Q 16.84375 -1.171875 10.375 5.78125 
Q 3.90625 12.75 3.90625 25.734375 
Q 3.90625 34.125 6.6875 40.421875 
Q 9.46875 46.734375 15.15625 49.875 
Q 20.84375 53.03125 27.546875 53.03125 
Q 35.984375 53.03125 41.359375 48.75 
Q 46.734375 44.484375 48.25 36.625 
L 39.703125 35.296875 
Q 38.484375 40.53125 35.375 43.15625 
Q 32.28125 45.796875 27.875 45.796875 
Q 21.234375 45.796875 17.078125 41.03125 
Q 12.9375 36.28125 12.9375 25.984375 
Q 12.9375 15.53125 16.9375 10.796875 
Q 20.953125 6.0625 27.390625 6.0625 
Q 32.5625 6.0625 36.03125 9.234375 
Q 39.5 12.40625 40.4375 19 
z
" id="ArialMT-99"/>
       <path d="M 6.203125 -19.96875 
L 5.21875 -11.71875 
Q 8.109375 -12.5 10.25 -12.5 
Q 13.1875 -12.5 14.9375 -11.515625 
Q 16.703125 -10.546875 17.828125 -8.796875 
Q 18.65625 -7.46875 20.515625 -2.25 
Q 20.75 -1.515625 21.296875 -0.09375 
L 1.609375 51.859375 
L 11.078125 51.859375 
L 21.875 21.828125 
Q 23.96875 16.109375 25.640625 9.8125 
Q 27.15625 15.875 29.25 21.625 
L 40.328125 51.859375 
L 49.125 51.859375 
L 29.390625 -0.875 
Q 26.21875 -9.421875 24.46875 -12.640625 
Q 22.125 -17 19.09375 -19.015625 
Q 16.0625 -21.046875 11.859375 -21.046875 
Q 9.328125 -21.046875 6.203125 -19.96875 
z
" id="ArialMT-121"/>
      </defs>
      <g style="fill:#262626;" transform="translate(32.960072 258.14625)scale(0.11 -0.11)">
       <use xlink:href="#ArialMT-71"/>
       <use x="77.783203" xlink:href="#ArialMT-114"/>
       <use x="111.083984" xlink:href="#ArialMT-111"/>
       <use x="166.699219" xlink:href="#ArialMT-99"/>
       <use x="216.699219" xlink:href="#ArialMT-101"/>
       <use x="272.314453" xlink:href="#ArialMT-114"/>
       <use x="305.615234" xlink:href="#ArialMT-121"/>
      </g>
     </g>
    </g>
    <g id="xtick_4">
     <g id="line2d_4">
      <path clip-path="url(#pbd7f5621f4)" d="M 184.5 179.1 
L 184.5 315 
" style="fill:none;stroke:#ffffff;stroke-linecap:round;"/>
     </g>
     <g id="text_4">
      <!-- Gas -->
      <defs>
       <path d="M 40.4375 6.390625 
Q 35.546875 2.25 31.03125 0.53125 
Q 26.515625 -1.171875 21.34375 -1.171875 
Q 12.796875 -1.171875 8.203125 3 
Q 3.609375 7.171875 3.609375 13.671875 
Q 3.609375 17.484375 5.34375 20.625 
Q 7.078125 23.78125 9.890625 25.6875 
Q 12.703125 27.59375 16.21875 28.5625 
Q 18.796875 29.25 24.03125 29.890625 
Q 34.671875 31.15625 39.703125 32.90625 
Q 39.75 34.71875 39.75 35.203125 
Q 39.75 40.578125 37.25 42.78125 
Q 33.890625 45.75 27.25 45.75 
Q 21.046875 45.75 18.09375 43.578125 
Q 15.140625 41.40625 13.71875 35.890625 
L 5.125 37.0625 
Q 6.296875 42.578125 8.984375 45.96875 
Q 11.671875 49.359375 16.75 51.1875 
Q 21.828125 53.03125 28.515625 53.03125 
Q 35.15625 53.03125 39.296875 51.46875 
Q 43.453125 49.90625 45.40625 47.53125 
Q 47.359375 45.171875 48.140625 41.546875 
Q 48.578125 39.3125 48.578125 33.453125 
L 48.578125 21.734375 
Q 48.578125 9.46875 49.140625 6.21875 
Q 49.703125 2.984375 51.375 0 
L 42.1875 0 
Q 40.828125 2.734375 40.4375 6.390625 
z
M 39.703125 26.03125 
Q 34.90625 24.078125 25.34375 22.703125 
Q 19.921875 21.921875 17.671875 20.9375 
Q 15.4375 19.96875 14.203125 18.09375 
Q 12.984375 16.21875 12.984375 13.921875 
Q 12.984375 10.40625 15.640625 8.0625 
Q 18.3125 5.71875 23.4375 5.71875 
Q 28.515625 5.71875 32.46875 7.9375 
Q 36.421875 10.15625 38.28125 14.015625 
Q 39.703125 17 39.703125 22.796875 
z
" id="ArialMT-97"/>
      </defs>
      <g style="fill:#262626;" transform="translate(174.413516 334.343672)scale(0.11 -0.11)">
       <use xlink:href="#ArialMT-71"/>
       <use x="77.783203" xlink:href="#ArialMT-97"/>
       <use x="133.398438" xlink:href="#ArialMT-115"/>
      </g>
     </g>
    </g>
    <g id="xtick_5">
     <g id="line2d_5">
      <path clip-path="url(#pbd7f5621f4)" d="M 184.5 179.1 
L 302.192852 247.05 
" style="fill:none;stroke:#ffffff;stroke-linecap:round;"/>
     </g>
     <g id="text_5">
      <!-- Dining -->
      <defs>
       <path d="M 7.71875 0 
L 7.71875 71.578125 
L 32.375 71.578125 
Q 40.71875 71.578125 45.125 70.5625 
Q 51.265625 69.140625 55.609375 65.4375 
Q 61.28125 60.640625 64.078125 53.1875 
Q 66.890625 45.75 66.890625 36.1875 
Q 66.890625 28.03125 64.984375 21.734375 
Q 63.09375 15.4375 60.109375 11.296875 
Q 57.125 7.171875 53.578125 4.796875 
Q 50.046875 2.4375 45.046875 1.21875 
Q 40.046875 0 33.546875 0 
z
M 17.1875 8.453125 
L 32.46875 8.453125 
Q 39.546875 8.453125 43.578125 9.765625 
Q 47.609375 11.078125 50 13.484375 
Q 53.375 16.84375 55.25 22.53125 
Q 57.125 28.21875 57.125 36.328125 
Q 57.125 47.5625 53.4375 53.59375 
Q 49.75 59.625 44.484375 61.671875 
Q 40.671875 63.140625 32.234375 63.140625 
L 17.1875 63.140625 
z
" id="ArialMT-68"/>
       <path d="M 6.59375 0 
L 6.59375 51.859375 
L 14.5 51.859375 
L 14.5 44.484375 
Q 20.21875 53.03125 31 53.03125 
Q 35.6875 53.03125 39.625 51.34375 
Q 43.5625 49.65625 45.515625 46.921875 
Q 47.46875 44.1875 48.25 40.4375 
Q 48.734375 37.984375 48.734375 31.890625 
L 48.734375 0 
L 39.9375 0 
L 39.9375 31.546875 
Q 39.9375 36.921875 38.90625 39.578125 
Q 37.890625 42.234375 35.28125 43.8125 
Q 32.671875 45.40625 29.15625 45.40625 
Q 23.53125 45.40625 19.453125 41.84375 
Q 15.375 38.28125 15.375 28.328125 
L 15.375 0 
z
" id="ArialMT-110"/>
      </defs>
      <g style="fill:#262626;" transform="translate(300.890631 258.079219)scale(0.11 -0.11)">
       <use xlink:href="#ArialMT-68"/>
       <use x="72.216797" xlink:href="#ArialMT-105"/>
       <use x="94.433594" xlink:href="#ArialMT-110"/>
       <use x="150.048828" xlink:href="#ArialMT-105"/>
       <use x="172.265625" xlink:href="#ArialMT-110"/>
       <use x="227.880859" xlink:href="#ArialMT-103"/>
      </g>
     </g>
    </g>
    <g id="xtick_6">
     <g id="line2d_6">
      <path clip-path="url(#pbd7f5621f4)" d="M 184.5 179.1 
L 302.192852 111.15 
" style="fill:none;stroke:#ffffff;stroke-linecap:round;"/>
     </g>
     <g id="text_6">
      <!-- Other -->
      <defs>
       <path d="M 4.828125 34.859375 
Q 4.828125 52.6875 14.390625 62.765625 
Q 23.96875 72.859375 39.109375 72.859375 
Q 49.03125 72.859375 56.984375 68.109375 
Q 64.9375 63.375 69.109375 54.90625 
Q 73.296875 46.4375 73.296875 35.6875 
Q 73.296875 24.8125 68.890625 16.21875 
Q 64.5 7.625 56.4375 3.203125 
Q 48.390625 -1.21875 39.0625 -1.21875 
Q 28.953125 -1.21875 20.984375 3.65625 
Q 13.03125 8.546875 8.921875 16.984375 
Q 4.828125 25.4375 4.828125 34.859375 
z
M 14.59375 34.71875 
Q 14.59375 21.78125 21.546875 14.328125 
Q 28.515625 6.890625 39.015625 6.890625 
Q 49.703125 6.890625 56.609375 14.40625 
Q 63.53125 21.921875 63.53125 35.75 
Q 63.53125 44.484375 60.578125 51 
Q 57.625 57.515625 51.921875 61.109375 
Q 46.234375 64.703125 39.15625 64.703125 
Q 29.109375 64.703125 21.84375 57.78125 
Q 14.59375 50.875 14.59375 34.71875 
z
" id="ArialMT-79"/>
      </defs>
      <g style="fill:#262626;" transform="translate(302.727975 105.743672)scale(0.11 -0.11)">
       <use xlink:href="#ArialMT-79"/>
       <use x="77.783203" xlink:href="#ArialMT-116"/>
       <use x="105.566406" xlink:href="#ArialMT-104"/>
       <use x="161.181641" xlink:href="#ArialMT-101"/>
       <use x="216.796875" xlink:href="#ArialMT-114"/>
      </g>
     </g>
    </g>
   </g>
   <g id="matplotlib.axis_2">
    <g id="ytick_1">
     <g id="line2d_7">
      <path clip-path="url(#pbd7f5621f4)" d="M 184.5 157.356 
L 182.227133 157.475116 
L 179.979168 157.831159 
L 177.780734 158.420227 
L 175.655918 159.235868 
L 173.628 160.269144 
L 171.719197 161.508734 
L 169.950424 162.941059 
L 168.341059 164.550424 
L 166.908734 166.319197 
L 165.669144 168.228 
L 164.635868 170.255918 
L 163.820227 172.380734 
L 163.231159 174.579168 
L 162.875116 176.827133 
L 162.756 179.1 
L 162.875116 181.372867 
L 163.231159 183.620832 
L 163.820227 185.819266 
L 164.635868 187.944082 
L 165.669144 189.972 
L 166.908734 191.880803 
L 168.341059 193.649576 
L 169.950424 195.258941 
L 171.719197 196.691266 
L 173.628 197.930856 
L 175.655918 198.964132 
L 177.780734 199.779773 
L 179.979168 200.368841 
L 182.227133 200.724884 
L 184.5 200.844 
L 186.772867 200.724884 
L 189.020832 200.368841 
L 191.219266 199.779773 
L 193.344082 198.964132 
L 195.372 197.930856 
L 197.280803 196.691266 
L 199.049576 195.258941 
L 200.658941 193.649576 
L 202.091266 191.880803 
L 203.330856 189.972 
L 204.364132 187.944082 
L 205.179773 185.819266 
L 205.768841 183.620832 
L 206.124884 181.372867 
L 206.244 179.1 
L 206.124884 176.827133 
L 205.768841 174.579168 
L 205.179773 172.380734 
L 204.364132 170.255918 
L 203.330856 168.228 
L 202.091266 166.319197 
L 200.658941 164.550424 
L 199.049576 162.941059 
L 197.280803 161.508734 
L 195.372 160.269144 
L 193.344082 159.235868 
L 191.219266 158.420227 
L 189.020832 157.831159 
L 186.772867 157.475116 
L 184.5 157.356 
L 184.5 157.356 
" style="fill:none;stroke:#ffffff;stroke-linecap:round;"/>
     </g>
     <g id="text_7">
      <!-- 1 -->
      <defs>
       <path d="M 37.25 0 
L 28.46875 0 
L 28.46875 56 
Q 25.296875 52.984375 20.140625 49.953125 
Q 14.984375 46.921875 10.890625 45.40625 
L 10.890625 53.90625 
Q 18.265625 57.375 23.78125 62.296875 
Q 29.296875 67.234375 31.59375 71.875 
L 37.25 71.875 
z
" id="ArialMT-49"/>
      </defs>
      <g style="fill:#262626;" transform="translate(176.178931 156.824913)scale(0.11 -0.11)">
       <use xlink:href="#ArialMT-49"/>
      </g>
     </g>
    </g>
    <g id="ytick_2">
     <g id="line2d_8">
      <path clip-path="url(#pbd7f5621f4)" d="M 184.5 135.612 
L 181.46643 135.717935 
L 178.44764 136.035222 
L 175.458336 136.562317 
L 172.513083 137.296651 
L 169.626228 138.234647 
L 166.811837 139.371735 
L 164.083621 140.702375 
L 161.454871 142.220084 
L 158.938395 143.917469 
L 156.546452 145.786259 
L 154.290697 147.817351 
L 152.182118 150.000848 
L 150.230988 152.326114 
L 148.446814 154.781819 
L 146.838287 157.356 
L 145.413245 160.036116 
L 144.178629 162.809108 
L 143.140454 165.661469 
L 142.303779 168.579301 
L 141.67268 171.548388 
L 141.250232 174.554266 
L 141.038492 177.582291 
L 141.038492 180.617709 
L 141.250232 183.645734 
L 141.67268 186.651612 
L 142.303779 189.620699 
L 143.140454 192.538531 
L 144.178629 195.390892 
L 145.413245 198.163884 
L 146.838287 200.844 
L 148.446814 203.418181 
L 150.230988 205.873886 
L 152.182118 208.199152 
L 154.290697 210.382649 
L 156.546452 212.413741 
L 158.938395 214.282531 
L 161.454871 215.979916 
L 164.083621 217.497625 
L 166.811837 218.828265 
L 169.626228 219.965353 
L 172.513083 220.903349 
L 175.458336 221.637683 
L 178.44764 222.164778 
L 181.46643 222.482065 
L 184.5 222.588 
L 187.53357 222.482065 
L 190.55236 222.164778 
L 193.541664 221.637683 
L 196.486917 220.903349 
L 199.373772 219.965353 
L 202.188163 218.828265 
L 204.916379 217.497625 
L 207.545129 215.979916 
L 210.061605 214.282531 
L 212.453548 212.413741 
L 214.709303 210.382649 
L 216.817882 208.199152 
L 218.769012 205.873886 
L 220.553186 203.418181 
L 222.161713 200.844 
L 223.586755 198.163884 
L 224.821371 195.390892 
L 225.859546 192.538531 
L 226.696221 189.620699 
L 227.32732 186.651612 
L 227.749768 183.645734 
L 227.961508 180.617709 
L 227.961508 177.582291 
L 227.749768 174.554266 
L 227.32732 171.548388 
L 226.696221 168.579301 
L 225.859546 165.661469 
L 224.821371 162.809108 
L 223.586755 160.036116 
L 222.161713 157.356 
L 220.553186 154.781819 
L 218.769012 152.326114 
L 216.817882 150.000848 
L 214.709303 147.817351 
L 212.453548 145.786259 
L 210.061605 143.917469 
L 207.545129 142.220084 
L 204.916379 140.702375 
L 202.188163 139.371735 
L 199.373772 138.234647 
L 196.486917 137.296651 
L 193.541664 136.562317 
L 190.55236 136.035222 
L 187.53357 135.717935 
L 184.5 135.612 
L 184.5 135.612 
" style="fill:none;stroke:#ffffff;stroke-linecap:round;"/>
     </g>
     <g id="text_8">
      <!-- 2 -->
      <defs>
       <path d="M 50.34375 8.453125 
L 50.34375 0 
L 3.03125 0 
Q 2.9375 3.171875 4.046875 6.109375 
Q 5.859375 10.9375 9.828125 15.625 
Q 13.8125 20.3125 21.34375 26.46875 
Q 33.015625 36.03125 37.109375 41.625 
Q 41.21875 47.21875 41.21875 52.203125 
Q 41.21875 57.421875 37.46875 61 
Q 33.734375 64.59375 27.734375 64.59375 
Q 21.390625 64.59375 17.578125 60.78125 
Q 13.765625 56.984375 13.71875 50.25 
L 4.6875 51.171875 
Q 5.609375 61.28125 11.65625 66.578125 
Q 17.71875 71.875 27.9375 71.875 
Q 38.234375 71.875 44.234375 66.15625 
Q 50.25 60.453125 50.25 52 
Q 50.25 47.703125 48.484375 43.546875 
Q 46.734375 39.40625 42.65625 34.8125 
Q 38.578125 30.21875 29.109375 22.21875 
Q 21.1875 15.578125 18.9375 13.203125 
Q 16.703125 10.84375 15.234375 8.453125 
z
" id="ArialMT-50"/>
      </defs>
      <g style="fill:#262626;" transform="translate(167.857863 136.736077)scale(0.11 -0.11)">
       <use xlink:href="#ArialMT-50"/>
      </g>
     </g>
    </g>
    <g id="ytick_3">
     <g id="line2d_9">
      <path clip-path="url(#pbd7f5621f4)" d="M 184.5 113.868 
L 179.949646 114.026902 
L 175.42146 114.502833 
L 170.937505 115.293476 
L 166.519624 116.394977 
L 162.189342 117.801971 
L 157.967755 119.507603 
L 153.875431 121.503563 
L 149.932307 123.780127 
L 146.157592 126.326203 
L 142.569679 129.129389 
L 139.186045 132.176026 
L 136.023177 135.451272 
L 133.096483 138.939171 
L 130.420221 142.622729 
L 128.007431 146.484 
L 125.869867 150.504173 
L 124.017943 154.663663 
L 122.460681 158.942203 
L 121.205669 163.318951 
L 120.259021 167.772582 
L 119.625348 172.281399 
L 119.307738 176.823436 
L 119.307738 181.376564 
L 119.625348 185.918601 
L 120.259021 190.427418 
L 121.205669 194.881049 
L 122.460681 199.257797 
L 124.017943 203.536337 
L 125.869867 207.695827 
L 128.007431 211.716 
L 130.420221 215.577271 
L 133.096483 219.260829 
L 136.023177 222.748728 
L 139.186045 226.023974 
L 142.569679 229.070611 
L 146.157592 231.873797 
L 149.932307 234.419873 
L 153.875431 236.696437 
L 157.967755 238.692397 
L 162.189342 240.398029 
L 166.519624 241.805023 
L 170.937505 242.906524 
L 175.42146 243.697167 
L 179.949646 244.173098 
L 184.5 244.332 
L 189.050354 244.173098 
L 193.57854 243.697167 
L 198.062495 242.906524 
L 202.480376 241.805023 
L 206.810658 240.398029 
L 211.032245 238.692397 
L 215.124569 236.696437 
L 219.067693 234.419873 
L 222.842408 231.873797 
L 226.430321 229.070611 
L 229.813955 226.023974 
L 232.976823 222.748728 
L 235.903517 219.260829 
L 238.579779 215.577271 
L 240.992569 211.716 
L 243.130133 207.695827 
L 244.982057 203.536337 
L 246.539319 199.257797 
L 247.794331 194.881049 
L 248.740979 190.427418 
L 249.374652 185.918601 
L 249.692262 181.376564 
L 249.692262 176.823436 
L 249.374652 172.281399 
L 248.740979 167.772582 
L 247.794331 163.318951 
L 246.539319 158.942203 
L 244.982057 154.663663 
L 243.130133 150.504173 
L 240.992569 146.484 
L 238.579779 142.622729 
L 235.903517 138.939171 
L 232.976823 135.451272 
L 229.813955 132.176026 
L 226.430321 129.129389 
L 222.842408 126.326203 
L 219.067693 123.780127 
L 215.124569 121.503563 
L 211.032245 119.507603 
L 206.810658 117.801971 
L 202.480376 116.394977 
L 198.062495 115.293476 
L 193.57854 114.502833 
L 189.050354 114.026902 
L 184.5 113.868 
L 184.5 113.868 
" style="fill:none;stroke:#ffffff;stroke-linecap:round;"/>
     </g>
     <g id="text_9">
      <!-- 3 -->
      <defs>
       <path d="M 4.203125 18.890625 
L 12.984375 20.0625 
Q 14.5 12.59375 18.140625 9.296875 
Q 21.78125 6 27 6 
Q 33.203125 6 37.46875 10.296875 
Q 41.75 14.59375 41.75 20.953125 
Q 41.75 27 37.796875 30.921875 
Q 33.84375 34.859375 27.734375 34.859375 
Q 25.25 34.859375 21.53125 33.890625 
L 22.515625 41.609375 
Q 23.390625 41.5 23.921875 41.5 
Q 29.546875 41.5 34.03125 44.421875 
Q 38.53125 47.359375 38.53125 53.46875 
Q 38.53125 58.296875 35.25 61.46875 
Q 31.984375 64.65625 26.8125 64.65625 
Q 21.6875 64.65625 18.265625 61.421875 
Q 14.84375 58.203125 13.875 51.765625 
L 5.078125 53.328125 
Q 6.6875 62.15625 12.390625 67.015625 
Q 18.109375 71.875 26.609375 71.875 
Q 32.46875 71.875 37.390625 69.359375 
Q 42.328125 66.84375 44.9375 62.5 
Q 47.5625 58.15625 47.5625 53.265625 
Q 47.5625 48.640625 45.0625 44.828125 
Q 42.578125 41.015625 37.703125 38.765625 
Q 44.046875 37.3125 47.5625 32.6875 
Q 51.078125 28.078125 51.078125 21.140625 
Q 51.078125 11.765625 44.234375 5.25 
Q 37.40625 -1.265625 26.953125 -1.265625 
Q 17.53125 -1.265625 11.296875 4.34375 
Q 5.078125 9.96875 4.203125 18.890625 
z
" id="ArialMT-51"/>
      </defs>
      <g style="fill:#262626;" transform="translate(159.536794 116.64724)scale(0.11 -0.11)">
       <use xlink:href="#ArialMT-51"/>
      </g>
     </g>
    </g>
    <g id="ytick_4">
     <g id="line2d_10">
      <path clip-path="url(#pbd7f5621f4)" d="M 184.5 92.124 
L 178.432861 92.335869 
L 172.39528 92.970444 
L 166.416673 94.024634 
L 160.526165 95.493303 
L 154.752456 97.369295 
L 149.123674 99.64347 
L 143.667241 102.30475 
L 138.409742 105.340169 
L 133.37679 108.734938 
L 128.592905 112.472519 
L 124.081394 116.534702 
L 119.864236 120.901696 
L 115.961977 125.552228 
L 112.393628 130.463638 
L 109.176574 135.612 
L 106.326489 140.972231 
L 103.857257 146.518217 
L 101.780908 152.222938 
L 100.107559 158.058601 
L 98.845361 163.996776 
L 98.000464 170.008532 
L 97.576983 176.064581 
L 97.576983 182.135419 
L 98.000464 188.191468 
L 98.845361 194.203224 
L 100.107559 200.141399 
L 101.780908 205.977062 
L 103.857257 211.681783 
L 106.326489 217.227769 
L 109.176574 222.588 
L 112.393628 227.736362 
L 115.961977 232.647772 
L 119.864236 237.298304 
L 124.081394 241.665298 
L 128.592905 245.727481 
L 133.37679 249.465062 
L 138.409742 252.859831 
L 143.667241 255.89525 
L 149.123674 258.55653 
L 154.752456 260.830705 
L 160.526165 262.706697 
L 166.416673 264.175366 
L 172.39528 265.229556 
L 178.432861 265.864131 
L 184.5 266.076 
L 190.567139 265.864131 
L 196.60472 265.229556 
L 202.583327 264.175366 
L 208.473835 262.706697 
L 214.247544 260.830705 
L 219.876326 258.55653 
L 225.332759 255.89525 
L 230.590258 252.859831 
L 235.62321 249.465062 
L 240.407095 245.727481 
L 244.918606 241.665298 
L 249.135764 237.298304 
L 253.038023 232.647772 
L 256.606372 227.736362 
L 259.823426 222.588 
L 262.673511 217.227769 
L 265.142743 211.681783 
L 267.219092 205.977062 
L 268.892441 200.141399 
L 270.154639 194.203224 
L 270.999536 188.191468 
L 271.423017 182.135419 
L 271.423017 176.064581 
L 270.999536 170.008532 
L 270.154639 163.996776 
L 268.892441 158.058601 
L 267.219092 152.222938 
L 265.142743 146.518217 
L 262.673511 140.972231 
L 259.823426 135.612 
L 256.606372 130.463638 
L 253.038023 125.552228 
L 249.135764 120.901696 
L 244.918606 116.534702 
L 240.407095 112.472519 
L 235.62321 108.734938 
L 230.590258 105.340169 
L 225.332759 102.30475 
L 219.876326 99.64347 
L 214.247544 97.369295 
L 208.473835 95.493303 
L 202.583327 94.024634 
L 196.60472 92.970444 
L 190.567139 92.335869 
L 184.5 92.124 
L 184.5 92.124 
" style="fill:none;stroke:#ffffff;stroke-linecap:round;"/>
     </g>
     <g id="text_10">
      <!-- 4 -->
      <defs>
       <path d="M 32.328125 0 
L 32.328125 17.140625 
L 1.265625 17.140625 
L 1.265625 25.203125 
L 33.9375 71.578125 
L 41.109375 71.578125 
L 41.109375 25.203125 
L 50.78125 25.203125 
L 50.78125 17.140625 
L 41.109375 17.140625 
L 41.109375 0 
z
M 32.328125 25.203125 
L 32.328125 57.46875 
L 9.90625 25.203125 
z
" id="ArialMT-52"/>
      </defs>
      <g style="fill:#262626;" transform="translate(151.215726 96.558404)scale(0.11 -0.11)">
       <use xlink:href="#ArialMT-52"/>
      </g>
     </g>
    </g>
    <g id="ytick_5">
     <g id="line2d_11">
      <path clip-path="url(#pbd7f5621f4)" d="M 184.5 70.38 
L 180.705727 70.446229 
L 176.916076 70.644836 
L 173.135665 70.97558 
L 169.3691 71.438056 
L 165.62097 72.031701 
L 161.895841 72.755793 
L 158.198252 73.609449 
L 154.532707 74.591628 
L 150.903672 75.701136 
L 147.31557 76.936618 
L 143.772771 78.296571 
L 140.279592 79.779338 
L 136.840289 81.383111 
L 133.459052 83.105938 
L 130.14 84.945718 
L 126.887178 86.900211 
L 123.704548 88.967035 
L 120.595987 91.143672 
L 117.565284 93.427471 
L 114.616131 95.815648 
L 111.75212 98.305295 
L 108.976742 100.893377 
L 106.293377 103.576742 
L 103.705295 106.35212 
L 101.215648 109.216131 
L 98.827471 112.165284 
L 96.543672 115.195987 
L 94.367035 118.304548 
L 92.300211 121.487178 
L 90.345718 124.74 
L 88.505938 128.059052 
L 86.783111 131.440289 
L 85.179338 134.879592 
L 83.696571 138.372771 
L 82.336618 141.91557 
L 81.101136 145.503672 
L 79.991628 149.132707 
L 79.009449 152.798252 
L 78.155793 156.495841 
L 77.431701 160.22097 
L 76.838056 163.9691 
L 76.37558 167.735665 
L 76.044836 171.516076 
L 75.846229 175.305727 
L 75.78 179.1 
L 75.846229 182.894273 
L 76.044836 186.683924 
L 76.37558 190.464335 
L 76.838056 194.2309 
L 77.431701 197.97903 
L 78.155793 201.704159 
L 79.009449 205.401748 
L 79.991628 209.067293 
L 81.101136 212.696328 
L 82.336618 216.28443 
L 83.696571 219.827229 
L 85.179338 223.320408 
L 86.783111 226.759711 
L 88.505938 230.140948 
L 90.345718 233.46 
L 92.300211 236.712822 
L 94.367035 239.895452 
L 96.543672 243.004013 
L 98.827471 246.034716 
L 101.215648 248.983869 
L 103.705295 251.84788 
L 106.293377 254.623258 
L 108.976742 257.306623 
L 111.75212 259.894705 
L 114.616131 262.384352 
L 117.565284 264.772529 
L 120.595987 267.056328 
L 123.704548 269.232965 
L 126.887178 271.299789 
L 130.14 273.254282 
L 133.459052 275.094062 
L 136.840289 276.816889 
L 140.279592 278.420662 
L 143.772771 279.903429 
L 147.31557 281.263382 
L 150.903672 282.498864 
L 154.532707 283.608372 
L 158.198252 284.590551 
L 161.895841 285.444207 
L 165.62097 286.168299 
L 169.3691 286.761944 
L 173.135665 287.22442 
L 176.916076 287.555164 
L 180.705727 287.753771 
L 184.5 287.82 
L 188.294273 287.753771 
L 192.083924 287.555164 
L 195.864335 287.22442 
L 199.6309 286.761944 
L 203.37903 286.168299 
L 207.104159 285.444207 
L 210.801748 284.590551 
L 214.467293 283.608372 
L 218.096328 282.498864 
L 221.68443 281.263382 
L 225.227229 279.903429 
L 228.720408 278.420662 
L 232.159711 276.816889 
L 235.540948 275.094062 
L 238.86 273.254282 
L 242.112822 271.299789 
L 245.295452 269.232965 
L 248.404013 267.056328 
L 251.434716 264.772529 
L 254.383869 262.384352 
L 257.24788 259.894705 
L 260.023258 257.306623 
L 262.706623 254.623258 
L 265.294705 251.84788 
L 267.784352 248.983869 
L 270.172529 246.034716 
L 272.456328 243.004013 
L 274.632965 239.895452 
L 276.699789 236.712822 
L 278.654282 233.46 
L 280.494062 230.140948 
L 282.216889 226.759711 
L 283.820662 223.320408 
L 285.303429 219.827229 
L 286.663382 216.28443 
L 287.898864 212.696328 
L 289.008372 209.067293 
L 289.990551 205.401748 
L 290.844207 201.704159 
L 291.568299 197.97903 
L 292.161944 194.2309 
L 292.62442 190.464335 
L 292.955164 186.683924 
L 293.153771 182.894273 
L 293.22 179.1 
L 293.153771 175.305727 
L 292.955164 171.516076 
L 292.62442 167.735665 
L 292.161944 163.9691 
L 291.568299 160.22097 
L 290.844207 156.495841 
L 289.990551 152.798252 
L 289.008372 149.132707 
L 287.898864 145.503672 
L 286.663382 141.91557 
L 285.303429 138.372771 
L 283.820662 134.879592 
L 282.216889 131.440289 
L 280.494062 128.059052 
L 278.654282 124.74 
L 276.699789 121.487178 
L 274.632965 118.304548 
L 272.456328 115.195987 
L 270.172529 112.165284 
L 267.784352 109.216131 
L 265.294705 106.35212 
L 262.706623 103.576742 
L 260.023258 100.893377 
L 257.24788 98.305295 
L 254.383869 95.815648 
L 251.434716 93.427471 
L 248.404013 91.143672 
L 245.295452 88.967035 
L 242.112822 86.900211 
L 238.86 84.945718 
L 235.540948 83.105938 
L 232.159711 81.383111 
L 228.720408 79.779338 
L 225.227229 78.296571 
L 221.68443 76.936618 
L 218.096328 75.701136 
L 214.467293 74.591628 
L 210.801748 73.609449 
L 207.104159 72.755793 
L 203.37903 72.031701 
L 199.6309 71.438056 
L 195.864335 70.97558 
L 192.083924 70.644836 
L 188.294273 70.446229 
L 184.5 70.38 
L 184.5 70.38 
" style="fill:none;stroke:#ffffff;stroke-linecap:round;"/>
     </g>
     <g id="text_11">
      <!-- 5 -->
      <defs>
       <path d="M 4.15625 18.75 
L 13.375 19.53125 
Q 14.40625 12.796875 18.140625 9.390625 
Q 21.875 6 27.15625 6 
Q 33.5 6 37.890625 10.78125 
Q 42.28125 15.578125 42.28125 23.484375 
Q 42.28125 31 38.0625 35.34375 
Q 33.84375 39.703125 27 39.703125 
Q 22.75 39.703125 19.328125 37.765625 
Q 15.921875 35.84375 13.96875 32.765625 
L 5.71875 33.84375 
L 12.640625 70.609375 
L 48.25 70.609375 
L 48.25 62.203125 
L 19.671875 62.203125 
L 15.828125 42.96875 
Q 22.265625 47.46875 29.34375 47.46875 
Q 38.71875 47.46875 45.15625 40.96875 
Q 51.609375 34.46875 51.609375 24.265625 
Q 51.609375 14.546875 45.953125 7.46875 
Q 39.0625 -1.21875 27.15625 -1.21875 
Q 17.390625 -1.21875 11.203125 4.25 
Q 5.03125 9.71875 4.15625 18.75 
z
" id="ArialMT-53"/>
      </defs>
      <g style="fill:#262626;" transform="translate(142.894657 76.469567)scale(0.11 -0.11)">
       <use xlink:href="#ArialMT-53"/>
      </g>
     </g>
    </g>
    <g id="ytick_6">
     <g id="line2d_12">
      <path clip-path="url(#pbd7f5621f4)" d="M 184.5 48.636 
L 179.946872 48.715475 
L 175.399291 48.953804 
L 170.862799 49.350695 
L 166.342921 49.905667 
L 161.845164 50.618041 
L 157.375009 51.486951 
L 152.937902 52.511338 
L 148.539248 53.689954 
L 144.184407 55.021363 
L 139.878684 56.503942 
L 135.627325 58.135886 
L 131.435511 59.915205 
L 127.308347 61.839734 
L 123.250862 63.907125 
L 119.268 66.114862 
L 115.364613 68.460253 
L 111.545457 70.940442 
L 107.815185 73.552407 
L 104.178341 76.292965 
L 100.639357 79.158778 
L 97.202545 82.146353 
L 93.87209 85.252052 
L 90.652052 88.47209 
L 87.546353 91.802545 
L 84.558778 95.239357 
L 81.692965 98.778341 
L 78.952407 102.415185 
L 76.340442 106.145457 
L 73.860253 109.964613 
L 71.514862 113.868 
L 69.307125 117.850862 
L 67.239734 121.908347 
L 65.315205 126.035511 
L 63.535886 130.227325 
L 61.903942 134.478684 
L 60.421363 138.784407 
L 59.089954 143.139248 
L 57.911338 147.537902 
L 56.886951 151.975009 
L 56.018041 156.445164 
L 55.305667 160.942921 
L 54.750695 165.462799 
L 54.353804 169.999291 
L 54.115475 174.546872 
L 54.036 179.1 
L 54.115475 183.653128 
L 54.353804 188.200709 
L 54.750695 192.737201 
L 55.305667 197.257079 
L 56.018041 201.754836 
L 56.886951 206.224991 
L 57.911338 210.662098 
L 59.089954 215.060752 
L 60.421363 219.415593 
L 61.903942 223.721316 
L 63.535886 227.972675 
L 65.315205 232.164489 
L 67.239734 236.291653 
L 69.307125 240.349138 
L 71.514862 244.332 
L 73.860253 248.235387 
L 76.340442 252.054543 
L 78.952407 255.784815 
L 81.692965 259.421659 
L 84.558778 262.960643 
L 87.546353 266.397455 
L 90.652052 269.72791 
L 93.87209 272.947948 
L 97.202545 276.053647 
L 100.639357 279.041222 
L 104.178341 281.907035 
L 107.815185 284.647593 
L 111.545457 287.259558 
L 115.364613 289.739747 
L 119.268 292.085138 
L 123.250862 294.292875 
L 127.308347 296.360266 
L 131.435511 298.284795 
L 135.627325 300.064114 
L 139.878684 301.696058 
L 144.184407 303.178637 
L 148.539248 304.510046 
L 152.937902 305.688662 
L 157.375009 306.713049 
L 161.845164 307.581959 
L 166.342921 308.294333 
L 170.862799 308.849305 
L 175.399291 309.246196 
L 179.946872 309.484525 
L 184.5 309.564 
L 189.053128 309.484525 
L 193.600709 309.246196 
L 198.137201 308.849305 
L 202.657079 308.294333 
L 207.154836 307.581959 
L 211.624991 306.713049 
L 216.062098 305.688662 
L 220.460752 304.510046 
L 224.815593 303.178637 
L 229.121316 301.696058 
L 233.372675 300.064114 
L 237.564489 298.284795 
L 241.691653 296.360266 
L 245.749138 294.292875 
L 249.732 292.085138 
L 253.635387 289.739747 
L 257.454543 287.259558 
L 261.184815 284.647593 
L 264.821659 281.907035 
L 268.360643 279.041222 
L 271.797455 276.053647 
L 275.12791 272.947948 
L 278.347948 269.72791 
L 281.453647 266.397455 
L 284.441222 262.960643 
L 287.307035 259.421659 
L 290.047593 255.784815 
L 292.659558 252.054543 
L 295.139747 248.235387 
L 297.485138 244.332 
L 299.692875 240.349138 
L 301.760266 236.291653 
L 303.684795 232.164489 
L 305.464114 227.972675 
L 307.096058 223.721316 
L 308.578637 219.415593 
L 309.910046 215.060752 
L 311.088662 210.662098 
L 312.113049 206.224991 
L 312.981959 201.754836 
L 313.694333 197.257079 
L 314.249305 192.737201 
L 314.646196 188.200709 
L 314.884525 183.653128 
L 314.964 179.1 
L 314.884525 174.546872 
L 314.646196 169.999291 
L 314.249305 165.462799 
L 313.694333 160.942921 
L 312.981959 156.445164 
L 312.113049 151.975009 
L 311.088662 147.537902 
L 309.910046 143.139248 
L 308.578637 138.784407 
L 307.096058 134.478684 
L 305.464114 130.227325 
L 303.684795 126.035511 
L 301.760266 121.908347 
L 299.692875 117.850862 
L 297.485138 113.868 
L 295.139747 109.964613 
L 292.659558 106.145457 
L 290.047593 102.415185 
L 287.307035 98.778341 
L 284.441222 95.239357 
L 281.453647 91.802545 
L 278.347948 88.47209 
L 275.12791 85.252052 
L 271.797455 82.146353 
L 268.360643 79.158778 
L 264.821659 76.292965 
L 261.184815 73.552407 
L 257.454543 70.940442 
L 253.635387 68.460253 
L 249.732 66.114862 
L 245.749138 63.907125 
L 241.691653 61.839734 
L 237.564489 59.915205 
L 233.372675 58.135886 
L 229.121316 56.503942 
L 224.815593 55.021363 
L 220.460752 53.689954 
L 216.062098 52.511338 
L 211.624991 51.486951 
L 207.154836 50.618041 
L 202.657079 49.905667 
L 198.137201 49.350695 
L 193.600709 48.953804 
L 189.053128 48.715475 
L 184.5 48.636 
L 184.5 48.636 
" style="fill:none;stroke:#ffffff;stroke-linecap:round;"/>
     </g>
     <g id="text_12">
      <!-- 6 -->
      <defs>
       <path d="M 49.75 54.046875 
L 41.015625 53.375 
Q 39.84375 58.546875 37.703125 60.890625 
Q 34.125 64.65625 28.90625 64.65625 
Q 24.703125 64.65625 21.53125 62.3125 
Q 17.390625 59.28125 14.984375 53.46875 
Q 12.59375 47.65625 12.5 36.921875 
Q 15.671875 41.75 20.265625 44.09375 
Q 24.859375 46.4375 29.890625 46.4375 
Q 38.671875 46.4375 44.84375 39.96875 
Q 51.03125 33.5 51.03125 23.25 
Q 51.03125 16.5 48.125 10.71875 
Q 45.21875 4.9375 40.140625 1.859375 
Q 35.0625 -1.21875 28.609375 -1.21875 
Q 17.625 -1.21875 10.6875 6.859375 
Q 3.765625 14.9375 3.765625 33.5 
Q 3.765625 54.25 11.421875 63.671875 
Q 18.109375 71.875 29.4375 71.875 
Q 37.890625 71.875 43.28125 67.140625 
Q 48.6875 62.40625 49.75 54.046875 
z
M 13.875 23.1875 
Q 13.875 18.65625 15.796875 14.5 
Q 17.71875 10.359375 21.1875 8.171875 
Q 24.65625 6 28.46875 6 
Q 34.03125 6 38.03125 10.484375 
Q 42.046875 14.984375 42.046875 22.703125 
Q 42.046875 30.125 38.078125 34.390625 
Q 34.125 38.671875 28.125 38.671875 
Q 22.171875 38.671875 18.015625 34.390625 
Q 13.875 30.125 13.875 23.1875 
z
" id="ArialMT-54"/>
      </defs>
      <g style="fill:#262626;" transform="translate(134.573589 56.380731)scale(0.11 -0.11)">
       <use xlink:href="#ArialMT-54"/>
      </g>
     </g>
    </g>
   </g>
   <g id="patch_3">
    <path clip-path="url(#pbd7f5621f4)" d="M 184.5 113.868 
L 128.007431 146.484 
L 71.514862 244.332 
L 184.5 309.564 
L 240.992569 211.716 
L 203.330856 168.228 
z
" style="fill:#4c72b0;opacity:0.25;stroke:#ffffff;stroke-linejoin:miter;"/>
   </g>
   <g id="line2d_13">
    <path clip-path="url(#pbd7f5621f4)" d="M 184.5 113.868 
L 128.007431 146.484 
L 71.514862 244.332 
L 184.5 309.564 
L 240.992569 211.716 
L 203.330856 168.228 
L 184.5 113.868 
" style="fill:none;stroke:#4c72b0;stroke-linecap:round;stroke-width:1.5;"/>
   </g>
   <g id="patch_4">
    <path d="M 184.5 43.2 
L 66.807148 111.15 
L 66.807148 247.05 
L 184.5 315 
L 302.192852 247.05 
L 302.192852 111.15 
z
" style="fill:none;stroke:#ffffff;stroke-linecap:square;stroke-linejoin:miter;stroke-width:1.25;"/>
   </g>
  </g>
 </g>
 <defs>
  <clipPath id="pbd7f5621f4">
   <path d="M 184.5 43.2 
L 66.807148 111.15 
L 66.807148 247.05 
L 184.5 315 
L 302.192852 247.05 
L 302.192852 111.15 
z
"/>
  </clipPath>
 </defs>
</svg>
