<?xml version="1.0" encoding="utf-8" standalone="no"?>
<!DOCTYPE svg PUBLIC "-//W3C//DTD SVG 1.1//EN"
  "http://www.w3.org/Graphics/SVG/1.1/DTD/svg11.dtd">
<!-- Created with matplotlib (https://matplotlib.org/) -->
<svg height="360pt" version="1.1" viewBox="0 0 360 360" width="360pt" xmlns="http://www.w3.org/2000/svg" xmlns:xlink="http://www.w3.org/1999/xlink">
 <defs>
  <style type="text/css">
*{stroke-linecap:butt;stroke-linejoin:round;}
  </style>
 </defs>
 <g id="figure_1">
  <g id="patch_1">
   <path d="M 0 360 
L 360 360 
L 360 0 
L 0 0 
z
" style="fill:#ffffff;"/>
  </g>
  <g id="axes_1">
   <g id="patch_2">
    <path d="M 184.5 43.2 
L 66.807148 111.15 
L 66.807148 247.05 
L 184.5 315 
L 302.192852 247.05 
L 302.192852 111.15 
z
" style="fill:#eaeaf2;"/>
   </g>
   <g id="matplotlib.axis_1">
    <g id="xtick_1">
     <g id="line2d_1">
      <path clip-path="url(#p201c530434)" d="M 184.5 179.1 
L 184.5 43.2 
" style="fill:none;stroke:#ffffff;stroke-linecap:round;"/>
     </g>
     <g id="text_1">
      <!-- Flights -->
      <defs>
       <path d="M 8.203125 0 
L 8.203125 71.578125 
L 56.5 71.578125 
L 56.5 63.140625 
L 17.671875 63.140625 
L 17.671875 40.96875 
L 51.265625 40.96875 
L 51.265625 32.515625 
L 17.671875 32.515625 
L 17.671875 0 
z
" id="ArialMT-70"/>
       <path d="M 6.390625 0 
L 6.390625 71.578125 
L 15.1875 71.578125 
L 15.1875 0 
z
" id="ArialMT-108"/>
       <path d="M 6.640625 61.46875 
L 6.640625 71.578125 
L 15.4375 71.578125 
L 15.4375 61.46875 
z
M 6.640625 0 
L 6.640625 51.859375 
L 15.4375 51.859375 
L 15.4375 0 
z
" id="ArialMT-105"/>
       <path d="M 4.984375 -4.296875 
L 13.53125 -5.5625 
Q 14.0625 -9.515625 16.5 -11.328125 
Q 19.78125 -13.765625 25.4375 -13.765625 
Q 31.546875 -13.765625 34.859375 -11.328125 
Q 38.1875 -8.890625 39.359375 -4.5 
Q 40.046875 -1.8125 39.984375 6.78125 
Q 34.234375 0 25.640625 0 
Q 14.9375 0 9.078125 7.71875 
Q 3.21875 15.4375 3.21875 26.21875 
Q 3.21875 33.640625 5.90625 39.90625 
Q 8.59375 46.1875 13.6875 49.609375 
Q 18.796875 53.03125 25.6875 53.03125 
Q 34.859375 53.03125 40.828125 45.609375 
L 40.828125 51.859375 
L 48.921875 51.859375 
L 48.921875 7.03125 
Q 48.921875 -5.078125 46.453125 -10.125 
Q 44 -15.1875 38.640625 -18.109375 
Q 33.296875 -21.046875 25.484375 -21.046875 
Q 16.21875 -21.046875 10.5 -16.875 
Q 4.78125 -12.703125 4.984375 -4.296875 
z
M 12.25 26.859375 
Q 12.25 16.65625 16.296875 11.96875 
Q 20.359375 7.28125 26.46875 7.28125 
Q 32.515625 7.28125 36.609375 11.9375 
Q 40.71875 16.609375 40.71875 26.5625 
Q 40.71875 36.078125 36.5 40.90625 
Q 32.28125 45.75 26.3125 45.75 
Q 20.453125 45.75 16.34375 40.984375 
Q 12.25 36.234375 12.25 26.859375 
z
" id="ArialMT-103"/>
       <path d="M 6.59375 0 
L 6.59375 71.578125 
L 15.375 71.578125 
L 15.375 45.90625 
Q 21.53125 53.03125 30.90625 53.03125 
Q 36.671875 53.03125 40.921875 50.75 
Q 45.171875 48.484375 47 44.484375 
Q 48.828125 40.484375 48.828125 32.859375 
L 48.828125 0 
L 40.046875 0 
L 40.046875 32.859375 
Q 40.046875 39.453125 37.1875 42.453125 
Q 34.328125 45.453125 29.109375 45.453125 
Q 25.203125 45.453125 21.75 43.421875 
Q 18.3125 41.40625 16.84375 37.9375 
Q 15.375 34.46875 15.375 28.375 
L 15.375 0 
z
" id="ArialMT-104"/>
       <path d="M 25.78125 7.859375 
L 27.046875 0.09375 
Q 23.34375 -0.6875 20.40625 -0.6875 
Q 15.625 -0.6875 12.984375 0.828125 
Q 10.359375 2.34375 9.28125 4.8125 
Q 8.203125 7.28125 8.203125 15.1875 
L 8.203125 45.015625 
L 1.765625 45.015625 
L 1.765625 51.859375 
L 8.203125 51.859375 
L 8.203125 64.703125 
L 16.9375 69.96875 
L 16.9375 51.859375 
L 25.78125 51.859375 
L 25.78125 45.015625 
L 16.9375 45.015625 
L 16.9375 14.703125 
Q 16.9375 10.9375 17.40625 9.859375 
Q 17.875 8.796875 18.921875 8.15625 
Q 19.96875 7.515625 21.921875 7.515625 
Q 23.390625 7.515625 25.78125 7.859375 
z
" id="ArialMT-116"/>
       <path d="M 3.078125 15.484375 
L 11.765625 16.84375 
Q 12.5 11.625 15.84375 8.84375 
Q 19.1875 6.0625 25.203125 6.0625 
Q 31.25 6.0625 34.171875 8.515625 
Q 37.109375 10.984375 37.109375 14.3125 
Q 37.109375 17.28125 34.515625 19 
Q 32.71875 20.171875 25.53125 21.96875 
Q 15.875 24.421875 12.140625 26.203125 
Q 8.40625 27.984375 6.46875 31.125 
Q 4.546875 34.28125 4.546875 38.09375 
Q 4.546875 41.546875 6.125 44.5 
Q 7.71875 47.46875 10.453125 49.421875 
Q 12.5 50.921875 16.03125 51.96875 
Q 19.578125 53.03125 23.640625 53.03125 
Q 29.734375 53.03125 34.34375 51.265625 
Q 38.96875 49.515625 41.15625 46.5 
Q 43.359375 43.5 44.1875 38.484375 
L 35.59375 37.3125 
Q 35.015625 41.3125 32.203125 43.546875 
Q 29.390625 45.796875 24.265625 45.796875 
Q 18.21875 45.796875 15.625 43.796875 
Q 13.03125 41.796875 13.03125 39.109375 
Q 13.03125 37.40625 14.109375 36.03125 
Q 15.1875 34.625 17.484375 33.6875 
Q 18.796875 33.203125 25.25 31.453125 
Q 34.578125 28.953125 38.25 27.359375 
Q 41.9375 25.78125 44.03125 22.75 
Q 46.140625 19.734375 46.140625 15.234375 
Q 46.140625 10.84375 43.578125 6.953125 
Q 41.015625 3.078125 36.171875 0.953125 
Q 31.34375 -1.171875 25.25 -1.171875 
Q 15.140625 -1.171875 9.84375 3.03125 
Q 4.546875 7.234375 3.078125 15.484375 
z
" id="ArialMT-115"/>
      </defs>
      <g style="fill:#262626;" transform="translate(168.301641 29.479219)scale(0.11 -0.11)">
       <use xlink:href="#ArialMT-70"/>
       <use x="61.083984" xlink:href="#ArialMT-108"/>
       <use x="83.300781" xlink:href="#ArialMT-105"/>
       <use x="105.517578" xlink:href="#ArialMT-103"/>
       <use x="161.132812" xlink:href="#ArialMT-104"/>
       <use x="216.748047" xlink:href="#ArialMT-116"/>
       <use x="244.53125" xlink:href="#ArialMT-115"/>
      </g>
     </g>
    </g>
    <g id="xtick_2">
     <g id="line2d_2">
      <path clip-path="url(#p201c530434)" d="M 184.5 179.1 
L 66.807148 111.15 
" style="fill:none;stroke:#ffffff;stroke-linecap:round;"/>
     </g>
     <g id="text_2">
      <!-- Hotel -->
      <defs>
       <path d="M 8.015625 0 
L 8.015625 71.578125 
L 17.484375 71.578125 
L 17.484375 42.1875 
L 54.6875 42.1875 
L 54.6875 71.578125 
L 64.15625 71.578125 
L 64.15625 0 
L 54.6875 0 
L 54.6875 33.734375 
L 17.484375 33.734375 
L 17.484375 0 
z
" id="ArialMT-72"/>
       <path d="M 3.328125 25.921875 
Q 3.328125 40.328125 11.328125 47.265625 
Q 18.015625 53.03125 27.640625 53.03125 
Q 38.328125 53.03125 45.109375 46.015625 
Q 51.90625 39.015625 51.90625 26.65625 
Q 51.90625 16.65625 48.90625 10.90625 
Q 45.90625 5.171875 40.15625 2 
Q 34.421875 -1.171875 27.640625 -1.171875 
Q 16.75 -1.171875 10.03125 5.8125 
Q 3.328125 12.796875 3.328125 25.921875 
z
M 12.359375 25.921875 
Q 12.359375 15.96875 16.703125 11.015625 
Q 21.046875 6.0625 27.640625 6.0625 
Q 34.1875 6.0625 38.53125 11.03125 
Q 42.875 16.015625 42.875 26.21875 
Q 42.875 35.84375 38.5 40.796875 
Q 34.125 45.75 27.640625 45.75 
Q 21.046875 45.75 16.703125 40.8125 
Q 12.359375 35.890625 12.359375 25.921875 
z
" id="ArialMT-111"/>
       <path d="M 42.09375 16.703125 
L 51.171875 15.578125 
Q 49.03125 7.625 43.21875 3.21875 
Q 37.40625 -1.171875 28.375 -1.171875 
Q 17 -1.171875 10.328125 5.828125 
Q 3.65625 12.84375 3.65625 25.484375 
Q 3.65625 38.578125 10.390625 45.796875 
Q 17.140625 53.03125 27.875 53.03125 
Q 38.28125 53.03125 44.875 45.953125 
Q 51.46875 38.875 51.46875 26.03125 
Q 51.46875 25.25 51.421875 23.6875 
L 12.75 23.6875 
Q 13.234375 15.140625 17.578125 10.59375 
Q 21.921875 6.0625 28.421875 6.0625 
Q 33.25 6.0625 36.671875 8.59375 
Q 40.09375 11.140625 42.09375 16.703125 
z
M 13.234375 30.90625 
L 42.1875 30.90625 
Q 41.609375 37.453125 38.875 40.71875 
Q 34.671875 45.796875 27.984375 45.796875 
Q 21.921875 45.796875 17.796875 41.75 
Q 13.671875 37.703125 13.234375 30.90625 
z
" id="ArialMT-101"/>
      </defs>
      <g style="fill:#262626;" transform="translate(39.678666 105.743672)scale(0.11 -0.11)">
       <use xlink:href="#ArialMT-72"/>
       <use x="72.216797" xlink:href="#ArialMT-111"/>
       <use x="127.832031" xlink:href="#ArialMT-116"/>
       <use x="155.615234" xlink:href="#ArialMT-101"/>
       <use x="211.230469" xlink:href="#ArialMT-108"/>
      </g>
     </g>
    </g>
    <g id="xtick_3">
     <g id="line2d_3">
      <path clip-path="url(#p201c530434)" d="M 184.5 179.1 
L 66.807148 247.05 
" style="fill:none;stroke:#ffffff;stroke-linecap:round;"/>
     </g>
     <g id="text_3">
      <!-- Grocery -->
      <defs>
       <path d="M 41.21875 28.078125 
L 41.21875 36.46875 
L 71.53125 36.53125 
L 71.53125 9.96875 
Q 64.546875 4.390625 57.125 1.578125 
Q 49.703125 -1.21875 41.890625 -1.21875 
Q 31.34375 -1.21875 22.71875 3.296875 
Q 14.109375 7.8125 9.71875 16.359375 
Q 5.328125 24.90625 5.328125 35.453125 
Q 5.328125 45.90625 9.6875 54.953125 
Q 14.0625 64.015625 22.265625 68.40625 
Q 30.46875 72.796875 41.15625 72.796875 
Q 48.921875 72.796875 55.1875 70.28125 
Q 61.46875 67.78125 65.03125 63.28125 
Q 68.609375 58.796875 70.453125 51.5625 
L 61.921875 49.21875 
Q 60.296875 54.6875 57.90625 57.8125 
Q 55.515625 60.9375 51.0625 62.8125 
Q 46.625 64.703125 41.21875 64.703125 
Q 34.71875 64.703125 29.984375 62.71875 
Q 25.25 60.75 22.34375 57.515625 
Q 19.4375 54.296875 17.828125 50.4375 
Q 15.09375 43.796875 15.09375 36.03125 
Q 15.09375 26.46875 18.390625 20.015625 
Q 21.6875 13.578125 27.984375 10.453125 
Q 34.28125 7.328125 41.359375 7.328125 
Q 47.515625 7.328125 53.375 9.6875 
Q 59.234375 12.0625 62.25 14.75 
L 62.25 28.078125 
z
" id="ArialMT-71"/>
       <path d="M 6.5 0 
L 6.5 51.859375 
L 14.40625 51.859375 
L 14.40625 44 
Q 17.4375 49.515625 20 51.265625 
Q 22.5625 53.03125 25.640625 53.03125 
Q 30.078125 53.03125 34.671875 50.203125 
L 31.640625 42.046875 
Q 28.421875 43.953125 25.203125 43.953125 
Q 22.3125 43.953125 20.015625 42.21875 
Q 17.71875 40.484375 16.75 37.40625 
Q 15.28125 32.71875 15.28125 27.15625 
L 15.28125 0 
z
" id="ArialMT-114"/>
       <path d="M 40.4375 19 
L 49.078125 17.875 
Q 47.65625 8.9375 41.8125 3.875 
Q 35.984375 -1.171875 27.484375 -1.171875 
Q 16.84375 -1.171875 10.375 5.78125 
Q 3.90625 12.75 3.90625 25.734375 
Q 3.90625 34.125 6.6875 40.421875 
Q 9.46875 46.734375 15.15625 49.875 
Q 20.84375 53.03125 27.546875 53.03125 
Q 35.984375 53.03125 41.359375 48.75 
Q 46.734375 44.484375 48.25 36.625 
L 39.703125 35.296875 
Q 38.484375 40.53125 35.375 43.15625 
Q 32.28125 45.796875 27.875 45.796875 
Q 21.234375 45.796875 17.078125 41.03125 
Q 12.9375 36.28125 12.9375 25.984375 
Q 12.9375 15.53125 16.9375 10.796875 
Q 20.953125 6.0625 27.390625 6.0625 
Q 32.5625 6.0625 36.03125 9.234375 
Q 39.5 12.40625 40.4375 19 
z
" id="ArialMT-99"/>
       <path d="M 6.203125 -19.96875 
L 5.21875 -11.71875 
Q 8.109375 -12.5 10.25 -12.5 
Q 13.1875 -12.5 14.9375 -11.515625 
Q 16.703125 -10.546875 17.828125 -8.796875 
Q 18.65625 -7.46875 20.515625 -2.25 
Q 20.75 -1.515625 21.296875 -0.09375 
L 1.609375 51.859375 
L 11.078125 51.859375 
L 21.875 21.828125 
Q 23.96875 16.109375 25.640625 9.8125 
Q 27.15625 15.875 29.25 21.625 
L 40.328125 51.859375 
L 49.125 51.859375 
L 29.390625 -0.875 
Q 26.21875 -9.421875 24.46875 -12.640625 
Q 22.125 -17 19.09375 -19.015625 
Q 16.0625 -21.046875 11.859375 -21.046875 
Q 9.328125 -21.046875 6.203125 -19.96875 
z
" id="ArialMT-121"/>
      </defs>
      <g style="fill:#262626;" transform="translate(32.960072 258.14625)scale(0.11 -0.11)">
       <use xlink:href="#ArialMT-71"/>
       <use x="77.783203" xlink:href="#ArialMT-114"/>
       <use x="111.083984" xlink:href="#ArialMT-111"/>
       <use x="166.699219" xlink:href="#ArialMT-99"/>
       <use x="216.699219" xlink:href="#ArialMT-101"/>
       <use x="272.314453" xlink:href="#ArialMT-114"/>
       <use x="305.615234" xlink:href="#ArialMT-121"/>
      </g>
     </g>
    </g>
    <g id="xtick_4">
     <g id="line2d_4">
      <path clip-path="url(#p201c530434)" d="M 184.5 179.1 
L 184.5 315 
" style="fill:none;stroke:#ffffff;stroke-linecap:round;"/>
     </g>
     <g id="text_4">
      <!-- Gas -->
      <defs>
       <path d="M 40.4375 6.390625 
Q 35.546875 2.25 31.03125 0.53125 
Q 26.515625 -1.171875 21.34375 -1.171875 
Q 12.796875 -1.171875 8.203125 3 
Q 3.609375 7.171875 3.609375 13.671875 
Q 3.609375 17.484375 5.34375 20.625 
Q 7.078125 23.78125 9.890625 25.6875 
Q 12.703125 27.59375 16.21875 28.5625 
Q 18.796875 29.25 24.03125 29.890625 
Q 34.671875 31.15625 39.703125 32.90625 
Q 39.75 34.71875 39.75 35.203125 
Q 39.75 40.578125 37.25 42.78125 
Q 33.890625 45.75 27.25 45.75 
Q 21.046875 45.75 18.09375 43.578125 
Q 15.140625 41.40625 13.71875 35.890625 
L 5.125 37.0625 
Q 6.296875 42.578125 8.984375 45.96875 
Q 11.671875 49.359375 16.75 51.1875 
Q 21.828125 53.03125 28.515625 53.03125 
Q 35.15625 53.03125 39.296875 51.46875 
Q 43.453125 49.90625 45.40625 47.53125 
Q 47.359375 45.171875 48.140625 41.546875 
Q 48.578125 39.3125 48.578125 33.453125 
L 48.578125 21.734375 
Q 48.578125 9.46875 49.140625 6.21875 
Q 49.703125 2.984375 51.375 0 
L 42.1875 0 
Q 40.828125 2.734375 40.4375 6.390625 
z
M 39.703125 26.03125 
Q 34.90625 24.078125 25.34375 22.703125 
Q 19.921875 21.921875 17.671875 20.9375 
Q 15.4375 19.96875 14.203125 18.09375 
Q 12.984375 16.21875 12.984375 13.921875 
Q 12.984375 10.40625 15.640625 8.0625 
Q 18.3125 5.71875 23.4375 5.71875 
Q 28.515625 5.71875 32.46875 7.9375 
Q 36.421875 10.15625 38.28125 14.015625 
Q 39.703125 17 39.703125 22.796875 
z
" id="ArialMT-97"/>
      </defs>
      <g style="fill:#262626;" transform="translate(174.413516 334.343672)scale(0.11 -0.11)">
       <use xlink:href="#ArialMT-71"/>
       <use x="77.783203" xlink:href="#ArialMT-97"/>
       <use x="133.398438" xlink:href="#ArialMT-115"/>
      </g>
     </g>
    </g>
    <g id="xtick_5">
     <g id="line2d_5">
      <path clip-path="url(#p201c530434)" d="M 184.5 179.1 
L 302.192852 247.05 
" style="fill:none;stroke:#ffffff;stroke-linecap:round;"/>
     </g>
     <g id="text_5">
      <!-- Dining -->
      <defs>
       <path d="M 7.71875 0 
L 7.71875 71.578125 
L 32.375 71.578125 
Q 40.71875 71.578125 45.125 70.5625 
Q 51.265625 69.140625 55.609375 65.4375 
Q 61.28125 60.640625 64.078125 53.1875 
Q 66.890625 45.75 66.890625 36.1875 
Q 66.890625 28.03125 64.984375 21.734375 
Q 63.09375 15.4375 60.109375 11.296875 
Q 57.125 7.171875 53.578125 4.796875 
Q 50.046875 2.4375 45.046875 1.21875 
Q 40.046875 0 33.546875 0 
z
M 17.1875 8.453125 
L 32.46875 8.453125 
Q 39.546875 8.453125 43.578125 9.765625 
Q 47.609375 11.078125 50 13.484375 
Q 53.375 16.84375 55.25 22.53125 
Q 57.125 28.21875 57.125 36.328125 
Q 57.125 47.5625 53.4375 53.59375 
Q 49.75 59.625 44.484375 61.671875 
Q 40.671875 63.140625 32.234375 63.140625 
L 17.1875 63.140625 
z
" id="ArialMT-68"/>
       <path d="M 6.59375 0 
L 6.59375 51.859375 
L 14.5 51.859375 
L 14.5 44.484375 
Q 20.21875 53.03125 31 53.03125 
Q 35.6875 53.03125 39.625 51.34375 
Q 43.5625 49.65625 45.515625 46.921875 
Q 47.46875 44.1875 48.25 40.4375 
Q 48.734375 37.984375 48.734375 31.890625 
L 48.734375 0 
L 39.9375 0 
L 39.9375 31.546875 
Q 39.9375 36.921875 38.90625 39.578125 
Q 37.890625 42.234375 35.28125 43.8125 
Q 32.671875 45.40625 29.15625 45.40625 
Q 23.53125 45.40625 19.453125 41.84375 
Q 15.375 38.28125 15.375 28.328125 
L 15.375 0 
z
" id="ArialMT-110"/>
      </defs>
      <g style="fill:#262626;" transform="translate(300.890631 258.079219)scale(0.11 -0.11)">
       <use xlink:href="#ArialMT-68"/>
       <use x="72.216797" xlink:href="#ArialMT-105"/>
       <use x="94.433594" xlink:href="#ArialMT-110"/>
       <use x="150.048828" xlink:href="#ArialMT-105"/>
       <use x="172.265625" xlink:href="#ArialMT-110"/>
       <use x="227.880859" xlink:href="#ArialMT-103"/>
      </g>
     </g>
    </g>
    <g id="xtick_6">
     <g id="line2d_6">
      <path clip-path="url(#p201c530434)" d="M 184.5 179.1 
L 302.192852 111.15 
" style="fill:none;stroke:#ffffff;stroke-linecap:round;"/>
     </g>
     <g id="text_6">
      <!-- Other -->
      <defs>
       <path d="M 4.828125 34.859375 
Q 4.828125 52.6875 14.390625 62.765625 
Q 23.96875 72.859375 39.109375 72.859375 
Q 49.03125 72.859375 56.984375 68.109375 
Q 64.9375 63.375 69.109375 54.90625 
Q 73.296875 46.4375 73.296875 35.6875 
Q 73.296875 24.8125 68.890625 16.21875 
Q 64.5 7.625 56.4375 3.203125 
Q 48.390625 -1.21875 39.0625 -1.21875 
Q 28.953125 -1.21875 20.984375 3.65625 
Q 13.03125 8.546875 8.921875 16.984375 
Q 4.828125 25.4375 4.828125 34.859375 
z
M 14.59375 34.71875 
Q 14.59375 21.78125 21.546875 14.328125 
Q 28.515625 6.890625 39.015625 6.890625 
Q 49.703125 6.890625 56.609375 14.40625 
Q 63.53125 21.921875 63.53125 35.75 
Q 63.53125 44.484375 60.578125 51 
Q 57.625 57.515625 51.921875 61.109375 
Q 46.234375 64.703125 39.15625 64.703125 
Q 29.109375 64.703125 21.84375 57.78125 
Q 14.59375 50.875 14.59375 34.71875 
z
" id="ArialMT-79"/>
      </defs>
      <g style="fill:#262626;" transform="translate(302.727975 105.743672)scale(0.11 -0.11)">
       <use xlink:href="#ArialMT-79"/>
       <use x="77.783203" xlink:href="#ArialMT-116"/>
       <use x="105.566406" xlink:href="#ArialMT-104"/>
       <use x="161.181641" xlink:href="#ArialMT-101"/>
       <use x="216.796875" xlink:href="#ArialMT-114"/>
      </g>
     </g>
    </g>
   </g>
   <g id="matplotlib.axis_2">
    <g id="ytick_1">
     <g id="line2d_7">
      <path clip-path="url(#p201c530434)" d="M 184.5 160.483562 
L 182.554052 160.585544 
L 180.629425 160.890375 
L 178.747204 161.394715 
L 176.928012 162.093037 
L 175.191781 162.977691 
L 173.557532 164.038985 
L 172.043171 165.26529 
L 170.66529 166.643171 
L 169.438985 168.157532 
L 168.377691 169.791781 
L 167.493037 171.528012 
L 166.794715 173.347204 
L 166.290375 175.229425 
L 165.985544 177.154052 
L 165.883562 179.1 
L 165.985544 181.045948 
L 166.290375 182.970575 
L 166.794715 184.852796 
L 167.493037 186.671988 
L 168.377691 188.408219 
L 169.438985 190.042468 
L 170.66529 191.556829 
L 172.043171 192.93471 
L 173.557532 194.161015 
L 175.191781 195.222309 
L 176.928012 196.106963 
L 178.747204 196.805285 
L 180.629425 197.309625 
L 182.554052 197.614456 
L 184.5 197.716438 
L 186.445948 197.614456 
L 188.370575 197.309625 
L 190.252796 196.805285 
L 192.071988 196.106963 
L 193.808219 195.222309 
L 195.442468 194.161015 
L 196.956829 192.93471 
L 198.33471 191.556829 
L 199.561015 190.042468 
L 200.622309 188.408219 
L 201.506963 186.671988 
L 202.205285 184.852796 
L 202.709625 182.970575 
L 203.014456 181.045948 
L 203.116438 179.1 
L 203.014456 177.154052 
L 202.709625 175.229425 
L 202.205285 173.347204 
L 201.506963 171.528012 
L 200.622309 169.791781 
L 199.561015 168.157532 
L 198.33471 166.643171 
L 196.956829 165.26529 
L 195.442468 164.038985 
L 193.808219 162.977691 
L 192.071988 162.093037 
L 190.252796 161.394715 
L 188.370575 160.890375 
L 186.445948 160.585544 
L 184.5 160.483562 
L 184.5 160.483562 
" style="fill:none;stroke:#ffffff;stroke-linecap:round;"/>
     </g>
     <g id="text_7">
      <!-- 1 -->
      <defs>
       <path d="M 37.25 0 
L 28.46875 0 
L 28.46875 56 
Q 25.296875 52.984375 20.140625 49.953125 
Q 14.984375 46.921875 10.890625 45.40625 
L 10.890625 53.90625 
Q 18.265625 57.375 23.78125 62.296875 
Q 29.296875 67.234375 31.59375 71.875 
L 37.25 71.875 
z
" id="ArialMT-49"/>
      </defs>
      <g style="fill:#262626;" transform="translate(177.375797 159.714404)scale(0.11 -0.11)">
       <use xlink:href="#ArialMT-49"/>
      </g>
     </g>
    </g>
    <g id="ytick_2">
     <g id="line2d_8">
      <path clip-path="url(#p201c530434)" d="M 184.5 141.867123 
L 181.902766 141.957821 
L 179.318185 142.229471 
L 176.75885 142.680751 
L 174.237228 143.309462 
L 171.765606 144.112541 
L 169.356025 145.086075 
L 167.020223 146.225321 
L 164.769581 147.52473 
L 162.615064 148.97797 
L 160.567168 150.577962 
L 158.635871 152.31691 
L 156.83058 154.186343 
L 155.160093 156.177152 
L 153.632546 158.27964 
L 152.255383 160.483562 
L 151.035312 162.778181 
L 149.978278 165.152319 
L 149.08943 167.594408 
L 148.373099 170.092552 
L 147.832774 172.634579 
L 147.471089 175.208105 
L 147.289805 177.800591 
L 147.289805 180.399409 
L 147.471089 182.991895 
L 147.832774 185.565421 
L 148.373099 188.107448 
L 149.08943 190.605592 
L 149.978278 193.047681 
L 151.035312 195.421819 
L 152.255383 197.716438 
L 153.632546 199.92036 
L 155.160093 202.022848 
L 156.83058 204.013657 
L 158.635871 205.88309 
L 160.567168 207.622038 
L 162.615064 209.22203 
L 164.769581 210.67527 
L 167.020223 211.974679 
L 169.356025 213.113925 
L 171.765606 214.087459 
L 174.237228 214.890538 
L 176.75885 215.519249 
L 179.318185 215.970529 
L 181.902766 216.242179 
L 184.5 216.332877 
L 187.097234 216.242179 
L 189.681815 215.970529 
L 192.24115 215.519249 
L 194.762772 214.890538 
L 197.234394 214.087459 
L 199.643975 213.113925 
L 201.979777 211.974679 
L 204.230419 210.67527 
L 206.384936 209.22203 
L 208.432832 207.622038 
L 210.364129 205.88309 
L 212.16942 204.013657 
L 213.839907 202.022848 
L 215.367454 199.92036 
L 216.744617 197.716438 
L 217.964688 195.421819 
L 219.021722 193.047681 
L 219.91057 190.605592 
L 220.626901 188.107448 
L 221.167226 185.565421 
L 221.528911 182.991895 
L 221.710195 180.399409 
L 221.710195 177.800591 
L 221.528911 175.208105 
L 221.167226 172.634579 
L 220.626901 170.092552 
L 219.91057 167.594408 
L 219.021722 165.152319 
L 217.964688 162.778181 
L 216.744617 160.483562 
L 215.367454 158.27964 
L 213.839907 156.177152 
L 212.16942 154.186343 
L 210.364129 152.31691 
L 208.432832 150.577962 
L 206.384936 148.97797 
L 204.230419 147.52473 
L 201.979777 146.225321 
L 199.643975 145.086075 
L 197.234394 144.112541 
L 194.762772 143.309462 
L 192.24115 142.680751 
L 189.681815 142.229471 
L 187.097234 141.957821 
L 184.5 141.867123 
L 184.5 141.867123 
" style="fill:none;stroke:#ffffff;stroke-linecap:round;"/>
     </g>
     <g id="text_8">
      <!-- 2 -->
      <defs>
       <path d="M 50.34375 8.453125 
L 50.34375 0 
L 3.03125 0 
Q 2.9375 3.171875 4.046875 6.109375 
Q 5.859375 10.9375 9.828125 15.625 
Q 13.8125 20.3125 21.34375 26.46875 
Q 33.015625 36.03125 37.109375 41.625 
Q 41.21875 47.21875 41.21875 52.203125 
Q 41.21875 57.421875 37.46875 61 
Q 33.734375 64.59375 27.734375 64.59375 
Q 21.390625 64.59375 17.578125 60.78125 
Q 13.765625 56.984375 13.71875 50.25 
L 4.6875 51.171875 
Q 5.609375 61.28125 11.65625 66.578125 
Q 17.71875 71.875 27.9375 71.875 
Q 38.234375 71.875 44.234375 66.15625 
Q 50.25 60.453125 50.25 52 
Q 50.25 47.703125 48.484375 43.546875 
Q 46.734375 39.40625 42.65625 34.8125 
Q 38.578125 30.21875 29.109375 22.21875 
Q 21.1875 15.578125 18.9375 13.203125 
Q 16.703125 10.84375 15.234375 8.453125 
z
" id="ArialMT-50"/>
      </defs>
      <g style="fill:#262626;" transform="translate(170.251595 142.515057)scale(0.11 -0.11)">
       <use xlink:href="#ArialMT-50"/>
      </g>
     </g>
    </g>
    <g id="ytick_3">
     <g id="line2d_9">
      <path clip-path="url(#p201c530434)" d="M 184.5 123.250685 
L 180.604149 123.386731 
L 176.727278 123.794207 
L 172.888274 124.471126 
L 169.105842 125.414193 
L 165.398409 126.618811 
L 161.784037 128.079112 
L 158.280335 129.787982 
L 154.904372 131.737095 
L 151.672596 133.916955 
L 148.600752 136.316943 
L 145.703806 138.925365 
L 142.995871 141.729514 
L 140.490139 144.715728 
L 138.198819 147.869459 
L 136.133074 151.175342 
L 134.302968 154.617272 
L 132.717417 158.178478 
L 131.384145 161.841613 
L 130.309648 165.588828 
L 129.499162 169.401868 
L 128.956633 173.262157 
L 128.684707 177.150887 
L 128.684707 181.049113 
L 128.956633 184.937843 
L 129.499162 188.798132 
L 130.309648 192.611172 
L 131.384145 196.358387 
L 132.717417 200.021522 
L 134.302968 203.582728 
L 136.133074 207.024658 
L 138.198819 210.330541 
L 140.490139 213.484272 
L 142.995871 216.470486 
L 145.703806 219.274635 
L 148.600752 221.883057 
L 151.672596 224.283045 
L 154.904372 226.462905 
L 158.280335 228.412018 
L 161.784037 230.120888 
L 165.398409 231.581189 
L 169.105842 232.785807 
L 172.888274 233.728874 
L 176.727278 234.405793 
L 180.604149 234.813269 
L 184.5 234.949315 
L 188.395851 234.813269 
L 192.272722 234.405793 
L 196.111726 233.728874 
L 199.894158 232.785807 
L 203.601591 231.581189 
L 207.215963 230.120888 
L 210.719665 228.412018 
L 214.095628 226.462905 
L 217.327404 224.283045 
L 220.399248 221.883057 
L 223.296194 219.274635 
L 226.004129 216.470486 
L 228.509861 213.484272 
L 230.801181 210.330541 
L 232.866926 207.024658 
L 234.697032 203.582728 
L 236.282583 200.021522 
L 237.615855 196.358387 
L 238.690352 192.611172 
L 239.500838 188.798132 
L 240.043367 184.937843 
L 240.315293 181.049113 
L 240.315293 177.150887 
L 240.043367 173.262157 
L 239.500838 169.401868 
L 238.690352 165.588828 
L 237.615855 161.841613 
L 236.282583 158.178478 
L 234.697032 154.617272 
L 232.866926 151.175342 
L 230.801181 147.869459 
L 228.509861 144.715728 
L 226.004129 141.729514 
L 223.296194 138.925365 
L 220.399248 136.316943 
L 217.327404 133.916955 
L 214.095628 131.737095 
L 210.719665 129.787982 
L 207.215963 128.079112 
L 203.601591 126.618811 
L 199.894158 125.414193 
L 196.111726 124.471126 
L 192.272722 123.794207 
L 188.395851 123.386731 
L 184.5 123.250685 
L 184.5 123.250685 
" style="fill:none;stroke:#ffffff;stroke-linecap:round;"/>
     </g>
     <g id="text_9">
      <!-- 3 -->
      <defs>
       <path d="M 4.203125 18.890625 
L 12.984375 20.0625 
Q 14.5 12.59375 18.140625 9.296875 
Q 21.78125 6 27 6 
Q 33.203125 6 37.46875 10.296875 
Q 41.75 14.59375 41.75 20.953125 
Q 41.75 27 37.796875 30.921875 
Q 33.84375 34.859375 27.734375 34.859375 
Q 25.25 34.859375 21.53125 33.890625 
L 22.515625 41.609375 
Q 23.390625 41.5 23.921875 41.5 
Q 29.546875 41.5 34.03125 44.421875 
Q 38.53125 47.359375 38.53125 53.46875 
Q 38.53125 58.296875 35.25 61.46875 
Q 31.984375 64.65625 26.8125 64.65625 
Q 21.6875 64.65625 18.265625 61.421875 
Q 14.84375 58.203125 13.875 51.765625 
L 5.078125 53.328125 
Q 6.6875 62.15625 12.390625 67.015625 
Q 18.109375 71.875 26.609375 71.875 
Q 32.46875 71.875 37.390625 69.359375 
Q 42.328125 66.84375 44.9375 62.5 
Q 47.5625 58.15625 47.5625 53.265625 
Q 47.5625 48.640625 45.0625 44.828125 
Q 42.578125 41.015625 37.703125 38.765625 
Q 44.046875 37.3125 47.5625 32.6875 
Q 51.078125 28.078125 51.078125 21.140625 
Q 51.078125 11.765625 44.234375 5.25 
Q 37.40625 -1.265625 26.953125 -1.265625 
Q 17.53125 -1.265625 11.296875 4.34375 
Q 5.078125 9.96875 4.203125 18.890625 
z
" id="ArialMT-51"/>
      </defs>
      <g style="fill:#262626;" transform="translate(163.127392 125.315711)scale(0.11 -0.11)">
       <use xlink:href="#ArialMT-51"/>
      </g>
     </g>
    </g>
    <g id="ytick_4">
     <g id="line2d_10">
      <path clip-path="url(#p201c530434)" d="M 184.5 104.634247 
L 179.305532 104.815641 
L 174.13637 105.358942 
L 169.017699 106.261502 
L 163.974457 107.518924 
L 159.031212 109.125081 
L 154.212049 111.072149 
L 149.540446 113.350642 
L 145.039163 115.94946 
L 140.730128 118.85594 
L 136.634336 122.055923 
L 132.771741 125.53382 
L 129.161161 129.272685 
L 125.820186 133.254304 
L 122.765093 137.459279 
L 120.010766 141.867123 
L 117.570624 146.456362 
L 115.456556 151.204638 
L 113.67886 156.088817 
L 112.246198 161.085104 
L 111.165549 166.169158 
L 110.442178 171.316209 
L 110.079609 176.501183 
L 110.079609 181.698817 
L 110.442178 186.883791 
L 111.165549 192.030842 
L 112.246198 197.114896 
L 113.67886 202.111183 
L 115.456556 206.995362 
L 117.570624 211.743638 
L 120.010766 216.332877 
L 122.765093 220.740721 
L 125.820186 224.945696 
L 129.161161 228.927315 
L 132.771741 232.66618 
L 136.634336 236.144077 
L 140.730128 239.34406 
L 145.039163 242.25054 
L 149.540446 244.849358 
L 154.212049 247.127851 
L 159.031212 249.074919 
L 163.974457 250.681076 
L 169.017699 251.938498 
L 174.13637 252.841058 
L 179.305532 253.384359 
L 184.5 253.565753 
L 189.694468 253.384359 
L 194.86363 252.841058 
L 199.982301 251.938498 
L 205.025543 250.681076 
L 209.968788 249.074919 
L 214.787951 247.127851 
L 219.459554 244.849358 
L 223.960837 242.25054 
L 228.269872 239.34406 
L 232.365664 236.144077 
L 236.228259 232.66618 
L 239.838839 228.927315 
L 243.179814 224.945696 
L 246.234907 220.740721 
L 248.989234 216.332877 
L 251.429376 211.743638 
L 253.543444 206.995362 
L 255.32114 202.111183 
L 256.753802 197.114896 
L 257.834451 192.030842 
L 258.557822 186.883791 
L 258.920391 181.698817 
L 258.920391 176.501183 
L 258.557822 171.316209 
L 257.834451 166.169158 
L 256.753802 161.085104 
L 255.32114 156.088817 
L 253.543444 151.204638 
L 251.429376 146.456362 
L 248.989234 141.867123 
L 246.234907 137.459279 
L 243.179814 133.254304 
L 239.838839 129.272685 
L 236.228259 125.53382 
L 232.365664 122.055923 
L 228.269872 118.85594 
L 223.960837 115.94946 
L 219.459554 113.350642 
L 214.787951 111.072149 
L 209.968788 109.125081 
L 205.025543 107.518924 
L 199.982301 106.261502 
L 194.86363 105.358942 
L 189.694468 104.815641 
L 184.5 104.634247 
L 184.5 104.634247 
" style="fill:none;stroke:#ffffff;stroke-linecap:round;"/>
     </g>
     <g id="text_10">
      <!-- 4 -->
      <defs>
       <path d="M 32.328125 0 
L 32.328125 17.140625 
L 1.265625 17.140625 
L 1.265625 25.203125 
L 33.9375 71.578125 
L 41.109375 71.578125 
L 41.109375 25.203125 
L 50.78125 25.203125 
L 50.78125 17.140625 
L 41.109375 17.140625 
L 41.109375 0 
z
M 32.328125 25.203125 
L 32.328125 57.46875 
L 9.90625 25.203125 
z
" id="ArialMT-52"/>
      </defs>
      <g style="fill:#262626;" transform="translate(156.00319 108.116365)scale(0.11 -0.11)">
       <use xlink:href="#ArialMT-52"/>
      </g>
     </g>
    </g>
    <g id="ytick_5">
     <g id="line2d_11">
      <path clip-path="url(#p201c530434)" d="M 184.5 86.017808 
L 181.251478 86.074511 
L 178.006915 86.244552 
L 174.770262 86.527722 
L 171.545463 86.923678 
L 168.336447 87.431936 
L 165.147124 88.051877 
L 161.98138 88.782747 
L 158.843071 89.623654 
L 155.736021 90.573575 
L 152.664015 91.631351 
L 149.630797 92.795695 
L 146.640062 94.065187 
L 143.695453 95.43828 
L 140.800558 96.913303 
L 137.958904 98.488457 
L 135.173953 100.161824 
L 132.449099 101.931366 
L 129.78766 103.794925 
L 127.19288 105.750232 
L 124.66792 107.794904 
L 122.215857 109.926451 
L 119.839676 112.142275 
L 117.542275 114.439676 
L 115.326451 116.815857 
L 113.194904 119.26792 
L 111.150232 121.79288 
L 109.194925 124.38766 
L 107.331366 127.049099 
L 105.561824 129.773953 
L 103.888457 132.558904 
L 102.313303 135.400558 
L 100.83828 138.295453 
L 99.465187 141.240062 
L 98.195695 144.230797 
L 97.031351 147.264015 
L 95.973575 150.336021 
L 95.023654 153.443071 
L 94.182747 156.58138 
L 93.451877 159.747124 
L 92.831936 162.936447 
L 92.323678 166.145463 
L 91.927722 169.370262 
L 91.644552 172.606915 
L 91.474511 175.851478 
L 91.417808 179.1 
L 91.474511 182.348522 
L 91.644552 185.593085 
L 91.927722 188.829738 
L 92.323678 192.054537 
L 92.831936 195.263553 
L 93.451877 198.452876 
L 94.182747 201.61862 
L 95.023654 204.756929 
L 95.973575 207.863979 
L 97.031351 210.935985 
L 98.195695 213.969203 
L 99.465187 216.959938 
L 100.83828 219.904547 
L 102.313303 222.799442 
L 103.888457 225.641096 
L 105.561824 228.426047 
L 107.331366 231.150901 
L 109.194925 233.81234 
L 111.150232 236.40712 
L 113.194904 238.93208 
L 115.326451 241.384143 
L 117.542275 243.760324 
L 119.839676 246.057725 
L 122.215857 248.273549 
L 124.66792 250.405096 
L 127.19288 252.449768 
L 129.78766 254.405075 
L 132.449099 256.268634 
L 135.173953 258.038176 
L 137.958904 259.711543 
L 140.800558 261.286697 
L 143.695453 262.76172 
L 146.640062 264.134813 
L 149.630797 265.404305 
L 152.664015 266.568649 
L 155.736021 267.626425 
L 158.843071 268.576346 
L 161.98138 269.417253 
L 165.147124 270.148123 
L 168.336447 270.768064 
L 171.545463 271.276322 
L 174.770262 271.672278 
L 178.006915 271.955448 
L 181.251478 272.125489 
L 184.5 272.182192 
L 187.748522 272.125489 
L 190.993085 271.955448 
L 194.229738 271.672278 
L 197.454537 271.276322 
L 200.663553 270.768064 
L 203.852876 270.148123 
L 207.01862 269.417253 
L 210.156929 268.576346 
L 213.263979 267.626425 
L 216.335985 266.568649 
L 219.369203 265.404305 
L 222.359938 264.134813 
L 225.304547 262.76172 
L 228.199442 261.286697 
L 231.041096 259.711543 
L 233.826047 258.038176 
L 236.550901 256.268634 
L 239.21234 254.405075 
L 241.80712 252.449768 
L 244.33208 250.405096 
L 246.784143 248.273549 
L 249.160324 246.057725 
L 251.457725 243.760324 
L 253.673549 241.384143 
L 255.805096 238.93208 
L 257.849768 236.40712 
L 259.805075 233.81234 
L 261.668634 231.150901 
L 263.438176 228.426047 
L 265.111543 225.641096 
L 266.686697 222.799442 
L 268.16172 219.904547 
L 269.534813 216.959938 
L 270.804305 213.969203 
L 271.968649 210.935985 
L 273.026425 207.863979 
L 273.976346 204.756929 
L 274.817253 201.61862 
L 275.548123 198.452876 
L 276.168064 195.263553 
L 276.676322 192.054537 
L 277.072278 188.829738 
L 277.355448 185.593085 
L 277.525489 182.348522 
L 277.582192 179.1 
L 277.525489 175.851478 
L 277.355448 172.606915 
L 277.072278 169.370262 
L 276.676322 166.145463 
L 276.168064 162.936447 
L 275.548123 159.747124 
L 274.817253 156.58138 
L 273.976346 153.443071 
L 273.026425 150.336021 
L 271.968649 147.264015 
L 270.804305 144.230797 
L 269.534813 141.240062 
L 268.16172 138.295453 
L 266.686697 135.400558 
L 265.111543 132.558904 
L 263.438176 129.773953 
L 261.668634 127.049099 
L 259.805075 124.38766 
L 257.849768 121.79288 
L 255.805096 119.26792 
L 253.673549 116.815857 
L 251.457725 114.439676 
L 249.160324 112.142275 
L 246.784143 109.926451 
L 244.33208 107.794904 
L 241.80712 105.750232 
L 239.21234 103.794925 
L 236.550901 101.931366 
L 233.826047 100.161824 
L 231.041096 98.488457 
L 228.199442 96.913303 
L 225.304547 95.43828 
L 222.359938 94.065187 
L 219.369203 92.795695 
L 216.335985 91.631351 
L 213.263979 90.573575 
L 210.156929 89.623654 
L 207.01862 88.782747 
L 203.852876 88.051877 
L 200.663553 87.431936 
L 197.454537 86.923678 
L 194.229738 86.527722 
L 190.993085 86.244552 
L 187.748522 86.074511 
L 184.5 86.017808 
L 184.5 86.017808 
" style="fill:none;stroke:#ffffff;stroke-linecap:round;"/>
     </g>
     <g id="text_11">
      <!-- 5 -->
      <defs>
       <path d="M 4.15625 18.75 
L 13.375 19.53125 
Q 14.40625 12.796875 18.140625 9.390625 
Q 21.875 6 27.15625 6 
Q 33.5 6 37.890625 10.78125 
Q 42.28125 15.578125 42.28125 23.484375 
Q 42.28125 31 38.0625 35.34375 
Q 33.84375 39.703125 27 39.703125 
Q 22.75 39.703125 19.328125 37.765625 
Q 15.921875 35.84375 13.96875 32.765625 
L 5.71875 33.84375 
L 12.640625 70.609375 
L 48.25 70.609375 
L 48.25 62.203125 
L 19.671875 62.203125 
L 15.828125 42.96875 
Q 22.265625 47.46875 29.34375 47.46875 
Q 38.71875 47.46875 45.15625 40.96875 
Q 51.609375 34.46875 51.609375 24.265625 
Q 51.609375 14.546875 45.953125 7.46875 
Q 39.0625 -1.21875 27.15625 -1.21875 
Q 17.390625 -1.21875 11.203125 4.25 
Q 5.03125 9.71875 4.15625 18.75 
z
" id="ArialMT-53"/>
      </defs>
      <g style="fill:#262626;" transform="translate(148.878987 90.917018)scale(0.11 -0.11)">
       <use xlink:href="#ArialMT-53"/>
      </g>
     </g>
    </g>
    <g id="ytick_6">
     <g id="line2d_12">
      <path clip-path="url(#p201c530434)" d="M 184.5 67.40137 
L 180.601774 67.469414 
L 176.708297 67.673462 
L 172.824314 68.013267 
L 168.954555 68.488413 
L 165.103736 69.098323 
L 161.276549 69.842253 
L 157.477656 70.719297 
L 153.711685 71.728385 
L 149.983225 72.86829 
L 146.296819 74.137622 
L 142.656957 75.534834 
L 139.068074 77.058224 
L 135.534543 78.705936 
L 132.06067 80.475963 
L 128.650685 82.366149 
L 125.308744 84.374189 
L 122.038919 86.497639 
L 118.845193 88.73391 
L 115.731457 91.080278 
L 112.701505 93.533885 
L 109.759028 96.091741 
L 106.907612 98.75073 
L 104.15073 101.507612 
L 101.491741 104.359028 
L 98.933885 107.301505 
L 96.480278 110.331457 
L 94.13391 113.445193 
L 91.897639 116.638919 
L 89.774189 119.908744 
L 87.766149 123.250685 
L 85.875963 126.66067 
L 84.105936 130.134543 
L 82.458224 133.668074 
L 80.934834 137.256957 
L 79.537622 140.896819 
L 78.26829 144.583225 
L 77.128385 148.311685 
L 76.119297 152.077656 
L 75.242253 155.876549 
L 74.498323 159.703736 
L 73.888413 163.554555 
L 73.413267 167.424314 
L 73.073462 171.308297 
L 72.869414 175.201774 
L 72.80137 179.1 
L 72.869414 182.998226 
L 73.073462 186.891703 
L 73.413267 190.775686 
L 73.888413 194.645445 
L 74.498323 198.496264 
L 75.242253 202.323451 
L 76.119297 206.122344 
L 77.128385 209.888315 
L 78.26829 213.616775 
L 79.537622 217.303181 
L 80.934834 220.943043 
L 82.458224 224.531926 
L 84.105936 228.065457 
L 85.875963 231.53933 
L 87.766149 234.949315 
L 89.774189 238.291256 
L 91.897639 241.561081 
L 94.13391 244.754807 
L 96.480278 247.868543 
L 98.933885 250.898495 
L 101.491741 253.840972 
L 104.15073 256.692388 
L 106.907612 259.44927 
L 109.759028 262.108259 
L 112.701505 264.666115 
L 115.731457 267.119722 
L 118.845193 269.46609 
L 122.038919 271.702361 
L 125.308744 273.825811 
L 128.650685 275.833851 
L 132.06067 277.724037 
L 135.534543 279.494064 
L 139.068074 281.141776 
L 142.656957 282.665166 
L 146.296819 284.062378 
L 149.983225 285.33171 
L 153.711685 286.471615 
L 157.477656 287.480703 
L 161.276549 288.357747 
L 165.103736 289.101677 
L 168.954555 289.711587 
L 172.824314 290.186733 
L 176.708297 290.526538 
L 180.601774 290.730586 
L 184.5 290.79863 
L 188.398226 290.730586 
L 192.291703 290.526538 
L 196.175686 290.186733 
L 200.045445 289.711587 
L 203.896264 289.101677 
L 207.723451 288.357747 
L 211.522344 287.480703 
L 215.288315 286.471615 
L 219.016775 285.33171 
L 222.703181 284.062378 
L 226.343043 282.665166 
L 229.931926 281.141776 
L 233.465457 279.494064 
L 236.93933 277.724037 
L 240.349315 275.833851 
L 243.691256 273.825811 
L 246.961081 271.702361 
L 250.154807 269.46609 
L 253.268543 267.119722 
L 256.298495 264.666115 
L 259.240972 262.108259 
L 262.092388 259.44927 
L 264.84927 256.692388 
L 267.508259 253.840972 
L 270.066115 250.898495 
L 272.519722 247.868543 
L 274.86609 244.754807 
L 277.102361 241.561081 
L 279.225811 238.291256 
L 281.233851 234.949315 
L 283.124037 231.53933 
L 284.894064 228.065457 
L 286.541776 224.531926 
L 288.065166 220.943043 
L 289.462378 217.303181 
L 290.73171 213.616775 
L 291.871615 209.888315 
L 292.880703 206.122344 
L 293.757747 202.323451 
L 294.501677 198.496264 
L 295.111587 194.645445 
L 295.586733 190.775686 
L 295.926538 186.891703 
L 296.130586 182.998226 
L 296.19863 179.1 
L 296.130586 175.201774 
L 295.926538 171.308297 
L 295.586733 167.424314 
L 295.111587 163.554555 
L 294.501677 159.703736 
L 293.757747 155.876549 
L 292.880703 152.077656 
L 291.871615 148.311685 
L 290.73171 144.583225 
L 289.462378 140.896819 
L 288.065166 137.256957 
L 286.541776 133.668074 
L 284.894064 130.134543 
L 283.124037 126.66067 
L 281.233851 123.250685 
L 279.225811 119.908744 
L 277.102361 116.638919 
L 274.86609 113.445193 
L 272.519722 110.331457 
L 270.066115 107.301505 
L 267.508259 104.359028 
L 264.84927 101.507612 
L 262.092388 98.75073 
L 259.240972 96.091741 
L 256.298495 93.533885 
L 253.268543 91.080278 
L 250.154807 88.73391 
L 246.961081 86.497639 
L 243.691256 84.374189 
L 240.349315 82.366149 
L 236.93933 80.475963 
L 233.465457 78.705936 
L 229.931926 77.058224 
L 226.343043 75.534834 
L 222.703181 74.137622 
L 219.016775 72.86829 
L 215.288315 71.728385 
L 211.522344 70.719297 
L 207.723451 69.842253 
L 203.896264 69.098323 
L 200.045445 68.488413 
L 196.175686 68.013267 
L 192.291703 67.673462 
L 188.398226 67.469414 
L 184.5 67.40137 
L 184.5 67.40137 
" style="fill:none;stroke:#ffffff;stroke-linecap:round;"/>
     </g>
     <g id="text_12">
      <!-- 6 -->
      <defs>
       <path d="M 49.75 54.046875 
L 41.015625 53.375 
Q 39.84375 58.546875 37.703125 60.890625 
Q 34.125 64.65625 28.90625 64.65625 
Q 24.703125 64.65625 21.53125 62.3125 
Q 17.390625 59.28125 14.984375 53.46875 
Q 12.59375 47.65625 12.5 36.921875 
Q 15.671875 41.75 20.265625 44.09375 
Q 24.859375 46.4375 29.890625 46.4375 
Q 38.671875 46.4375 44.84375 39.96875 
Q 51.03125 33.5 51.03125 23.25 
Q 51.03125 16.5 48.125 10.71875 
Q 45.21875 4.9375 40.140625 1.859375 
Q 35.0625 -1.21875 28.609375 -1.21875 
Q 17.625 -1.21875 10.6875 6.859375 
Q 3.765625 14.9375 3.765625 33.5 
Q 3.765625 54.25 11.421875 63.671875 
Q 18.109375 71.875 29.4375 71.875 
Q 37.890625 71.875 43.28125 67.140625 
Q 48.6875 62.40625 49.75 54.046875 
z
M 13.875 23.1875 
Q 13.875 18.65625 15.796875 14.5 
Q 17.71875 10.359375 21.1875 8.171875 
Q 24.65625 6 28.46875 6 
Q 34.03125 6 38.03125 10.484375 
Q 42.046875 14.984375 42.046875 22.703125 
Q 42.046875 30.125 38.078125 34.390625 
Q 34.125 38.671875 28.125 38.671875 
Q 22.171875 38.671875 18.015625 34.390625 
Q 13.875 30.125 13.875 23.1875 
z
" id="ArialMT-54"/>
      </defs>
      <g style="fill:#262626;" transform="translate(141.754785 73.717672)scale(0.11 -0.11)">
       <use xlink:href="#ArialMT-54"/>
      </g>
     </g>
    </g>
   </g>
   <g id="patch_3">
    <path clip-path="url(#p201c530434)" d="M 184.5 160.483562 
L 71.64384 113.942466 
L 103.888457 225.641096 
L 184.5 272.182192 
L 265.111543 225.641096 
L 200.622309 169.791781 
z
" style="fill:#4c72b0;opacity:0.25;stroke:#ffffff;stroke-linejoin:miter;"/>
   </g>
   <g id="line2d_13">
    <path clip-path="url(#p201c530434)" d="M 184.5 160.483562 
L 71.64384 113.942466 
L 103.888457 225.641096 
L 184.5 272.182192 
L 265.111543 225.641096 
L 200.622309 169.791781 
L 184.5 160.483562 
" style="fill:none;stroke:#4c72b0;stroke-linecap:round;stroke-width:1.5;"/>
   </g>
   <g id="patch_4">
    <path d="M 184.5 43.2 
L 66.807148 111.15 
L 66.807148 247.05 
L 184.5 315 
L 302.192852 247.05 
L 302.192852 111.15 
z
" style="fill:none;stroke:#ffffff;stroke-linecap:square;stroke-linejoin:miter;stroke-width:1.25;"/>
   </g>
  </g>
 </g>
 <defs>
  <clipPath id="p201c530434">
   <path d="M 184.5 43.2 
L 66.807148 111.15 
L 66.807148 247.05 
L 184.5 315 
L 302.192852 247.05 
L 302.192852 111.15 
z
"/>
  </clipPath>
 </defs>
</svg>
