<?xml version="1.0" encoding="utf-8" standalone="no"?>
<!DOCTYPE svg PUBLIC "-//W3C//DTD SVG 1.1//EN"
  "http://www.w3.org/Graphics/SVG/1.1/DTD/svg11.dtd">
<!-- Created with matplotlib (https://matplotlib.org/) -->
<svg height="360pt" version="1.1" viewBox="0 0 360 360" width="360pt" xmlns="http://www.w3.org/2000/svg" xmlns:xlink="http://www.w3.org/1999/xlink">
 <defs>
  <style type="text/css">
*{stroke-linecap:butt;stroke-linejoin:round;}
  </style>
 </defs>
 <g id="figure_1">
  <g id="patch_1">
   <path d="M 0 360 
L 360 360 
L 360 0 
L 0 0 
z
" style="fill:#ffffff;"/>
  </g>
  <g id="axes_1">
   <g id="patch_2">
    <path d="M 184.5 43.2 
L 66.807148 111.15 
L 66.807148 247.05 
L 184.5 315 
L 302.192852 247.05 
L 302.192852 111.15 
z
" style="fill:#eaeaf2;"/>
   </g>
   <g id="matplotlib.axis_1">
    <g id="xtick_1">
     <g id="line2d_1">
      <path clip-path="url(#p00c735cad6)" d="M 184.5 179.1 
L 184.5 43.2 
" style="fill:none;stroke:#ffffff;stroke-linecap:round;"/>
     </g>
     <g id="text_1">
      <!-- Flights -->
      <defs>
       <path d="M 8.203125 0 
L 8.203125 71.578125 
L 56.5 71.578125 
L 56.5 63.140625 
L 17.671875 63.140625 
L 17.671875 40.96875 
L 51.265625 40.96875 
L 51.265625 32.515625 
L 17.671875 32.515625 
L 17.671875 0 
z
" id="ArialMT-70"/>
       <path d="M 6.390625 0 
L 6.390625 71.578125 
L 15.1875 71.578125 
L 15.1875 0 
z
" id="ArialMT-108"/>
       <path d="M 6.640625 61.46875 
L 6.640625 71.578125 
L 15.4375 71.578125 
L 15.4375 61.46875 
z
M 6.640625 0 
L 6.640625 51.859375 
L 15.4375 51.859375 
L 15.4375 0 
z
" id="ArialMT-105"/>
       <path d="M 4.984375 -4.296875 
L 13.53125 -5.5625 
Q 14.0625 -9.515625 16.5 -11.328125 
Q 19.78125 -13.765625 25.4375 -13.765625 
Q 31.546875 -13.765625 34.859375 -11.328125 
Q 38.1875 -8.890625 39.359375 -4.5 
Q 40.046875 -1.8125 39.984375 6.78125 
Q 34.234375 0 25.640625 0 
Q 14.9375 0 9.078125 7.71875 
Q 3.21875 15.4375 3.21875 26.21875 
Q 3.21875 33.640625 5.90625 39.90625 
Q 8.59375 46.1875 13.6875 49.609375 
Q 18.796875 53.03125 25.6875 53.03125 
Q 34.859375 53.03125 40.828125 45.609375 
L 40.828125 51.859375 
L 48.921875 51.859375 
L 48.921875 7.03125 
Q 48.921875 -5.078125 46.453125 -10.125 
Q 44 -15.1875 38.640625 -18.109375 
Q 33.296875 -21.046875 25.484375 -21.046875 
Q 16.21875 -21.046875 10.5 -16.875 
Q 4.78125 -12.703125 4.984375 -4.296875 
z
M 12.25 26.859375 
Q 12.25 16.65625 16.296875 11.96875 
Q 20.359375 7.28125 26.46875 7.28125 
Q 32.515625 7.28125 36.609375 11.9375 
Q 40.71875 16.609375 40.71875 26.5625 
Q 40.71875 36.078125 36.5 40.90625 
Q 32.28125 45.75 26.3125 45.75 
Q 20.453125 45.75 16.34375 40.984375 
Q 12.25 36.234375 12.25 26.859375 
z
" id="ArialMT-103"/>
       <path d="M 6.59375 0 
L 6.59375 71.578125 
L 15.375 71.578125 
L 15.375 45.90625 
Q 21.53125 53.03125 30.90625 53.03125 
Q 36.671875 53.03125 40.921875 50.75 
Q 45.171875 48.484375 47 44.484375 
Q 48.828125 40.484375 48.828125 32.859375 
L 48.828125 0 
L 40.046875 0 
L 40.046875 32.859375 
Q 40.046875 39.453125 37.1875 42.453125 
Q 34.328125 45.453125 29.109375 45.453125 
Q 25.203125 45.453125 21.75 43.421875 
Q 18.3125 41.40625 16.84375 37.9375 
Q 15.375 34.46875 15.375 28.375 
L 15.375 0 
z
" id="ArialMT-104"/>
       <path d="M 25.78125 7.859375 
L 27.046875 0.09375 
Q 23.34375 -0.6875 20.40625 -0.6875 
Q 15.625 -0.6875 12.984375 0.828125 
Q 10.359375 2.34375 9.28125 4.8125 
Q 8.203125 7.28125 8.203125 15.1875 
L 8.203125 45.015625 
L 1.765625 45.015625 
L 1.765625 51.859375 
L 8.203125 51.859375 
L 8.203125 64.703125 
L 16.9375 69.96875 
L 16.9375 51.859375 
L 25.78125 51.859375 
L 25.78125 45.015625 
L 16.9375 45.015625 
L 16.9375 14.703125 
Q 16.9375 10.9375 17.40625 9.859375 
Q 17.875 8.796875 18.921875 8.15625 
Q 19.96875 7.515625 21.921875 7.515625 
Q 23.390625 7.515625 25.78125 7.859375 
z
" id="ArialMT-116"/>
       <path d="M 3.078125 15.484375 
L 11.765625 16.84375 
Q 12.5 11.625 15.84375 8.84375 
Q 19.1875 6.0625 25.203125 6.0625 
Q 31.25 6.0625 34.171875 8.515625 
Q 37.109375 10.984375 37.109375 14.3125 
Q 37.109375 17.28125 34.515625 19 
Q 32.71875 20.171875 25.53125 21.96875 
Q 15.875 24.421875 12.140625 26.203125 
Q 8.40625 27.984375 6.46875 31.125 
Q 4.546875 34.28125 4.546875 38.09375 
Q 4.546875 41.546875 6.125 44.5 
Q 7.71875 47.46875 10.453125 49.421875 
Q 12.5 50.921875 16.03125 51.96875 
Q 19.578125 53.03125 23.640625 53.03125 
Q 29.734375 53.03125 34.34375 51.265625 
Q 38.96875 49.515625 41.15625 46.5 
Q 43.359375 43.5 44.1875 38.484375 
L 35.59375 37.3125 
Q 35.015625 41.3125 32.203125 43.546875 
Q 29.390625 45.796875 24.265625 45.796875 
Q 18.21875 45.796875 15.625 43.796875 
Q 13.03125 41.796875 13.03125 39.109375 
Q 13.03125 37.40625 14.109375 36.03125 
Q 15.1875 34.625 17.484375 33.6875 
Q 18.796875 33.203125 25.25 31.453125 
Q 34.578125 28.953125 38.25 27.359375 
Q 41.9375 25.78125 44.03125 22.75 
Q 46.140625 19.734375 46.140625 15.234375 
Q 46.140625 10.84375 43.578125 6.953125 
Q 41.015625 3.078125 36.171875 0.953125 
Q 31.34375 -1.171875 25.25 -1.171875 
Q 15.140625 -1.171875 9.84375 3.03125 
Q 4.546875 7.234375 3.078125 15.484375 
z
" id="ArialMT-115"/>
      </defs>
      <g style="fill:#262626;" transform="translate(168.301641 29.479219)scale(0.11 -0.11)">
       <use xlink:href="#ArialMT-70"/>
       <use x="61.083984" xlink:href="#ArialMT-108"/>
       <use x="83.300781" xlink:href="#ArialMT-105"/>
       <use x="105.517578" xlink:href="#ArialMT-103"/>
       <use x="161.132812" xlink:href="#ArialMT-104"/>
       <use x="216.748047" xlink:href="#ArialMT-116"/>
       <use x="244.53125" xlink:href="#ArialMT-115"/>
      </g>
     </g>
    </g>
    <g id="xtick_2">
     <g id="line2d_2">
      <path clip-path="url(#p00c735cad6)" d="M 184.5 179.1 
L 66.807148 111.15 
" style="fill:none;stroke:#ffffff;stroke-linecap:round;"/>
     </g>
     <g id="text_2">
      <!-- Hotel -->
      <defs>
       <path d="M 8.015625 0 
L 8.015625 71.578125 
L 17.484375 71.578125 
L 17.484375 42.1875 
L 54.6875 42.1875 
L 54.6875 71.578125 
L 64.15625 71.578125 
L 64.15625 0 
L 54.6875 0 
L 54.6875 33.734375 
L 17.484375 33.734375 
L 17.484375 0 
z
" id="ArialMT-72"/>
       <path d="M 3.328125 25.921875 
Q 3.328125 40.328125 11.328125 47.265625 
Q 18.015625 53.03125 27.640625 53.03125 
Q 38.328125 53.03125 45.109375 46.015625 
Q 51.90625 39.015625 51.90625 26.65625 
Q 51.90625 16.65625 48.90625 10.90625 
Q 45.90625 5.171875 40.15625 2 
Q 34.421875 -1.171875 27.640625 -1.171875 
Q 16.75 -1.171875 10.03125 5.8125 
Q 3.328125 12.796875 3.328125 25.921875 
z
M 12.359375 25.921875 
Q 12.359375 15.96875 16.703125 11.015625 
Q 21.046875 6.0625 27.640625 6.0625 
Q 34.1875 6.0625 38.53125 11.03125 
Q 42.875 16.015625 42.875 26.21875 
Q 42.875 35.84375 38.5 40.796875 
Q 34.125 45.75 27.640625 45.75 
Q 21.046875 45.75 16.703125 40.8125 
Q 12.359375 35.890625 12.359375 25.921875 
z
" id="ArialMT-111"/>
       <path d="M 42.09375 16.703125 
L 51.171875 15.578125 
Q 49.03125 7.625 43.21875 3.21875 
Q 37.40625 -1.171875 28.375 -1.171875 
Q 17 -1.171875 10.328125 5.828125 
Q 3.65625 12.84375 3.65625 25.484375 
Q 3.65625 38.578125 10.390625 45.796875 
Q 17.140625 53.03125 27.875 53.03125 
Q 38.28125 53.03125 44.875 45.953125 
Q 51.46875 38.875 51.46875 26.03125 
Q 51.46875 25.25 51.421875 23.6875 
L 12.75 23.6875 
Q 13.234375 15.140625 17.578125 10.59375 
Q 21.921875 6.0625 28.421875 6.0625 
Q 33.25 6.0625 36.671875 8.59375 
Q 40.09375 11.140625 42.09375 16.703125 
z
M 13.234375 30.90625 
L 42.1875 30.90625 
Q 41.609375 37.453125 38.875 40.71875 
Q 34.671875 45.796875 27.984375 45.796875 
Q 21.921875 45.796875 17.796875 41.75 
Q 13.671875 37.703125 13.234375 30.90625 
z
" id="ArialMT-101"/>
      </defs>
      <g style="fill:#262626;" transform="translate(39.678666 105.743672)scale(0.11 -0.11)">
       <use xlink:href="#ArialMT-72"/>
       <use x="72.216797" xlink:href="#ArialMT-111"/>
       <use x="127.832031" xlink:href="#ArialMT-116"/>
       <use x="155.615234" xlink:href="#ArialMT-101"/>
       <use x="211.230469" xlink:href="#ArialMT-108"/>
      </g>
     </g>
    </g>
    <g id="xtick_3">
     <g id="line2d_3">
      <path clip-path="url(#p00c735cad6)" d="M 184.5 179.1 
L 66.807148 247.05 
" style="fill:none;stroke:#ffffff;stroke-linecap:round;"/>
     </g>
     <g id="text_3">
      <!-- Grocery -->
      <defs>
       <path d="M 41.21875 28.078125 
L 41.21875 36.46875 
L 71.53125 36.53125 
L 71.53125 9.96875 
Q 64.546875 4.390625 57.125 1.578125 
Q 49.703125 -1.21875 41.890625 -1.21875 
Q 31.34375 -1.21875 22.71875 3.296875 
Q 14.109375 7.8125 9.71875 16.359375 
Q 5.328125 24.90625 5.328125 35.453125 
Q 5.328125 45.90625 9.6875 54.953125 
Q 14.0625 64.015625 22.265625 68.40625 
Q 30.46875 72.796875 41.15625 72.796875 
Q 48.921875 72.796875 55.1875 70.28125 
Q 61.46875 67.78125 65.03125 63.28125 
Q 68.609375 58.796875 70.453125 51.5625 
L 61.921875 49.21875 
Q 60.296875 54.6875 57.90625 57.8125 
Q 55.515625 60.9375 51.0625 62.8125 
Q 46.625 64.703125 41.21875 64.703125 
Q 34.71875 64.703125 29.984375 62.71875 
Q 25.25 60.75 22.34375 57.515625 
Q 19.4375 54.296875 17.828125 50.4375 
Q 15.09375 43.796875 15.09375 36.03125 
Q 15.09375 26.46875 18.390625 20.015625 
Q 21.6875 13.578125 27.984375 10.453125 
Q 34.28125 7.328125 41.359375 7.328125 
Q 47.515625 7.328125 53.375 9.6875 
Q 59.234375 12.0625 62.25 14.75 
L 62.25 28.078125 
z
" id="ArialMT-71"/>
       <path d="M 6.5 0 
L 6.5 51.859375 
L 14.40625 51.859375 
L 14.40625 44 
Q 17.4375 49.515625 20 51.265625 
Q 22.5625 53.03125 25.640625 53.03125 
Q 30.078125 53.03125 34.671875 50.203125 
L 31.640625 42.046875 
Q 28.421875 43.953125 25.203125 43.953125 
Q 22.3125 43.953125 20.015625 42.21875 
Q 17.71875 40.484375 16.75 37.40625 
Q 15.28125 32.71875 15.28125 27.15625 
L 15.28125 0 
z
" id="ArialMT-114"/>
       <path d="M 40.4375 19 
L 49.078125 17.875 
Q 47.65625 8.9375 41.8125 3.875 
Q 35.984375 -1.171875 27.484375 -1.171875 
Q 16.84375 -1.171875 10.375 5.78125 
Q 3.90625 12.75 3.90625 25.734375 
Q 3.90625 34.125 6.6875 40.421875 
Q 9.46875 46.734375 15.15625 49.875 
Q 20.84375 53.03125 27.546875 53.03125 
Q 35.984375 53.03125 41.359375 48.75 
Q 46.734375 44.484375 48.25 36.625 
L 39.703125 35.296875 
Q 38.484375 40.53125 35.375 43.15625 
Q 32.28125 45.796875 27.875 45.796875 
Q 21.234375 45.796875 17.078125 41.03125 
Q 12.9375 36.28125 12.9375 25.984375 
Q 12.9375 15.53125 16.9375 10.796875 
Q 20.953125 6.0625 27.390625 6.0625 
Q 32.5625 6.0625 36.03125 9.234375 
Q 39.5 12.40625 40.4375 19 
z
" id="ArialMT-99"/>
       <path d="M 6.203125 -19.96875 
L 5.21875 -11.71875 
Q 8.109375 -12.5 10.25 -12.5 
Q 13.1875 -12.5 14.9375 -11.515625 
Q 16.703125 -10.546875 17.828125 -8.796875 
Q 18.65625 -7.46875 20.515625 -2.25 
Q 20.75 -1.515625 21.296875 -0.09375 
L 1.609375 51.859375 
L 11.078125 51.859375 
L 21.875 21.828125 
Q 23.96875 16.109375 25.640625 9.8125 
Q 27.15625 15.875 29.25 21.625 
L 40.328125 51.859375 
L 49.125 51.859375 
L 29.390625 -0.875 
Q 26.21875 -9.421875 24.46875 -12.640625 
Q 22.125 -17 19.09375 -19.015625 
Q 16.0625 -21.046875 11.859375 -21.046875 
Q 9.328125 -21.046875 6.203125 -19.96875 
z
" id="ArialMT-121"/>
      </defs>
      <g style="fill:#262626;" transform="translate(32.960072 258.14625)scale(0.11 -0.11)">
       <use xlink:href="#ArialMT-71"/>
       <use x="77.783203" xlink:href="#ArialMT-114"/>
       <use x="111.083984" xlink:href="#ArialMT-111"/>
       <use x="166.699219" xlink:href="#ArialMT-99"/>
       <use x="216.699219" xlink:href="#ArialMT-101"/>
       <use x="272.314453" xlink:href="#ArialMT-114"/>
       <use x="305.615234" xlink:href="#ArialMT-121"/>
      </g>
     </g>
    </g>
    <g id="xtick_4">
     <g id="line2d_4">
      <path clip-path="url(#p00c735cad6)" d="M 184.5 179.1 
L 184.5 315 
" style="fill:none;stroke:#ffffff;stroke-linecap:round;"/>
     </g>
     <g id="text_4">
      <!-- Gas -->
      <defs>
       <path d="M 40.4375 6.390625 
Q 35.546875 2.25 31.03125 0.53125 
Q 26.515625 -1.171875 21.34375 -1.171875 
Q 12.796875 -1.171875 8.203125 3 
Q 3.609375 7.171875 3.609375 13.671875 
Q 3.609375 17.484375 5.34375 20.625 
Q 7.078125 23.78125 9.890625 25.6875 
Q 12.703125 27.59375 16.21875 28.5625 
Q 18.796875 29.25 24.03125 29.890625 
Q 34.671875 31.15625 39.703125 32.90625 
Q 39.75 34.71875 39.75 35.203125 
Q 39.75 40.578125 37.25 42.78125 
Q 33.890625 45.75 27.25 45.75 
Q 21.046875 45.75 18.09375 43.578125 
Q 15.140625 41.40625 13.71875 35.890625 
L 5.125 37.0625 
Q 6.296875 42.578125 8.984375 45.96875 
Q 11.671875 49.359375 16.75 51.1875 
Q 21.828125 53.03125 28.515625 53.03125 
Q 35.15625 53.03125 39.296875 51.46875 
Q 43.453125 49.90625 45.40625 47.53125 
Q 47.359375 45.171875 48.140625 41.546875 
Q 48.578125 39.3125 48.578125 33.453125 
L 48.578125 21.734375 
Q 48.578125 9.46875 49.140625 6.21875 
Q 49.703125 2.984375 51.375 0 
L 42.1875 0 
Q 40.828125 2.734375 40.4375 6.390625 
z
M 39.703125 26.03125 
Q 34.90625 24.078125 25.34375 22.703125 
Q 19.921875 21.921875 17.671875 20.9375 
Q 15.4375 19.96875 14.203125 18.09375 
Q 12.984375 16.21875 12.984375 13.921875 
Q 12.984375 10.40625 15.640625 8.0625 
Q 18.3125 5.71875 23.4375 5.71875 
Q 28.515625 5.71875 32.46875 7.9375 
Q 36.421875 10.15625 38.28125 14.015625 
Q 39.703125 17 39.703125 22.796875 
z
" id="ArialMT-97"/>
      </defs>
      <g style="fill:#262626;" transform="translate(174.413516 334.343672)scale(0.11 -0.11)">
       <use xlink:href="#ArialMT-71"/>
       <use x="77.783203" xlink:href="#ArialMT-97"/>
       <use x="133.398438" xlink:href="#ArialMT-115"/>
      </g>
     </g>
    </g>
    <g id="xtick_5">
     <g id="line2d_5">
      <path clip-path="url(#p00c735cad6)" d="M 184.5 179.1 
L 302.192852 247.05 
" style="fill:none;stroke:#ffffff;stroke-linecap:round;"/>
     </g>
     <g id="text_5">
      <!-- Dining -->
      <defs>
       <path d="M 7.71875 0 
L 7.71875 71.578125 
L 32.375 71.578125 
Q 40.71875 71.578125 45.125 70.5625 
Q 51.265625 69.140625 55.609375 65.4375 
Q 61.28125 60.640625 64.078125 53.1875 
Q 66.890625 45.75 66.890625 36.1875 
Q 66.890625 28.03125 64.984375 21.734375 
Q 63.09375 15.4375 60.109375 11.296875 
Q 57.125 7.171875 53.578125 4.796875 
Q 50.046875 2.4375 45.046875 1.21875 
Q 40.046875 0 33.546875 0 
z
M 17.1875 8.453125 
L 32.46875 8.453125 
Q 39.546875 8.453125 43.578125 9.765625 
Q 47.609375 11.078125 50 13.484375 
Q 53.375 16.84375 55.25 22.53125 
Q 57.125 28.21875 57.125 36.328125 
Q 57.125 47.5625 53.4375 53.59375 
Q 49.75 59.625 44.484375 61.671875 
Q 40.671875 63.140625 32.234375 63.140625 
L 17.1875 63.140625 
z
" id="ArialMT-68"/>
       <path d="M 6.59375 0 
L 6.59375 51.859375 
L 14.5 51.859375 
L 14.5 44.484375 
Q 20.21875 53.03125 31 53.03125 
Q 35.6875 53.03125 39.625 51.34375 
Q 43.5625 49.65625 45.515625 46.921875 
Q 47.46875 44.1875 48.25 40.4375 
Q 48.734375 37.984375 48.734375 31.890625 
L 48.734375 0 
L 39.9375 0 
L 39.9375 31.546875 
Q 39.9375 36.921875 38.90625 39.578125 
Q 37.890625 42.234375 35.28125 43.8125 
Q 32.671875 45.40625 29.15625 45.40625 
Q 23.53125 45.40625 19.453125 41.84375 
Q 15.375 38.28125 15.375 28.328125 
L 15.375 0 
z
" id="ArialMT-110"/>
      </defs>
      <g style="fill:#262626;" transform="translate(300.890631 258.079219)scale(0.11 -0.11)">
       <use xlink:href="#ArialMT-68"/>
       <use x="72.216797" xlink:href="#ArialMT-105"/>
       <use x="94.433594" xlink:href="#ArialMT-110"/>
       <use x="150.048828" xlink:href="#ArialMT-105"/>
       <use x="172.265625" xlink:href="#ArialMT-110"/>
       <use x="227.880859" xlink:href="#ArialMT-103"/>
      </g>
     </g>
    </g>
    <g id="xtick_6">
     <g id="line2d_6">
      <path clip-path="url(#p00c735cad6)" d="M 184.5 179.1 
L 302.192852 111.15 
" style="fill:none;stroke:#ffffff;stroke-linecap:round;"/>
     </g>
     <g id="text_6">
      <!-- Other -->
      <defs>
       <path d="M 4.828125 34.859375 
Q 4.828125 52.6875 14.390625 62.765625 
Q 23.96875 72.859375 39.109375 72.859375 
Q 49.03125 72.859375 56.984375 68.109375 
Q 64.9375 63.375 69.109375 54.90625 
Q 73.296875 46.4375 73.296875 35.6875 
Q 73.296875 24.8125 68.890625 16.21875 
Q 64.5 7.625 56.4375 3.203125 
Q 48.390625 -1.21875 39.0625 -1.21875 
Q 28.953125 -1.21875 20.984375 3.65625 
Q 13.03125 8.546875 8.921875 16.984375 
Q 4.828125 25.4375 4.828125 34.859375 
z
M 14.59375 34.71875 
Q 14.59375 21.78125 21.546875 14.328125 
Q 28.515625 6.890625 39.015625 6.890625 
Q 49.703125 6.890625 56.609375 14.40625 
Q 63.53125 21.921875 63.53125 35.75 
Q 63.53125 44.484375 60.578125 51 
Q 57.625 57.515625 51.921875 61.109375 
Q 46.234375 64.703125 39.15625 64.703125 
Q 29.109375 64.703125 21.84375 57.78125 
Q 14.59375 50.875 14.59375 34.71875 
z
" id="ArialMT-79"/>
      </defs>
      <g style="fill:#262626;" transform="translate(302.727975 105.743672)scale(0.11 -0.11)">
       <use xlink:href="#ArialMT-79"/>
       <use x="77.783203" xlink:href="#ArialMT-116"/>
       <use x="105.566406" xlink:href="#ArialMT-104"/>
       <use x="161.181641" xlink:href="#ArialMT-101"/>
       <use x="216.796875" xlink:href="#ArialMT-114"/>
      </g>
     </g>
    </g>
   </g>
   <g id="matplotlib.axis_2">
    <g id="ytick_1">
     <g id="line2d_7">
      <path clip-path="url(#p00c735cad6)" d="M 184.5 168.271315 
L 182.992938 168.376699 
L 181.51521 168.6908 
L 180.095577 169.207504 
L 178.761671 169.916754 
L 177.539455 170.804746 
L 176.452719 171.854195 
L 175.522613 173.044676 
L 174.767242 174.353017 
L 174.201308 175.753752 
L 173.835827 177.219619 
L 173.677911 178.722084 
L 173.730635 180.231906 
L 173.992973 181.719696 
L 174.459818 183.156497 
L 175.122083 184.514343 
L 175.96688 185.766804 
L 176.977763 186.889504 
L 178.135059 187.86059 
L 179.41624 188.661162 
L 180.796372 189.275636 
L 182.24859 189.692053 
L 183.744629 189.902307 
L 185.255371 189.902307 
L 186.75141 189.692053 
L 188.203628 189.275636 
L 189.58376 188.661162 
L 190.864941 187.86059 
L 192.022237 186.889504 
L 193.03312 185.766804 
L 193.877917 184.514343 
L 194.540182 183.156497 
L 195.007027 181.719696 
L 195.269365 180.231906 
L 195.322089 178.722084 
L 195.164173 177.219619 
L 194.798692 175.753752 
L 194.232758 174.353017 
L 193.477387 173.044676 
L 192.547281 171.854195 
L 191.460545 170.804746 
L 190.238329 169.916754 
L 188.904423 169.207504 
L 187.48479 168.6908 
L 186.007062 168.376699 
L 184.5 168.271315 
L 184.5 168.271315 
" style="fill:none;stroke:#ffffff;stroke-linecap:round;"/>
     </g>
     <g id="text_7">
      <!-- 1 -->
      <defs>
       <path d="M 37.25 0 
L 28.46875 0 
L 28.46875 56 
Q 25.296875 52.984375 20.140625 49.953125 
Q 14.984375 46.921875 10.890625 45.40625 
L 10.890625 53.90625 
Q 18.265625 57.375 23.78125 62.296875 
Q 29.296875 67.234375 31.59375 71.875 
L 37.25 71.875 
z
" id="ArialMT-49"/>
      </defs>
      <g style="fill:#262626;" transform="translate(180.356042 166.909349)scale(0.11 -0.11)">
       <use xlink:href="#ArialMT-49"/>
      </g>
     </g>
    </g>
    <g id="ytick_2">
     <g id="line2d_8">
      <path clip-path="url(#p00c735cad6)" d="M 184.5 157.442629 
L 182.236188 157.561271 
L 179.997179 157.915895 
L 177.807504 158.502617 
L 175.691154 159.315008 
L 173.671315 160.344167 
L 171.770117 161.578819 
L 170.008391 163.005437 
L 168.405437 164.608391 
L 166.978819 166.370117 
L 165.744167 168.271315 
L 164.715008 170.291154 
L 163.902617 172.407504 
L 163.315895 174.597179 
L 162.961271 176.836188 
L 162.842629 179.1 
L 162.961271 181.363812 
L 163.315895 183.602821 
L 163.902617 185.792496 
L 164.715008 187.908846 
L 165.744167 189.928685 
L 166.978819 191.829883 
L 168.405437 193.591609 
L 170.008391 195.194563 
L 171.770117 196.621181 
L 173.671315 197.855833 
L 175.691154 198.884992 
L 177.807504 199.697383 
L 179.997179 200.284105 
L 182.236188 200.638729 
L 184.5 200.757371 
L 186.763812 200.638729 
L 189.002821 200.284105 
L 191.192496 199.697383 
L 193.308846 198.884992 
L 195.328685 197.855833 
L 197.229883 196.621181 
L 198.991609 195.194563 
L 200.594563 193.591609 
L 202.021181 191.829883 
L 203.255833 189.928685 
L 204.284992 187.908846 
L 205.097383 185.792496 
L 205.684105 183.602821 
L 206.038729 181.363812 
L 206.157371 179.1 
L 206.038729 176.836188 
L 205.684105 174.597179 
L 205.097383 172.407504 
L 204.284992 170.291154 
L 203.255833 168.271315 
L 202.021181 166.370117 
L 200.594563 164.608391 
L 198.991609 163.005437 
L 197.229883 161.578819 
L 195.328685 160.344167 
L 193.308846 159.315008 
L 191.192496 158.502617 
L 189.002821 157.915895 
L 186.763812 157.561271 
L 184.5 157.442629 
L 184.5 157.442629 
" style="fill:none;stroke:#ffffff;stroke-linecap:round;"/>
     </g>
     <g id="text_8">
      <!-- 2 -->
      <defs>
       <path d="M 50.34375 8.453125 
L 50.34375 0 
L 3.03125 0 
Q 2.9375 3.171875 4.046875 6.109375 
Q 5.859375 10.9375 9.828125 15.625 
Q 13.8125 20.3125 21.34375 26.46875 
Q 33.015625 36.03125 37.109375 41.625 
Q 41.21875 47.21875 41.21875 52.203125 
Q 41.21875 57.421875 37.46875 61 
Q 33.734375 64.59375 27.734375 64.59375 
Q 21.390625 64.59375 17.578125 60.78125 
Q 13.765625 56.984375 13.71875 50.25 
L 4.6875 51.171875 
Q 5.609375 61.28125 11.65625 66.578125 
Q 17.71875 71.875 27.9375 71.875 
Q 38.234375 71.875 44.234375 66.15625 
Q 50.25 60.453125 50.25 52 
Q 50.25 47.703125 48.484375 43.546875 
Q 46.734375 39.40625 42.65625 34.8125 
Q 38.578125 30.21875 29.109375 22.21875 
Q 21.1875 15.578125 18.9375 13.203125 
Q 16.703125 10.84375 15.234375 8.453125 
z
" id="ArialMT-50"/>
      </defs>
      <g style="fill:#262626;" transform="translate(176.212083 156.904949)scale(0.11 -0.11)">
       <use xlink:href="#ArialMT-50"/>
      </g>
     </g>
    </g>
    <g id="ytick_3">
     <g id="line2d_9">
      <path clip-path="url(#p00c735cad6)" d="M 184.5 146.613944 
L 182.233887 146.693079 
L 179.978815 146.930096 
L 177.745769 147.323842 
L 175.545629 147.872399 
L 173.389115 148.573093 
L 171.286731 149.422511 
L 169.248721 150.416515 
L 167.285013 151.550262 
L 165.405176 152.818229 
L 163.618366 154.214237 
L 161.933289 155.731487 
L 160.358156 157.362586 
L 158.900639 159.099587 
L 157.567839 160.934028 
L 156.36625 162.856972 
L 155.301726 164.85905 
L 154.379454 166.930509 
L 153.603925 169.061257 
L 152.978919 171.240912 
L 152.50748 173.458856 
L 152.191906 175.704283 
L 152.033734 177.966253 
L 152.033734 180.233747 
L 152.191906 182.495717 
L 152.50748 184.741144 
L 152.978919 186.959088 
L 153.603925 189.138743 
L 154.379454 191.269491 
L 155.301726 193.34095 
L 156.36625 195.343028 
L 157.567839 197.265972 
L 158.900639 199.100413 
L 160.358156 200.837414 
L 161.933289 202.468513 
L 163.618366 203.985763 
L 165.405176 205.381771 
L 167.285013 206.649738 
L 169.248721 207.783485 
L 171.286731 208.777489 
L 173.389115 209.626907 
L 175.545629 210.327601 
L 177.745769 210.876158 
L 179.978815 211.269904 
L 182.233887 211.506921 
L 184.5 211.586056 
L 186.766113 211.506921 
L 189.021185 211.269904 
L 191.254231 210.876158 
L 193.454371 210.327601 
L 195.610885 209.626907 
L 197.713269 208.777489 
L 199.751279 207.783485 
L 201.714987 206.649738 
L 203.594824 205.381771 
L 205.381634 203.985763 
L 207.066711 202.468513 
L 208.641844 200.837414 
L 210.099361 199.100413 
L 211.432161 197.265972 
L 212.63375 195.343028 
L 213.698274 193.34095 
L 214.620546 191.269491 
L 215.396075 189.138743 
L 216.021081 186.959088 
L 216.49252 184.741144 
L 216.808094 182.495717 
L 216.966266 180.233747 
L 216.966266 177.966253 
L 216.808094 175.704283 
L 216.49252 173.458856 
L 216.021081 171.240912 
L 215.396075 169.061257 
L 214.620546 166.930509 
L 213.698274 164.85905 
L 212.63375 162.856972 
L 211.432161 160.934028 
L 210.099361 159.099587 
L 208.641844 157.362586 
L 207.066711 155.731487 
L 205.381634 154.214237 
L 203.594824 152.818229 
L 201.714987 151.550262 
L 199.751279 150.416515 
L 197.713269 149.422511 
L 195.610885 148.573093 
L 193.454371 147.872399 
L 191.254231 147.323842 
L 189.021185 146.930096 
L 186.766113 146.693079 
L 184.5 146.613944 
L 184.5 146.613944 
" style="fill:none;stroke:#ffffff;stroke-linecap:round;"/>
     </g>
     <g id="text_9">
      <!-- 3 -->
      <defs>
       <path d="M 4.203125 18.890625 
L 12.984375 20.0625 
Q 14.5 12.59375 18.140625 9.296875 
Q 21.78125 6 27 6 
Q 33.203125 6 37.46875 10.296875 
Q 41.75 14.59375 41.75 20.953125 
Q 41.75 27 37.796875 30.921875 
Q 33.84375 34.859375 27.734375 34.859375 
Q 25.25 34.859375 21.53125 33.890625 
L 22.515625 41.609375 
Q 23.390625 41.5 23.921875 41.5 
Q 29.546875 41.5 34.03125 44.421875 
Q 38.53125 47.359375 38.53125 53.46875 
Q 38.53125 58.296875 35.25 61.46875 
Q 31.984375 64.65625 26.8125 64.65625 
Q 21.6875 64.65625 18.265625 61.421875 
Q 14.84375 58.203125 13.875 51.765625 
L 5.078125 53.328125 
Q 6.6875 62.15625 12.390625 67.015625 
Q 18.109375 71.875 26.609375 71.875 
Q 32.46875 71.875 37.390625 69.359375 
Q 42.328125 66.84375 44.9375 62.5 
Q 47.5625 58.15625 47.5625 53.265625 
Q 47.5625 48.640625 45.0625 44.828125 
Q 42.578125 41.015625 37.703125 38.765625 
Q 44.046875 37.3125 47.5625 32.6875 
Q 51.078125 28.078125 51.078125 21.140625 
Q 51.078125 11.765625 44.234375 5.25 
Q 37.40625 -1.265625 26.953125 -1.265625 
Q 17.53125 -1.265625 11.296875 4.34375 
Q 5.078125 9.96875 4.203125 18.890625 
z
" id="ArialMT-51"/>
      </defs>
      <g style="fill:#262626;" transform="translate(172.068125 146.900548)scale(0.11 -0.11)">
       <use xlink:href="#ArialMT-51"/>
      </g>
     </g>
    </g>
    <g id="ytick_4">
     <g id="line2d_10">
      <path clip-path="url(#p00c735cad6)" d="M 184.5 135.785259 
L 181.478516 135.890771 
L 178.471753 136.206795 
L 175.494359 136.73179 
L 172.560839 137.463199 
L 169.685486 138.397457 
L 166.882308 139.530015 
L 164.164961 140.855354 
L 161.546684 142.367016 
L 159.040234 144.057638 
L 156.657821 145.918983 
L 154.411053 147.941983 
L 152.310874 150.116781 
L 150.367518 152.432783 
L 148.590452 154.878704 
L 146.988334 157.442629 
L 145.568969 160.112067 
L 144.339271 162.874012 
L 143.305233 165.715009 
L 142.471892 168.621216 
L 141.843307 171.578474 
L 141.422542 174.572377 
L 141.211645 177.588337 
L 141.211645 180.611663 
L 141.422542 183.627623 
L 141.843307 186.621526 
L 142.471892 189.578784 
L 143.305233 192.484991 
L 144.339271 195.325988 
L 145.568969 198.087933 
L 146.988334 200.757371 
L 148.590452 203.321296 
L 150.367518 205.767217 
L 152.310874 208.083219 
L 154.411053 210.258017 
L 156.657821 212.281017 
L 159.040234 214.142362 
L 161.546684 215.832984 
L 164.164961 217.344646 
L 166.882308 218.669985 
L 169.685486 219.802543 
L 172.560839 220.736801 
L 175.494359 221.46821 
L 178.471753 221.993205 
L 181.478516 222.309229 
L 184.5 222.414741 
L 187.521484 222.309229 
L 190.528247 221.993205 
L 193.505641 221.46821 
L 196.439161 220.736801 
L 199.314514 219.802543 
L 202.117692 218.669985 
L 204.835039 217.344646 
L 207.453316 215.832984 
L 209.959766 214.142362 
L 212.342179 212.281017 
L 214.588947 210.258017 
L 216.689126 208.083219 
L 218.632482 205.767217 
L 220.409548 203.321296 
L 222.011666 200.757371 
L 223.431031 198.087933 
L 224.660729 195.325988 
L 225.694767 192.484991 
L 226.528108 189.578784 
L 227.156693 186.621526 
L 227.577458 183.627623 
L 227.788355 180.611663 
L 227.788355 177.588337 
L 227.577458 174.572377 
L 227.156693 171.578474 
L 226.528108 168.621216 
L 225.694767 165.715009 
L 224.660729 162.874012 
L 223.431031 160.112067 
L 222.011666 157.442629 
L 220.409548 154.878704 
L 218.632482 152.432783 
L 216.689126 150.116781 
L 214.588947 147.941983 
L 212.342179 145.918983 
L 209.959766 144.057638 
L 207.453316 142.367016 
L 204.835039 140.855354 
L 202.117692 139.530015 
L 199.314514 138.397457 
L 196.439161 137.463199 
L 193.505641 136.73179 
L 190.528247 136.206795 
L 187.521484 135.890771 
L 184.5 135.785259 
L 184.5 135.785259 
" style="fill:none;stroke:#ffffff;stroke-linecap:round;"/>
     </g>
     <g id="text_10">
      <!-- 4 -->
      <defs>
       <path d="M 32.328125 0 
L 32.328125 17.140625 
L 1.265625 17.140625 
L 1.265625 25.203125 
L 33.9375 71.578125 
L 41.109375 71.578125 
L 41.109375 25.203125 
L 50.78125 25.203125 
L 50.78125 17.140625 
L 41.109375 17.140625 
L 41.109375 0 
z
M 32.328125 25.203125 
L 32.328125 57.46875 
L 9.90625 25.203125 
z
" id="ArialMT-52"/>
      </defs>
      <g style="fill:#262626;" transform="translate(167.924166 136.896147)scale(0.11 -0.11)">
       <use xlink:href="#ArialMT-52"/>
      </g>
     </g>
    </g>
    <g id="ytick_5">
     <g id="line2d_11">
      <path clip-path="url(#p00c735cad6)" d="M 184.5 124.956574 
L 180.723146 125.088464 
L 176.964691 125.483494 
L 173.242949 126.139737 
L 169.576049 127.053998 
L 165.981858 128.221822 
L 162.477885 129.637519 
L 159.081201 131.294192 
L 155.808355 133.18377 
L 152.675293 135.297048 
L 149.697276 137.623729 
L 146.888816 140.152479 
L 144.263593 142.870976 
L 141.834398 145.765978 
L 139.613065 148.82338 
L 137.610417 152.028287 
L 135.836211 155.365084 
L 134.299089 158.817516 
L 133.006542 162.368761 
L 131.964865 166.00152 
L 131.179134 169.698093 
L 130.653177 173.440471 
L 130.389556 177.210422 
L 130.389556 180.989578 
L 130.653177 184.759529 
L 131.179134 188.501907 
L 131.964865 192.19848 
L 133.006542 195.831239 
L 134.299089 199.382484 
L 135.836211 202.834916 
L 137.610417 206.171713 
L 139.613065 209.37662 
L 141.834398 212.434022 
L 144.263593 215.329024 
L 146.888816 218.047521 
L 149.697276 220.576271 
L 152.675293 222.902952 
L 155.808355 225.01623 
L 159.081201 226.905808 
L 162.477885 228.562481 
L 165.981858 229.978178 
L 169.576049 231.146002 
L 173.242949 232.060263 
L 176.964691 232.716506 
L 180.723146 233.111536 
L 184.5 233.243426 
L 188.276854 233.111536 
L 192.035309 232.716506 
L 195.757051 232.060263 
L 199.423951 231.146002 
L 203.018142 229.978178 
L 206.522115 228.562481 
L 209.918799 226.905808 
L 213.191645 225.01623 
L 216.324707 222.902952 
L 219.302724 220.576271 
L 222.111184 218.047521 
L 224.736407 215.329024 
L 227.165602 212.434022 
L 229.386935 209.37662 
L 231.389583 206.171713 
L 233.163789 202.834916 
L 234.700911 199.382484 
L 235.993458 195.831239 
L 237.035135 192.19848 
L 237.820866 188.501907 
L 238.346823 184.759529 
L 238.610444 180.989578 
L 238.610444 177.210422 
L 238.346823 173.440471 
L 237.820866 169.698093 
L 237.035135 166.00152 
L 235.993458 162.368761 
L 234.700911 158.817516 
L 233.163789 155.365084 
L 231.389583 152.028287 
L 229.386935 148.82338 
L 227.165602 145.765978 
L 224.736407 142.870976 
L 222.111184 140.152479 
L 219.302724 137.623729 
L 216.324707 135.297048 
L 213.191645 133.18377 
L 209.918799 131.294192 
L 206.522115 129.637519 
L 203.018142 128.221822 
L 199.423951 127.053998 
L 195.757051 126.139737 
L 192.035309 125.483494 
L 188.276854 125.088464 
L 184.5 124.956574 
L 184.5 124.956574 
" style="fill:none;stroke:#ffffff;stroke-linecap:round;"/>
     </g>
     <g id="text_11">
      <!-- 5 -->
      <defs>
       <path d="M 4.15625 18.75 
L 13.375 19.53125 
Q 14.40625 12.796875 18.140625 9.390625 
Q 21.875 6 27.15625 6 
Q 33.5 6 37.890625 10.78125 
Q 42.28125 15.578125 42.28125 23.484375 
Q 42.28125 31 38.0625 35.34375 
Q 33.84375 39.703125 27 39.703125 
Q 22.75 39.703125 19.328125 37.765625 
Q 15.921875 35.84375 13.96875 32.765625 
L 5.71875 33.84375 
L 12.640625 70.609375 
L 48.25 70.609375 
L 48.25 62.203125 
L 19.671875 62.203125 
L 15.828125 42.96875 
Q 22.265625 47.46875 29.34375 47.46875 
Q 38.71875 47.46875 45.15625 40.96875 
Q 51.609375 34.46875 51.609375 24.265625 
Q 51.609375 14.546875 45.953125 7.46875 
Q 39.0625 -1.21875 27.15625 -1.21875 
Q 17.390625 -1.21875 11.203125 4.25 
Q 5.03125 9.71875 4.15625 18.75 
z
" id="ArialMT-53"/>
      </defs>
      <g style="fill:#262626;" transform="translate(163.780208 126.891747)scale(0.11 -0.11)">
       <use xlink:href="#ArialMT-53"/>
      </g>
     </g>
    </g>
    <g id="ytick_6">
     <g id="line2d_12">
      <path clip-path="url(#p00c735cad6)" d="M 184.5 114.127888 
L 179.967775 114.286157 
L 175.45763 114.760193 
L 170.991538 115.547685 
L 166.591259 116.644798 
L 162.278229 118.046186 
L 158.073461 119.745023 
L 153.997441 121.733031 
L 150.070026 124.000524 
L 146.310351 126.536458 
L 142.736732 129.328475 
L 139.366579 132.362974 
L 136.216311 135.625172 
L 133.301277 139.099174 
L 130.635678 142.768056 
L 128.232501 146.613944 
L 126.103453 150.618101 
L 124.258907 154.761019 
L 122.70785 159.022513 
L 121.457838 163.381824 
L 120.514961 167.817711 
L 119.883812 172.308565 
L 119.567468 176.832506 
L 119.567468 181.367494 
L 119.883812 185.891435 
L 120.514961 190.382289 
L 121.457838 194.818176 
L 122.70785 199.177487 
L 124.258907 203.438981 
L 126.103453 207.581899 
L 128.232501 211.586056 
L 130.635678 215.431944 
L 133.301277 219.100826 
L 136.216311 222.574828 
L 139.366579 225.837026 
L 142.736732 228.871525 
L 146.310351 231.663542 
L 150.070026 234.199476 
L 153.997441 236.466969 
L 158.073461 238.454977 
L 162.278229 240.153814 
L 166.591259 241.555202 
L 170.991538 242.652315 
L 175.45763 243.439807 
L 179.967775 243.913843 
L 184.5 244.072112 
L 189.032225 243.913843 
L 193.54237 243.439807 
L 198.008462 242.652315 
L 202.408741 241.555202 
L 206.721771 240.153814 
L 210.926539 238.454977 
L 215.002559 236.466969 
L 218.929974 234.199476 
L 222.689649 231.663542 
L 226.263268 228.871525 
L 229.633421 225.837026 
L 232.783689 222.574828 
L 235.698723 219.100826 
L 238.364322 215.431944 
L 240.767499 211.586056 
L 242.896547 207.581899 
L 244.741093 203.438981 
L 246.29215 199.177487 
L 247.542162 194.818176 
L 248.485039 190.382289 
L 249.116188 185.891435 
L 249.432532 181.367494 
L 249.432532 176.832506 
L 249.116188 172.308565 
L 248.485039 167.817711 
L 247.542162 163.381824 
L 246.29215 159.022513 
L 244.741093 154.761019 
L 242.896547 150.618101 
L 240.767499 146.613944 
L 238.364322 142.768056 
L 235.698723 139.099174 
L 232.783689 135.625172 
L 229.633421 132.362974 
L 226.263268 129.328475 
L 222.689649 126.536458 
L 218.929974 124.000524 
L 215.002559 121.733031 
L 210.926539 119.745023 
L 206.721771 118.046186 
L 202.408741 116.644798 
L 198.008462 115.547685 
L 193.54237 114.760193 
L 189.032225 114.286157 
L 184.5 114.127888 
L 184.5 114.127888 
" style="fill:none;stroke:#ffffff;stroke-linecap:round;"/>
     </g>
     <g id="text_12">
      <!-- 6 -->
      <defs>
       <path d="M 49.75 54.046875 
L 41.015625 53.375 
Q 39.84375 58.546875 37.703125 60.890625 
Q 34.125 64.65625 28.90625 64.65625 
Q 24.703125 64.65625 21.53125 62.3125 
Q 17.390625 59.28125 14.984375 53.46875 
Q 12.59375 47.65625 12.5 36.921875 
Q 15.671875 41.75 20.265625 44.09375 
Q 24.859375 46.4375 29.890625 46.4375 
Q 38.671875 46.4375 44.84375 39.96875 
Q 51.03125 33.5 51.03125 23.25 
Q 51.03125 16.5 48.125 10.71875 
Q 45.21875 4.9375 40.140625 1.859375 
Q 35.0625 -1.21875 28.609375 -1.21875 
Q 17.625 -1.21875 10.6875 6.859375 
Q 3.765625 14.9375 3.765625 33.5 
Q 3.765625 54.25 11.421875 63.671875 
Q 18.109375 71.875 29.4375 71.875 
Q 37.890625 71.875 43.28125 67.140625 
Q 48.6875 62.40625 49.75 54.046875 
z
M 13.875 23.1875 
Q 13.875 18.65625 15.796875 14.5 
Q 17.71875 10.359375 21.1875 8.171875 
Q 24.65625 6 28.46875 6 
Q 34.03125 6 38.03125 10.484375 
Q 42.046875 14.984375 42.046875 22.703125 
Q 42.046875 30.125 38.078125 34.390625 
Q 34.125 38.671875 28.125 38.671875 
Q 22.171875 38.671875 18.015625 34.390625 
Q 13.875 30.125 13.875 23.1875 
z
" id="ArialMT-54"/>
      </defs>
      <g style="fill:#262626;" transform="translate(159.636249 116.887346)scale(0.11 -0.11)">
       <use xlink:href="#ArialMT-54"/>
      </g>
     </g>
    </g>
   </g>
   <g id="patch_3">
    <path clip-path="url(#p00c735cad6)" d="M 184.5 168.271315 
L 71.965002 114.127888 
L 128.232501 211.586056 
L 184.5 244.072112 
L 240.767499 211.586056 
L 193.877917 173.685657 
z
" style="fill:#4c72b0;opacity:0.25;stroke:#ffffff;stroke-linejoin:miter;"/>
   </g>
   <g id="line2d_13">
    <path clip-path="url(#p00c735cad6)" d="M 184.5 168.271315 
L 71.965002 114.127888 
L 128.232501 211.586056 
L 184.5 244.072112 
L 240.767499 211.586056 
L 193.877917 173.685657 
L 184.5 168.271315 
" style="fill:none;stroke:#4c72b0;stroke-linecap:round;stroke-width:1.5;"/>
   </g>
   <g id="patch_4">
    <path d="M 184.5 43.2 
L 66.807148 111.15 
L 66.807148 247.05 
L 184.5 315 
L 302.192852 247.05 
L 302.192852 111.15 
z
" style="fill:none;stroke:#ffffff;stroke-linecap:square;stroke-linejoin:miter;stroke-width:1.25;"/>
   </g>
  </g>
 </g>
 <defs>
  <clipPath id="p00c735cad6">
   <path d="M 184.5 43.2 
L 66.807148 111.15 
L 66.807148 247.05 
L 184.5 315 
L 302.192852 247.05 
L 302.192852 111.15 
z
"/>
  </clipPath>
 </defs>
</svg>
