<?xml version="1.0" encoding="utf-8" standalone="no"?>
<!DOCTYPE svg PUBLIC "-//W3C//DTD SVG 1.1//EN"
  "http://www.w3.org/Graphics/SVG/1.1/DTD/svg11.dtd">
<!-- Created with matplotlib (https://matplotlib.org/) -->
<svg height="360pt" version="1.1" viewBox="0 0 360 360" width="360pt" xmlns="http://www.w3.org/2000/svg" xmlns:xlink="http://www.w3.org/1999/xlink">
 <defs>
  <style type="text/css">
*{stroke-linecap:butt;stroke-linejoin:round;}
  </style>
 </defs>
 <g id="figure_1">
  <g id="patch_1">
   <path d="M 0 360 
L 360 360 
L 360 0 
L 0 0 
z
" style="fill:#ffffff;"/>
  </g>
  <g id="axes_1">
   <g id="patch_2">
    <path d="M 184.5 43.2 
L 66.807148 111.15 
L 66.807148 247.05 
L 184.5 315 
L 302.192852 247.05 
L 302.192852 111.15 
z
" style="fill:#eaeaf2;"/>
   </g>
   <g id="matplotlib.axis_1">
    <g id="xtick_1">
     <g id="line2d_1">
      <path clip-path="url(#p8760ccf8f1)" d="M 184.5 179.1 
L 184.5 43.2 
" style="fill:none;stroke:#ffffff;stroke-linecap:round;"/>
     </g>
     <g id="text_1">
      <!-- Flights -->
      <defs>
       <path d="M 8.203125 0 
L 8.203125 71.578125 
L 56.5 71.578125 
L 56.5 63.140625 
L 17.671875 63.140625 
L 17.671875 40.96875 
L 51.265625 40.96875 
L 51.265625 32.515625 
L 17.671875 32.515625 
L 17.671875 0 
z
" id="ArialMT-70"/>
       <path d="M 6.390625 0 
L 6.390625 71.578125 
L 15.1875 71.578125 
L 15.1875 0 
z
" id="ArialMT-108"/>
       <path d="M 6.640625 61.46875 
L 6.640625 71.578125 
L 15.4375 71.578125 
L 15.4375 61.46875 
z
M 6.640625 0 
L 6.640625 51.859375 
L 15.4375 51.859375 
L 15.4375 0 
z
" id="ArialMT-105"/>
       <path d="M 4.984375 -4.296875 
L 13.53125 -5.5625 
Q 14.0625 -9.515625 16.5 -11.328125 
Q 19.78125 -13.765625 25.4375 -13.765625 
Q 31.546875 -13.765625 34.859375 -11.328125 
Q 38.1875 -8.890625 39.359375 -4.5 
Q 40.046875 -1.8125 39.984375 6.78125 
Q 34.234375 0 25.640625 0 
Q 14.9375 0 9.078125 7.71875 
Q 3.21875 15.4375 3.21875 26.21875 
Q 3.21875 33.640625 5.90625 39.90625 
Q 8.59375 46.1875 13.6875 49.609375 
Q 18.796875 53.03125 25.6875 53.03125 
Q 34.859375 53.03125 40.828125 45.609375 
L 40.828125 51.859375 
L 48.921875 51.859375 
L 48.921875 7.03125 
Q 48.921875 -5.078125 46.453125 -10.125 
Q 44 -15.1875 38.640625 -18.109375 
Q 33.296875 -21.046875 25.484375 -21.046875 
Q 16.21875 -21.046875 10.5 -16.875 
Q 4.78125 -12.703125 4.984375 -4.296875 
z
M 12.25 26.859375 
Q 12.25 16.65625 16.296875 11.96875 
Q 20.359375 7.28125 26.46875 7.28125 
Q 32.515625 7.28125 36.609375 11.9375 
Q 40.71875 16.609375 40.71875 26.5625 
Q 40.71875 36.078125 36.5 40.90625 
Q 32.28125 45.75 26.3125 45.75 
Q 20.453125 45.75 16.34375 40.984375 
Q 12.25 36.234375 12.25 26.859375 
z
" id="ArialMT-103"/>
       <path d="M 6.59375 0 
L 6.59375 71.578125 
L 15.375 71.578125 
L 15.375 45.90625 
Q 21.53125 53.03125 30.90625 53.03125 
Q 36.671875 53.03125 40.921875 50.75 
Q 45.171875 48.484375 47 44.484375 
Q 48.828125 40.484375 48.828125 32.859375 
L 48.828125 0 
L 40.046875 0 
L 40.046875 32.859375 
Q 40.046875 39.453125 37.1875 42.453125 
Q 34.328125 45.453125 29.109375 45.453125 
Q 25.203125 45.453125 21.75 43.421875 
Q 18.3125 41.40625 16.84375 37.9375 
Q 15.375 34.46875 15.375 28.375 
L 15.375 0 
z
" id="ArialMT-104"/>
       <path d="M 25.78125 7.859375 
L 27.046875 0.09375 
Q 23.34375 -0.6875 20.40625 -0.6875 
Q 15.625 -0.6875 12.984375 0.828125 
Q 10.359375 2.34375 9.28125 4.8125 
Q 8.203125 7.28125 8.203125 15.1875 
L 8.203125 45.015625 
L 1.765625 45.015625 
L 1.765625 51.859375 
L 8.203125 51.859375 
L 8.203125 64.703125 
L 16.9375 69.96875 
L 16.9375 51.859375 
L 25.78125 51.859375 
L 25.78125 45.015625 
L 16.9375 45.015625 
L 16.9375 14.703125 
Q 16.9375 10.9375 17.40625 9.859375 
Q 17.875 8.796875 18.921875 8.15625 
Q 19.96875 7.515625 21.921875 7.515625 
Q 23.390625 7.515625 25.78125 7.859375 
z
" id="ArialMT-116"/>
       <path d="M 3.078125 15.484375 
L 11.765625 16.84375 
Q 12.5 11.625 15.84375 8.84375 
Q 19.1875 6.0625 25.203125 6.0625 
Q 31.25 6.0625 34.171875 8.515625 
Q 37.109375 10.984375 37.109375 14.3125 
Q 37.109375 17.28125 34.515625 19 
Q 32.71875 20.171875 25.53125 21.96875 
Q 15.875 24.421875 12.140625 26.203125 
Q 8.40625 27.984375 6.46875 31.125 
Q 4.546875 34.28125 4.546875 38.09375 
Q 4.546875 41.546875 6.125 44.5 
Q 7.71875 47.46875 10.453125 49.421875 
Q 12.5 50.921875 16.03125 51.96875 
Q 19.578125 53.03125 23.640625 53.03125 
Q 29.734375 53.03125 34.34375 51.265625 
Q 38.96875 49.515625 41.15625 46.5 
Q 43.359375 43.5 44.1875 38.484375 
L 35.59375 37.3125 
Q 35.015625 41.3125 32.203125 43.546875 
Q 29.390625 45.796875 24.265625 45.796875 
Q 18.21875 45.796875 15.625 43.796875 
Q 13.03125 41.796875 13.03125 39.109375 
Q 13.03125 37.40625 14.109375 36.03125 
Q 15.1875 34.625 17.484375 33.6875 
Q 18.796875 33.203125 25.25 31.453125 
Q 34.578125 28.953125 38.25 27.359375 
Q 41.9375 25.78125 44.03125 22.75 
Q 46.140625 19.734375 46.140625 15.234375 
Q 46.140625 10.84375 43.578125 6.953125 
Q 41.015625 3.078125 36.171875 0.953125 
Q 31.34375 -1.171875 25.25 -1.171875 
Q 15.140625 -1.171875 9.84375 3.03125 
Q 4.546875 7.234375 3.078125 15.484375 
z
" id="ArialMT-115"/>
      </defs>
      <g style="fill:#262626;" transform="translate(168.301641 29.479219)scale(0.11 -0.11)">
       <use xlink:href="#ArialMT-70"/>
       <use x="61.083984" xlink:href="#ArialMT-108"/>
       <use x="83.300781" xlink:href="#ArialMT-105"/>
       <use x="105.517578" xlink:href="#ArialMT-103"/>
       <use x="161.132812" xlink:href="#ArialMT-104"/>
       <use x="216.748047" xlink:href="#ArialMT-116"/>
       <use x="244.53125" xlink:href="#ArialMT-115"/>
      </g>
     </g>
    </g>
    <g id="xtick_2">
     <g id="line2d_2">
      <path clip-path="url(#p8760ccf8f1)" d="M 184.5 179.1 
L 66.807148 111.15 
" style="fill:none;stroke:#ffffff;stroke-linecap:round;"/>
     </g>
     <g id="text_2">
      <!-- Hotel -->
      <defs>
       <path d="M 8.015625 0 
L 8.015625 71.578125 
L 17.484375 71.578125 
L 17.484375 42.1875 
L 54.6875 42.1875 
L 54.6875 71.578125 
L 64.15625 71.578125 
L 64.15625 0 
L 54.6875 0 
L 54.6875 33.734375 
L 17.484375 33.734375 
L 17.484375 0 
z
" id="ArialMT-72"/>
       <path d="M 3.328125 25.921875 
Q 3.328125 40.328125 11.328125 47.265625 
Q 18.015625 53.03125 27.640625 53.03125 
Q 38.328125 53.03125 45.109375 46.015625 
Q 51.90625 39.015625 51.90625 26.65625 
Q 51.90625 16.65625 48.90625 10.90625 
Q 45.90625 5.171875 40.15625 2 
Q 34.421875 -1.171875 27.640625 -1.171875 
Q 16.75 -1.171875 10.03125 5.8125 
Q 3.328125 12.796875 3.328125 25.921875 
z
M 12.359375 25.921875 
Q 12.359375 15.96875 16.703125 11.015625 
Q 21.046875 6.0625 27.640625 6.0625 
Q 34.1875 6.0625 38.53125 11.03125 
Q 42.875 16.015625 42.875 26.21875 
Q 42.875 35.84375 38.5 40.796875 
Q 34.125 45.75 27.640625 45.75 
Q 21.046875 45.75 16.703125 40.8125 
Q 12.359375 35.890625 12.359375 25.921875 
z
" id="ArialMT-111"/>
       <path d="M 42.09375 16.703125 
L 51.171875 15.578125 
Q 49.03125 7.625 43.21875 3.21875 
Q 37.40625 -1.171875 28.375 -1.171875 
Q 17 -1.171875 10.328125 5.828125 
Q 3.65625 12.84375 3.65625 25.484375 
Q 3.65625 38.578125 10.390625 45.796875 
Q 17.140625 53.03125 27.875 53.03125 
Q 38.28125 53.03125 44.875 45.953125 
Q 51.46875 38.875 51.46875 26.03125 
Q 51.46875 25.25 51.421875 23.6875 
L 12.75 23.6875 
Q 13.234375 15.140625 17.578125 10.59375 
Q 21.921875 6.0625 28.421875 6.0625 
Q 33.25 6.0625 36.671875 8.59375 
Q 40.09375 11.140625 42.09375 16.703125 
z
M 13.234375 30.90625 
L 42.1875 30.90625 
Q 41.609375 37.453125 38.875 40.71875 
Q 34.671875 45.796875 27.984375 45.796875 
Q 21.921875 45.796875 17.796875 41.75 
Q 13.671875 37.703125 13.234375 30.90625 
z
" id="ArialMT-101"/>
      </defs>
      <g style="fill:#262626;" transform="translate(39.678666 105.743672)scale(0.11 -0.11)">
       <use xlink:href="#ArialMT-72"/>
       <use x="72.216797" xlink:href="#ArialMT-111"/>
       <use x="127.832031" xlink:href="#ArialMT-116"/>
       <use x="155.615234" xlink:href="#ArialMT-101"/>
       <use x="211.230469" xlink:href="#ArialMT-108"/>
      </g>
     </g>
    </g>
    <g id="xtick_3">
     <g id="line2d_3">
      <path clip-path="url(#p8760ccf8f1)" d="M 184.5 179.1 
L 66.807148 247.05 
" style="fill:none;stroke:#ffffff;stroke-linecap:round;"/>
     </g>
     <g id="text_3">
      <!-- Grocery -->
      <defs>
       <path d="M 41.21875 28.078125 
L 41.21875 36.46875 
L 71.53125 36.53125 
L 71.53125 9.96875 
Q 64.546875 4.390625 57.125 1.578125 
Q 49.703125 -1.21875 41.890625 -1.21875 
Q 31.34375 -1.21875 22.71875 3.296875 
Q 14.109375 7.8125 9.71875 16.359375 
Q 5.328125 24.90625 5.328125 35.453125 
Q 5.328125 45.90625 9.6875 54.953125 
Q 14.0625 64.015625 22.265625 68.40625 
Q 30.46875 72.796875 41.15625 72.796875 
Q 48.921875 72.796875 55.1875 70.28125 
Q 61.46875 67.78125 65.03125 63.28125 
Q 68.609375 58.796875 70.453125 51.5625 
L 61.921875 49.21875 
Q 60.296875 54.6875 57.90625 57.8125 
Q 55.515625 60.9375 51.0625 62.8125 
Q 46.625 64.703125 41.21875 64.703125 
Q 34.71875 64.703125 29.984375 62.71875 
Q 25.25 60.75 22.34375 57.515625 
Q 19.4375 54.296875 17.828125 50.4375 
Q 15.09375 43.796875 15.09375 36.03125 
Q 15.09375 26.46875 18.390625 20.015625 
Q 21.6875 13.578125 27.984375 10.453125 
Q 34.28125 7.328125 41.359375 7.328125 
Q 47.515625 7.328125 53.375 9.6875 
Q 59.234375 12.0625 62.25 14.75 
L 62.25 28.078125 
z
" id="ArialMT-71"/>
       <path d="M 6.5 0 
L 6.5 51.859375 
L 14.40625 51.859375 
L 14.40625 44 
Q 17.4375 49.515625 20 51.265625 
Q 22.5625 53.03125 25.640625 53.03125 
Q 30.078125 53.03125 34.671875 50.203125 
L 31.640625 42.046875 
Q 28.421875 43.953125 25.203125 43.953125 
Q 22.3125 43.953125 20.015625 42.21875 
Q 17.71875 40.484375 16.75 37.40625 
Q 15.28125 32.71875 15.28125 27.15625 
L 15.28125 0 
z
" id="ArialMT-114"/>
       <path d="M 40.4375 19 
L 49.078125 17.875 
Q 47.65625 8.9375 41.8125 3.875 
Q 35.984375 -1.171875 27.484375 -1.171875 
Q 16.84375 -1.171875 10.375 5.78125 
Q 3.90625 12.75 3.90625 25.734375 
Q 3.90625 34.125 6.6875 40.421875 
Q 9.46875 46.734375 15.15625 49.875 
Q 20.84375 53.03125 27.546875 53.03125 
Q 35.984375 53.03125 41.359375 48.75 
Q 46.734375 44.484375 48.25 36.625 
L 39.703125 35.296875 
Q 38.484375 40.53125 35.375 43.15625 
Q 32.28125 45.796875 27.875 45.796875 
Q 21.234375 45.796875 17.078125 41.03125 
Q 12.9375 36.28125 12.9375 25.984375 
Q 12.9375 15.53125 16.9375 10.796875 
Q 20.953125 6.0625 27.390625 6.0625 
Q 32.5625 6.0625 36.03125 9.234375 
Q 39.5 12.40625 40.4375 19 
z
" id="ArialMT-99"/>
       <path d="M 6.203125 -19.96875 
L 5.21875 -11.71875 
Q 8.109375 -12.5 10.25 -12.5 
Q 13.1875 -12.5 14.9375 -11.515625 
Q 16.703125 -10.546875 17.828125 -8.796875 
Q 18.65625 -7.46875 20.515625 -2.25 
Q 20.75 -1.515625 21.296875 -0.09375 
L 1.609375 51.859375 
L 11.078125 51.859375 
L 21.875 21.828125 
Q 23.96875 16.109375 25.640625 9.8125 
Q 27.15625 15.875 29.25 21.625 
L 40.328125 51.859375 
L 49.125 51.859375 
L 29.390625 -0.875 
Q 26.21875 -9.421875 24.46875 -12.640625 
Q 22.125 -17 19.09375 -19.015625 
Q 16.0625 -21.046875 11.859375 -21.046875 
Q 9.328125 -21.046875 6.203125 -19.96875 
z
" id="ArialMT-121"/>
      </defs>
      <g style="fill:#262626;" transform="translate(32.960072 258.14625)scale(0.11 -0.11)">
       <use xlink:href="#ArialMT-71"/>
       <use x="77.783203" xlink:href="#ArialMT-114"/>
       <use x="111.083984" xlink:href="#ArialMT-111"/>
       <use x="166.699219" xlink:href="#ArialMT-99"/>
       <use x="216.699219" xlink:href="#ArialMT-101"/>
       <use x="272.314453" xlink:href="#ArialMT-114"/>
       <use x="305.615234" xlink:href="#ArialMT-121"/>
      </g>
     </g>
    </g>
    <g id="xtick_4">
     <g id="line2d_4">
      <path clip-path="url(#p8760ccf8f1)" d="M 184.5 179.1 
L 184.5 315 
" style="fill:none;stroke:#ffffff;stroke-linecap:round;"/>
     </g>
     <g id="text_4">
      <!-- Gas -->
      <defs>
       <path d="M 40.4375 6.390625 
Q 35.546875 2.25 31.03125 0.53125 
Q 26.515625 -1.171875 21.34375 -1.171875 
Q 12.796875 -1.171875 8.203125 3 
Q 3.609375 7.171875 3.609375 13.671875 
Q 3.609375 17.484375 5.34375 20.625 
Q 7.078125 23.78125 9.890625 25.6875 
Q 12.703125 27.59375 16.21875 28.5625 
Q 18.796875 29.25 24.03125 29.890625 
Q 34.671875 31.15625 39.703125 32.90625 
Q 39.75 34.71875 39.75 35.203125 
Q 39.75 40.578125 37.25 42.78125 
Q 33.890625 45.75 27.25 45.75 
Q 21.046875 45.75 18.09375 43.578125 
Q 15.140625 41.40625 13.71875 35.890625 
L 5.125 37.0625 
Q 6.296875 42.578125 8.984375 45.96875 
Q 11.671875 49.359375 16.75 51.1875 
Q 21.828125 53.03125 28.515625 53.03125 
Q 35.15625 53.03125 39.296875 51.46875 
Q 43.453125 49.90625 45.40625 47.53125 
Q 47.359375 45.171875 48.140625 41.546875 
Q 48.578125 39.3125 48.578125 33.453125 
L 48.578125 21.734375 
Q 48.578125 9.46875 49.140625 6.21875 
Q 49.703125 2.984375 51.375 0 
L 42.1875 0 
Q 40.828125 2.734375 40.4375 6.390625 
z
M 39.703125 26.03125 
Q 34.90625 24.078125 25.34375 22.703125 
Q 19.921875 21.921875 17.671875 20.9375 
Q 15.4375 19.96875 14.203125 18.09375 
Q 12.984375 16.21875 12.984375 13.921875 
Q 12.984375 10.40625 15.640625 8.0625 
Q 18.3125 5.71875 23.4375 5.71875 
Q 28.515625 5.71875 32.46875 7.9375 
Q 36.421875 10.15625 38.28125 14.015625 
Q 39.703125 17 39.703125 22.796875 
z
" id="ArialMT-97"/>
      </defs>
      <g style="fill:#262626;" transform="translate(174.413516 334.343672)scale(0.11 -0.11)">
       <use xlink:href="#ArialMT-71"/>
       <use x="77.783203" xlink:href="#ArialMT-97"/>
       <use x="133.398438" xlink:href="#ArialMT-115"/>
      </g>
     </g>
    </g>
    <g id="xtick_5">
     <g id="line2d_5">
      <path clip-path="url(#p8760ccf8f1)" d="M 184.5 179.1 
L 302.192852 247.05 
" style="fill:none;stroke:#ffffff;stroke-linecap:round;"/>
     </g>
     <g id="text_5">
      <!-- Dining -->
      <defs>
       <path d="M 7.71875 0 
L 7.71875 71.578125 
L 32.375 71.578125 
Q 40.71875 71.578125 45.125 70.5625 
Q 51.265625 69.140625 55.609375 65.4375 
Q 61.28125 60.640625 64.078125 53.1875 
Q 66.890625 45.75 66.890625 36.1875 
Q 66.890625 28.03125 64.984375 21.734375 
Q 63.09375 15.4375 60.109375 11.296875 
Q 57.125 7.171875 53.578125 4.796875 
Q 50.046875 2.4375 45.046875 1.21875 
Q 40.046875 0 33.546875 0 
z
M 17.1875 8.453125 
L 32.46875 8.453125 
Q 39.546875 8.453125 43.578125 9.765625 
Q 47.609375 11.078125 50 13.484375 
Q 53.375 16.84375 55.25 22.53125 
Q 57.125 28.21875 57.125 36.328125 
Q 57.125 47.5625 53.4375 53.59375 
Q 49.75 59.625 44.484375 61.671875 
Q 40.671875 63.140625 32.234375 63.140625 
L 17.1875 63.140625 
z
" id="ArialMT-68"/>
       <path d="M 6.59375 0 
L 6.59375 51.859375 
L 14.5 51.859375 
L 14.5 44.484375 
Q 20.21875 53.03125 31 53.03125 
Q 35.6875 53.03125 39.625 51.34375 
Q 43.5625 49.65625 45.515625 46.921875 
Q 47.46875 44.1875 48.25 40.4375 
Q 48.734375 37.984375 48.734375 31.890625 
L 48.734375 0 
L 39.9375 0 
L 39.9375 31.546875 
Q 39.9375 36.921875 38.90625 39.578125 
Q 37.890625 42.234375 35.28125 43.8125 
Q 32.671875 45.40625 29.15625 45.40625 
Q 23.53125 45.40625 19.453125 41.84375 
Q 15.375 38.28125 15.375 28.328125 
L 15.375 0 
z
" id="ArialMT-110"/>
      </defs>
      <g style="fill:#262626;" transform="translate(300.890631 258.079219)scale(0.11 -0.11)">
       <use xlink:href="#ArialMT-68"/>
       <use x="72.216797" xlink:href="#ArialMT-105"/>
       <use x="94.433594" xlink:href="#ArialMT-110"/>
       <use x="150.048828" xlink:href="#ArialMT-105"/>
       <use x="172.265625" xlink:href="#ArialMT-110"/>
       <use x="227.880859" xlink:href="#ArialMT-103"/>
      </g>
     </g>
    </g>
    <g id="xtick_6">
     <g id="line2d_6">
      <path clip-path="url(#p8760ccf8f1)" d="M 184.5 179.1 
L 302.192852 111.15 
" style="fill:none;stroke:#ffffff;stroke-linecap:round;"/>
     </g>
     <g id="text_6">
      <!-- Other -->
      <defs>
       <path d="M 4.828125 34.859375 
Q 4.828125 52.6875 14.390625 62.765625 
Q 23.96875 72.859375 39.109375 72.859375 
Q 49.03125 72.859375 56.984375 68.109375 
Q 64.9375 63.375 69.109375 54.90625 
Q 73.296875 46.4375 73.296875 35.6875 
Q 73.296875 24.8125 68.890625 16.21875 
Q 64.5 7.625 56.4375 3.203125 
Q 48.390625 -1.21875 39.0625 -1.21875 
Q 28.953125 -1.21875 20.984375 3.65625 
Q 13.03125 8.546875 8.921875 16.984375 
Q 4.828125 25.4375 4.828125 34.859375 
z
M 14.59375 34.71875 
Q 14.59375 21.78125 21.546875 14.328125 
Q 28.515625 6.890625 39.015625 6.890625 
Q 49.703125 6.890625 56.609375 14.40625 
Q 63.53125 21.921875 63.53125 35.75 
Q 63.53125 44.484375 60.578125 51 
Q 57.625 57.515625 51.921875 61.109375 
Q 46.234375 64.703125 39.15625 64.703125 
Q 29.109375 64.703125 21.84375 57.78125 
Q 14.59375 50.875 14.59375 34.71875 
z
" id="ArialMT-79"/>
      </defs>
      <g style="fill:#262626;" transform="translate(302.727975 105.743672)scale(0.11 -0.11)">
       <use xlink:href="#ArialMT-79"/>
       <use x="77.783203" xlink:href="#ArialMT-116"/>
       <use x="105.566406" xlink:href="#ArialMT-104"/>
       <use x="161.181641" xlink:href="#ArialMT-101"/>
       <use x="216.796875" xlink:href="#ArialMT-114"/>
      </g>
     </g>
    </g>
   </g>
   <g id="matplotlib.axis_2">
    <g id="ytick_1">
     <g id="line2d_7">
      <path clip-path="url(#p8760ccf8f1)" d="M 184.5 155.421305 
L 182.024902 155.551019 
L 179.576922 155.938741 
L 177.182881 156.580223 
L 174.869007 157.468435 
L 172.660652 158.593648 
L 170.582012 159.943533 
L 168.65586 161.5033 
L 166.9033 163.25586 
L 165.343533 165.182012 
L 163.993648 167.260652 
L 162.868435 169.469007 
L 161.980223 171.782881 
L 161.338741 174.176922 
L 160.951019 176.624902 
L 160.821305 179.1 
L 160.951019 181.575098 
L 161.338741 184.023078 
L 161.980223 186.417119 
L 162.868435 188.730993 
L 163.993648 190.939348 
L 165.343533 193.017988 
L 166.9033 194.94414 
L 168.65586 196.6967 
L 170.582012 198.256467 
L 172.660652 199.606352 
L 174.869007 200.731565 
L 177.182881 201.619777 
L 179.576922 202.261259 
L 182.024902 202.648981 
L 184.5 202.778695 
L 186.975098 202.648981 
L 189.423078 202.261259 
L 191.817119 201.619777 
L 194.130993 200.731565 
L 196.339348 199.606352 
L 198.417988 198.256467 
L 200.34414 196.6967 
L 202.0967 194.94414 
L 203.656467 193.017988 
L 205.006352 190.939348 
L 206.131565 188.730993 
L 207.019777 186.417119 
L 207.661259 184.023078 
L 208.048981 181.575098 
L 208.178695 179.1 
L 208.048981 176.624902 
L 207.661259 174.176922 
L 207.019777 171.782881 
L 206.131565 169.469007 
L 205.006352 167.260652 
L 203.656467 165.182012 
L 202.0967 163.25586 
L 200.34414 161.5033 
L 198.417988 159.943533 
L 196.339348 158.593648 
L 194.130993 157.468435 
L 191.817119 156.580223 
L 189.423078 155.938741 
L 186.975098 155.551019 
L 184.5 155.421305 
L 184.5 155.421305 
" style="fill:none;stroke:#ffffff;stroke-linecap:round;"/>
     </g>
     <g id="text_7">
      <!-- 1 -->
      <defs>
       <path d="M 37.25 0 
L 28.46875 0 
L 28.46875 56 
Q 25.296875 52.984375 20.140625 49.953125 
Q 14.984375 46.921875 10.890625 45.40625 
L 10.890625 53.90625 
Q 18.265625 57.375 23.78125 62.296875 
Q 29.296875 67.234375 31.59375 71.875 
L 37.25 71.875 
z
" id="ArialMT-49"/>
      </defs>
      <g style="fill:#262626;" transform="translate(175.438556 155.037488)scale(0.11 -0.11)">
       <use xlink:href="#ArialMT-49"/>
      </g>
     </g>
    </g>
    <g id="ytick_2">
     <g id="line2d_8">
      <path clip-path="url(#p8760ccf8f1)" d="M 184.5 132.977044 
L 181.282625 133.089397 
L 178.080925 133.425909 
L 174.910498 133.984941 
L 171.78679 134.763769 
L 168.72502 135.758598 
L 165.740104 136.964583 
L 162.846584 138.375847 
L 160.058557 139.985515 
L 157.389607 141.785745 
L 154.852735 143.767766 
L 152.460302 145.921922 
L 150.223964 148.237718 
L 148.154614 150.703873 
L 146.262336 153.30837 
L 144.556348 156.038522 
L 143.044962 158.881027 
L 141.73554 161.822036 
L 140.634462 164.847223 
L 139.747093 167.941847 
L 139.077755 171.090833 
L 138.62971 174.278838 
L 138.405141 177.490332 
L 138.405141 180.709668 
L 138.62971 183.921162 
L 139.077755 187.109167 
L 139.747093 190.258153 
L 140.634462 193.352777 
L 141.73554 196.377964 
L 143.044962 199.318973 
L 144.556348 202.161478 
L 146.262336 204.89163 
L 148.154614 207.496127 
L 150.223964 209.962282 
L 152.460302 212.278078 
L 154.852735 214.432234 
L 157.389607 216.414255 
L 160.058557 218.214485 
L 162.846584 219.824153 
L 165.740104 221.235417 
L 168.72502 222.441402 
L 171.78679 223.436231 
L 174.910498 224.215059 
L 178.080925 224.774091 
L 181.282625 225.110603 
L 184.5 225.222956 
L 187.717375 225.110603 
L 190.919075 224.774091 
L 194.089502 224.215059 
L 197.21321 223.436231 
L 200.27498 222.441402 
L 203.259896 221.235417 
L 206.153416 219.824153 
L 208.941443 218.214485 
L 211.610393 216.414255 
L 214.147265 214.432234 
L 216.539698 212.278078 
L 218.776036 209.962282 
L 220.845386 207.496127 
L 222.737664 204.89163 
L 224.443652 202.161478 
L 225.955038 199.318973 
L 227.26446 196.377964 
L 228.365538 193.352777 
L 229.252907 190.258153 
L 229.922245 187.109167 
L 230.37029 183.921162 
L 230.594859 180.709668 
L 230.594859 177.490332 
L 230.37029 174.278838 
L 229.922245 171.090833 
L 229.252907 167.941847 
L 228.365538 164.847223 
L 227.26446 161.822036 
L 225.955038 158.881027 
L 224.443652 156.038522 
L 222.737664 153.30837 
L 220.845386 150.703873 
L 218.776036 148.237718 
L 216.539698 145.921922 
L 214.147265 143.767766 
L 211.610393 141.785745 
L 208.941443 139.985515 
L 206.153416 138.375847 
L 203.259896 136.964583 
L 200.27498 135.758598 
L 197.21321 134.763769 
L 194.089502 133.984941 
L 190.919075 133.425909 
L 187.717375 133.089397 
L 184.5 132.977044 
L 184.5 132.977044 
" style="fill:none;stroke:#ffffff;stroke-linecap:round;"/>
     </g>
     <g id="text_8">
      <!-- 2 -->
      <defs>
       <path d="M 50.34375 8.453125 
L 50.34375 0 
L 3.03125 0 
Q 2.9375 3.171875 4.046875 6.109375 
Q 5.859375 10.9375 9.828125 15.625 
Q 13.8125 20.3125 21.34375 26.46875 
Q 33.015625 36.03125 37.109375 41.625 
Q 41.21875 47.21875 41.21875 52.203125 
Q 41.21875 57.421875 37.46875 61 
Q 33.734375 64.59375 27.734375 64.59375 
Q 21.390625 64.59375 17.578125 60.78125 
Q 13.765625 56.984375 13.71875 50.25 
L 4.6875 51.171875 
Q 5.609375 61.28125 11.65625 66.578125 
Q 17.71875 71.875 27.9375 71.875 
Q 38.234375 71.875 44.234375 66.15625 
Q 50.25 60.453125 50.25 52 
Q 50.25 47.703125 48.484375 43.546875 
Q 46.734375 39.40625 42.65625 34.8125 
Q 38.578125 30.21875 29.109375 22.21875 
Q 21.1875 15.578125 18.9375 13.203125 
Q 16.703125 10.84375 15.234375 8.453125 
z
" id="ArialMT-50"/>
      </defs>
      <g style="fill:#262626;" transform="translate(166.849509 134.301695)scale(0.11 -0.11)">
       <use xlink:href="#ArialMT-50"/>
      </g>
     </g>
    </g>
    <g id="ytick_3">
     <g id="line2d_9">
      <path clip-path="url(#p8760ccf8f1)" d="M 184.5 110.532783 
L 179.716993 110.699809 
L 174.957288 111.200074 
L 170.244074 112.031141 
L 165.600314 113.188961 
L 161.048631 114.667892 
L 156.6112 116.46073 
L 152.309641 118.558741 
L 148.164911 120.951702 
L 144.197201 123.627956 
L 140.425842 126.574464 
L 136.869209 129.776872 
L 133.544627 133.219576 
L 130.468296 136.885806 
L 127.655201 140.757699 
L 125.119048 144.816391 
L 122.872193 149.04211 
L 120.925583 153.414268 
L 119.288701 157.911565 
L 117.969522 162.512089 
L 116.974473 167.193428 
L 116.308401 171.932774 
L 115.974552 176.707039 
L 115.974552 181.492961 
L 116.308401 186.267226 
L 116.974473 191.006572 
L 117.969522 195.687911 
L 119.288701 200.288435 
L 120.925583 204.785732 
L 122.872193 209.15789 
L 125.119048 213.383609 
L 127.655201 217.442301 
L 130.468296 221.314194 
L 133.544627 224.980424 
L 136.869209 228.423128 
L 140.425842 231.625536 
L 144.197201 234.572044 
L 148.164911 237.248298 
L 152.309641 239.641259 
L 156.6112 241.73927 
L 161.048631 243.532108 
L 165.600314 245.011039 
L 170.244074 246.168859 
L 174.957288 246.999926 
L 179.716993 247.500191 
L 184.5 247.667217 
L 189.283007 247.500191 
L 194.042712 246.999926 
L 198.755926 246.168859 
L 203.399686 245.011039 
L 207.951369 243.532108 
L 212.3888 241.73927 
L 216.690359 239.641259 
L 220.835089 237.248298 
L 224.802799 234.572044 
L 228.574158 231.625536 
L 232.130791 228.423128 
L 235.455373 224.980424 
L 238.531704 221.314194 
L 241.344799 217.442301 
L 243.880952 213.383609 
L 246.127807 209.15789 
L 248.074417 204.785732 
L 249.711299 200.288435 
L 251.030478 195.687911 
L 252.025527 191.006572 
L 252.691599 186.267226 
L 253.025448 181.492961 
L 253.025448 176.707039 
L 252.691599 171.932774 
L 252.025527 167.193428 
L 251.030478 162.512089 
L 249.711299 157.911565 
L 248.074417 153.414268 
L 246.127807 149.04211 
L 243.880952 144.816391 
L 241.344799 140.757699 
L 238.531704 136.885806 
L 235.455373 133.219576 
L 232.130791 129.776872 
L 228.574158 126.574464 
L 224.802799 123.627956 
L 220.835089 120.951702 
L 216.690359 118.558741 
L 212.3888 116.46073 
L 207.951369 114.667892 
L 203.399686 113.188961 
L 198.755926 112.031141 
L 194.042712 111.200074 
L 189.283007 110.699809 
L 184.5 110.532783 
L 184.5 110.532783 
" style="fill:none;stroke:#ffffff;stroke-linecap:round;"/>
     </g>
     <g id="text_9">
      <!-- 3 -->
      <defs>
       <path d="M 4.203125 18.890625 
L 12.984375 20.0625 
Q 14.5 12.59375 18.140625 9.296875 
Q 21.78125 6 27 6 
Q 33.203125 6 37.46875 10.296875 
Q 41.75 14.59375 41.75 20.953125 
Q 41.75 27 37.796875 30.921875 
Q 33.84375 34.859375 27.734375 34.859375 
Q 25.25 34.859375 21.53125 33.890625 
L 22.515625 41.609375 
Q 23.390625 41.5 23.921875 41.5 
Q 29.546875 41.5 34.03125 44.421875 
Q 38.53125 47.359375 38.53125 53.46875 
Q 38.53125 58.296875 35.25 61.46875 
Q 31.984375 64.65625 26.8125 64.65625 
Q 21.6875 64.65625 18.265625 61.421875 
Q 14.84375 58.203125 13.875 51.765625 
L 5.078125 53.328125 
Q 6.6875 62.15625 12.390625 67.015625 
Q 18.109375 71.875 26.609375 71.875 
Q 32.46875 71.875 37.390625 69.359375 
Q 42.328125 66.84375 44.9375 62.5 
Q 47.5625 58.15625 47.5625 53.265625 
Q 47.5625 48.640625 45.0625 44.828125 
Q 42.578125 41.015625 37.703125 38.765625 
Q 44.046875 37.3125 47.5625 32.6875 
Q 51.078125 28.078125 51.078125 21.140625 
Q 51.078125 11.765625 44.234375 5.25 
Q 37.40625 -1.265625 26.953125 -1.265625 
Q 17.53125 -1.265625 11.296875 4.34375 
Q 5.078125 9.96875 4.203125 18.890625 
z
" id="ArialMT-51"/>
      </defs>
      <g style="fill:#262626;" transform="translate(158.260462 113.565901)scale(0.11 -0.11)">
       <use xlink:href="#ArialMT-51"/>
      </g>
     </g>
    </g>
    <g id="ytick_4">
     <g id="line2d_10">
      <path clip-path="url(#p8760ccf8f1)" d="M 184.5 88.088522 
L 178.15136 88.310221 
L 171.83365 88.974239 
L 165.57765 90.077341 
L 159.413837 91.614152 
L 153.372241 93.577186 
L 147.482297 95.956878 
L 141.772699 98.741634 
L 136.271264 101.917889 
L 131.004795 105.470168 
L 125.99895 109.381163 
L 121.278115 113.631822 
L 116.865291 118.201434 
L 112.781977 123.067739 
L 109.048065 128.207027 
L 105.681748 133.594261 
L 102.699425 139.203194 
L 100.115627 145.0065 
L 97.942941 150.975907 
L 96.191952 157.082331 
L 94.871191 163.296023 
L 93.987092 169.58671 
L 93.543964 175.923745 
L 93.543964 182.276255 
L 93.987092 188.61329 
L 94.871191 194.903977 
L 96.191952 201.117669 
L 97.942941 207.224093 
L 100.115627 213.1935 
L 102.699425 218.996806 
L 105.681748 224.605739 
L 109.048065 229.992973 
L 112.781977 235.132261 
L 116.865291 239.998566 
L 121.278115 244.568178 
L 125.99895 248.818837 
L 131.004795 252.729832 
L 136.271264 256.282111 
L 141.772699 259.458366 
L 147.482297 262.243122 
L 153.372241 264.622814 
L 159.413837 266.585848 
L 165.57765 268.122659 
L 171.83365 269.225761 
L 178.15136 269.889779 
L 184.5 270.111478 
L 190.84864 269.889779 
L 197.16635 269.225761 
L 203.42235 268.122659 
L 209.586163 266.585848 
L 215.627759 264.622814 
L 221.517703 262.243122 
L 227.227301 259.458366 
L 232.728736 256.282111 
L 237.995205 252.729832 
L 243.00105 248.818837 
L 247.721885 244.568178 
L 252.134709 239.998566 
L 256.218023 235.132261 
L 259.951935 229.992973 
L 263.318252 224.605739 
L 266.300575 218.996806 
L 268.884373 213.1935 
L 271.057059 207.224093 
L 272.808048 201.117669 
L 274.128809 194.903977 
L 275.012908 188.61329 
L 275.456036 182.276255 
L 275.456036 175.923745 
L 275.012908 169.58671 
L 274.128809 163.296023 
L 272.808048 157.082331 
L 271.057059 150.975907 
L 268.884373 145.0065 
L 266.300575 139.203194 
L 263.318252 133.594261 
L 259.951935 128.207027 
L 256.218023 123.067739 
L 252.134709 118.201434 
L 247.721885 113.631822 
L 243.00105 109.381163 
L 237.995205 105.470168 
L 232.728736 101.917889 
L 227.227301 98.741634 
L 221.517703 95.956878 
L 215.627759 93.577186 
L 209.586163 91.614152 
L 203.42235 90.077341 
L 197.16635 88.974239 
L 190.84864 88.310221 
L 184.5 88.088522 
L 184.5 88.088522 
" style="fill:none;stroke:#ffffff;stroke-linecap:round;"/>
     </g>
     <g id="text_10">
      <!-- 4 -->
      <defs>
       <path d="M 32.328125 0 
L 32.328125 17.140625 
L 1.265625 17.140625 
L 1.265625 25.203125 
L 33.9375 71.578125 
L 41.109375 71.578125 
L 41.109375 25.203125 
L 50.78125 25.203125 
L 50.78125 17.140625 
L 41.109375 17.140625 
L 41.109375 0 
z
M 32.328125 25.203125 
L 32.328125 57.46875 
L 9.90625 25.203125 
z
" id="ArialMT-52"/>
      </defs>
      <g style="fill:#262626;" transform="translate(149.671415 92.830108)scale(0.11 -0.11)">
       <use xlink:href="#ArialMT-52"/>
      </g>
     </g>
    </g>
    <g id="ytick_5">
     <g id="line2d_11">
      <path clip-path="url(#p8760ccf8f1)" d="M 184.5 65.644261 
L 180.540452 65.713375 
L 176.585728 65.920633 
L 172.640646 66.265783 
L 168.710013 66.748404 
L 164.798618 67.367909 
L 160.911225 68.123541 
L 157.052573 69.014381 
L 153.22736 70.039344 
L 149.440249 71.19718 
L 145.695852 72.486479 
L 141.998732 73.905671 
L 138.353394 75.453025 
L 134.764278 77.126657 
L 131.235757 78.924528 
L 127.77213 80.844448 
L 124.377618 82.884076 
L 121.056356 85.040929 
L 117.81239 87.312379 
L 114.649672 89.695658 
L 111.572057 92.187862 
L 108.583293 94.785955 
L 105.687021 97.486771 
L 102.886771 100.287021 
L 100.185955 103.183293 
L 97.587862 106.172057 
L 95.095658 109.249672 
L 92.712379 112.41239 
L 90.440929 115.656356 
L 88.284076 118.977618 
L 86.244448 122.37213 
L 84.324528 125.835757 
L 82.526657 129.364278 
L 80.853025 132.953394 
L 79.305671 136.598732 
L 77.886479 140.295852 
L 76.59718 144.040249 
L 75.439344 147.82736 
L 74.414381 151.652573 
L 73.523541 155.511225 
L 72.767909 159.398618 
L 72.148404 163.310013 
L 71.665783 167.240646 
L 71.320633 171.185728 
L 71.113375 175.140452 
L 71.044261 179.1 
L 71.113375 183.059548 
L 71.320633 187.014272 
L 71.665783 190.959354 
L 72.148404 194.889987 
L 72.767909 198.801382 
L 73.523541 202.688775 
L 74.414381 206.547427 
L 75.439344 210.37264 
L 76.59718 214.159751 
L 77.886479 217.904148 
L 79.305671 221.601268 
L 80.853025 225.246606 
L 82.526657 228.835722 
L 84.324528 232.364243 
L 86.244448 235.82787 
L 88.284076 239.222382 
L 90.440929 242.543644 
L 92.712379 245.78761 
L 95.095658 248.950328 
L 97.587862 252.027943 
L 100.185955 255.016707 
L 102.886771 257.912979 
L 105.687021 260.713229 
L 108.583293 263.414045 
L 111.572057 266.012138 
L 114.649672 268.504342 
L 117.81239 270.887621 
L 121.056356 273.159071 
L 124.377618 275.315924 
L 127.77213 277.355552 
L 131.235757 279.275472 
L 134.764278 281.073343 
L 138.353394 282.746975 
L 141.998732 284.294329 
L 145.695852 285.713521 
L 149.440249 287.00282 
L 153.22736 288.160656 
L 157.052573 289.185619 
L 160.911225 290.076459 
L 164.798618 290.832091 
L 168.710013 291.451596 
L 172.640646 291.934217 
L 176.585728 292.279367 
L 180.540452 292.486625 
L 184.5 292.555739 
L 188.459548 292.486625 
L 192.414272 292.279367 
L 196.359354 291.934217 
L 200.289987 291.451596 
L 204.201382 290.832091 
L 208.088775 290.076459 
L 211.947427 289.185619 
L 215.77264 288.160656 
L 219.559751 287.00282 
L 223.304148 285.713521 
L 227.001268 284.294329 
L 230.646606 282.746975 
L 234.235722 281.073343 
L 237.764243 279.275472 
L 241.22787 277.355552 
L 244.622382 275.315924 
L 247.943644 273.159071 
L 251.18761 270.887621 
L 254.350328 268.504342 
L 257.427943 266.012138 
L 260.416707 263.414045 
L 263.312979 260.713229 
L 266.113229 257.912979 
L 268.814045 255.016707 
L 271.412138 252.027943 
L 273.904342 248.950328 
L 276.287621 245.78761 
L 278.559071 242.543644 
L 280.715924 239.222382 
L 282.755552 235.82787 
L 284.675472 232.364243 
L 286.473343 228.835722 
L 288.146975 225.246606 
L 289.694329 221.601268 
L 291.113521 217.904148 
L 292.40282 214.159751 
L 293.560656 210.37264 
L 294.585619 206.547427 
L 295.476459 202.688775 
L 296.232091 198.801382 
L 296.851596 194.889987 
L 297.334217 190.959354 
L 297.679367 187.014272 
L 297.886625 183.059548 
L 297.955739 179.1 
L 297.886625 175.140452 
L 297.679367 171.185728 
L 297.334217 167.240646 
L 296.851596 163.310013 
L 296.232091 159.398618 
L 295.476459 155.511225 
L 294.585619 151.652573 
L 293.560656 147.82736 
L 292.40282 144.040249 
L 291.113521 140.295852 
L 289.694329 136.598732 
L 288.146975 132.953394 
L 286.473343 129.364278 
L 284.675472 125.835757 
L 282.755552 122.37213 
L 280.715924 118.977618 
L 278.559071 115.656356 
L 276.287621 112.41239 
L 273.904342 109.249672 
L 271.412138 106.172057 
L 268.814045 103.183293 
L 266.113229 100.287021 
L 263.312979 97.486771 
L 260.416707 94.785955 
L 257.427943 92.187862 
L 254.350328 89.695658 
L 251.18761 87.312379 
L 247.943644 85.040929 
L 244.622382 82.884076 
L 241.22787 80.844448 
L 237.764243 78.924528 
L 234.235722 77.126657 
L 230.646606 75.453025 
L 227.001268 73.905671 
L 223.304148 72.486479 
L 219.559751 71.19718 
L 215.77264 70.039344 
L 211.947427 69.014381 
L 208.088775 68.123541 
L 204.201382 67.367909 
L 200.289987 66.748404 
L 196.359354 66.265783 
L 192.414272 65.920633 
L 188.459548 65.713375 
L 184.5 65.644261 
L 184.5 65.644261 
" style="fill:none;stroke:#ffffff;stroke-linecap:round;"/>
     </g>
     <g id="text_11">
      <!-- 5 -->
      <defs>
       <path d="M 4.15625 18.75 
L 13.375 19.53125 
Q 14.40625 12.796875 18.140625 9.390625 
Q 21.875 6 27.15625 6 
Q 33.5 6 37.890625 10.78125 
Q 42.28125 15.578125 42.28125 23.484375 
Q 42.28125 31 38.0625 35.34375 
Q 33.84375 39.703125 27 39.703125 
Q 22.75 39.703125 19.328125 37.765625 
Q 15.921875 35.84375 13.96875 32.765625 
L 5.71875 33.84375 
L 12.640625 70.609375 
L 48.25 70.609375 
L 48.25 62.203125 
L 19.671875 62.203125 
L 15.828125 42.96875 
Q 22.265625 47.46875 29.34375 47.46875 
Q 38.71875 47.46875 45.15625 40.96875 
Q 51.609375 34.46875 51.609375 24.265625 
Q 51.609375 14.546875 45.953125 7.46875 
Q 39.0625 -1.21875 27.15625 -1.21875 
Q 17.390625 -1.21875 11.203125 4.25 
Q 5.03125 9.71875 4.15625 18.75 
z
" id="ArialMT-53"/>
      </defs>
      <g style="fill:#262626;" transform="translate(141.082368 72.094315)scale(0.11 -0.11)">
       <use xlink:href="#ArialMT-53"/>
      </g>
     </g>
    </g>
    <g id="ytick_6">
     <g id="line2d_12">
      <path clip-path="url(#p8760ccf8f1)" d="M 184.5 43.2 
L 179.757158 43.282787 
L 175.020095 43.531046 
L 170.294582 43.944474 
L 165.586376 44.522569 
L 160.901213 45.264626 
L 156.244801 46.169741 
L 151.622814 47.236811 
L 147.040883 48.464536 
L 142.50459 49.851419 
L 138.019463 51.395773 
L 133.590964 53.095714 
L 129.22449 54.949172 
L 124.925361 56.953889 
L 120.698815 59.107422 
L 116.55 61.407148 
L 112.483972 63.850264 
L 108.505684 66.433794 
L 104.619984 69.15459 
L 100.831606 72.009339 
L 97.145164 74.99456 
L 93.565151 78.106618 
L 90.095927 81.341721 
L 86.741721 84.695927 
L 83.506618 88.165151 
L 80.39456 91.745164 
L 77.409339 95.431606 
L 74.55459 99.219984 
L 71.833794 103.105684 
L 69.250264 107.083972 
L 66.807148 111.15 
L 64.507422 115.298815 
L 62.353889 119.525361 
L 60.349172 123.82449 
L 58.495714 128.190964 
L 56.795773 132.619463 
L 55.251419 137.10459 
L 53.864536 141.640883 
L 52.636811 146.222814 
L 51.569741 150.844801 
L 50.664626 155.501213 
L 49.922569 160.186376 
L 49.344474 164.894582 
L 48.931046 169.620095 
L 48.682787 174.357158 
L 48.6 179.1 
L 48.682787 183.842842 
L 48.931046 188.579905 
L 49.344474 193.305418 
L 49.922569 198.013624 
L 50.664626 202.698787 
L 51.569741 207.355199 
L 52.636811 211.977186 
L 53.864536 216.559117 
L 55.251419 221.09541 
L 56.795773 225.580537 
L 58.495714 230.009036 
L 60.349172 234.37551 
L 62.353889 238.674639 
L 64.507422 242.901185 
L 66.807148 247.05 
L 69.250264 251.116028 
L 71.833794 255.094316 
L 74.55459 258.980016 
L 77.409339 262.768394 
L 80.39456 266.454836 
L 83.506618 270.034849 
L 86.741721 273.504073 
L 90.095927 276.858279 
L 93.565151 280.093382 
L 97.145164 283.20544 
L 100.831606 286.190661 
L 104.619984 289.04541 
L 108.505684 291.766206 
L 112.483972 294.349736 
L 116.55 296.792852 
L 120.698815 299.092578 
L 124.925361 301.246111 
L 129.22449 303.250828 
L 133.590964 305.104286 
L 138.019463 306.804227 
L 142.50459 308.348581 
L 147.040883 309.735464 
L 151.622814 310.963189 
L 156.244801 312.030259 
L 160.901213 312.935374 
L 165.586376 313.677431 
L 170.294582 314.255526 
L 175.020095 314.668954 
L 179.757158 314.917213 
L 184.5 315 
L 189.242842 314.917213 
L 193.979905 314.668954 
L 198.705418 314.255526 
L 203.413624 313.677431 
L 208.098787 312.935374 
L 212.755199 312.030259 
L 217.377186 310.963189 
L 221.959117 309.735464 
L 226.49541 308.348581 
L 230.980537 306.804227 
L 235.409036 305.104286 
L 239.77551 303.250828 
L 244.074639 301.246111 
L 248.301185 299.092578 
L 252.45 296.792852 
L 256.516028 294.349736 
L 260.494316 291.766206 
L 264.380016 289.04541 
L 268.168394 286.190661 
L 271.854836 283.20544 
L 275.434849 280.093382 
L 278.904073 276.858279 
L 282.258279 273.504073 
L 285.493382 270.034849 
L 288.60544 266.454836 
L 291.590661 262.768394 
L 294.44541 258.980016 
L 297.166206 255.094316 
L 299.749736 251.116028 
L 302.192852 247.05 
L 304.492578 242.901185 
L 306.646111 238.674639 
L 308.650828 234.37551 
L 310.504286 230.009036 
L 312.204227 225.580537 
L 313.748581 221.09541 
L 315.135464 216.559117 
L 316.363189 211.977186 
L 317.430259 207.355199 
L 318.335374 202.698787 
L 319.077431 198.013624 
L 319.655526 193.305418 
L 320.068954 188.579905 
L 320.317213 183.842842 
L 320.4 179.1 
L 320.317213 174.357158 
L 320.068954 169.620095 
L 319.655526 164.894582 
L 319.077431 160.186376 
L 318.335374 155.501213 
L 317.430259 150.844801 
L 316.363189 146.222814 
L 315.135464 141.640883 
L 313.748581 137.10459 
L 312.204227 132.619463 
L 310.504286 128.190964 
L 308.650828 123.82449 
L 306.646111 119.525361 
L 304.492578 115.298815 
L 302.192852 111.15 
L 299.749736 107.083972 
L 297.166206 103.105684 
L 294.44541 99.219984 
L 291.590661 95.431606 
L 288.60544 91.745164 
L 285.493382 88.165151 
L 282.258279 84.695927 
L 278.904073 81.341721 
L 275.434849 78.106618 
L 271.854836 74.99456 
L 268.168394 72.009339 
L 264.380016 69.15459 
L 260.494316 66.433794 
L 256.516028 63.850264 
L 252.45 61.407148 
L 248.301185 59.107422 
L 244.074639 56.953889 
L 239.77551 54.949172 
L 235.409036 53.095714 
L 230.980537 51.395773 
L 226.49541 49.851419 
L 221.959117 48.464536 
L 217.377186 47.236811 
L 212.755199 46.169741 
L 208.098787 45.264626 
L 203.413624 44.522569 
L 198.705418 43.944474 
L 193.979905 43.531046 
L 189.242842 43.282787 
L 184.5 43.2 
L 184.5 43.2 
" style="fill:none;stroke:#ffffff;stroke-linecap:round;"/>
     </g>
     <g id="text_12">
      <!-- 6 -->
      <defs>
       <path d="M 49.75 54.046875 
L 41.015625 53.375 
Q 39.84375 58.546875 37.703125 60.890625 
Q 34.125 64.65625 28.90625 64.65625 
Q 24.703125 64.65625 21.53125 62.3125 
Q 17.390625 59.28125 14.984375 53.46875 
Q 12.59375 47.65625 12.5 36.921875 
Q 15.671875 41.75 20.265625 44.09375 
Q 24.859375 46.4375 29.890625 46.4375 
Q 38.671875 46.4375 44.84375 39.96875 
Q 51.03125 33.5 51.03125 23.25 
Q 51.03125 16.5 48.125 10.71875 
Q 45.21875 4.9375 40.140625 1.859375 
Q 35.0625 -1.21875 28.609375 -1.21875 
Q 17.625 -1.21875 10.6875 6.859375 
Q 3.765625 14.9375 3.765625 33.5 
Q 3.765625 54.25 11.421875 63.671875 
Q 18.109375 71.875 29.4375 71.875 
Q 37.890625 71.875 43.28125 67.140625 
Q 48.6875 62.40625 49.75 54.046875 
z
M 13.875 23.1875 
Q 13.875 18.65625 15.796875 14.5 
Q 17.71875 10.359375 21.1875 8.171875 
Q 24.65625 6 28.46875 6 
Q 34.03125 6 38.03125 10.484375 
Q 42.046875 14.984375 42.046875 22.703125 
Q 42.046875 30.125 38.078125 34.390625 
Q 34.125 38.671875 28.125 38.671875 
Q 22.171875 38.671875 18.015625 34.390625 
Q 13.875 30.125 13.875 23.1875 
z
" id="ArialMT-54"/>
      </defs>
      <g style="fill:#262626;" transform="translate(132.493322 51.358522)scale(0.11 -0.11)">
       <use xlink:href="#ArialMT-54"/>
      </g>
     </g>
    </g>
   </g>
   <g id="patch_3">
    <path clip-path="url(#p8760ccf8f1)" d="M 184.5 177.865566 
L 183.430948 178.482783 
L 183.430948 179.717217 
L 184.5 180.334434 
L 185.569052 179.717217 
L 185.569052 178.482783 
z
" style="fill:#4c72b0;opacity:0.25;stroke:#ffffff;stroke-linejoin:miter;"/>
   </g>
   <g id="line2d_13">
    <path clip-path="url(#p8760ccf8f1)" d="M 184.5 177.865566 
L 183.430948 178.482783 
L 183.430948 179.717217 
L 184.5 180.334434 
L 185.569052 179.717217 
L 185.569052 178.482783 
L 184.5 177.865566 
" style="fill:none;stroke:#4c72b0;stroke-linecap:round;stroke-width:1.5;"/>
   </g>
   <g id="patch_4">
    <path d="M 184.5 43.2 
L 66.807148 111.15 
L 66.807148 247.05 
L 184.5 315 
L 302.192852 247.05 
L 302.192852 111.15 
z
" style="fill:none;stroke:#ffffff;stroke-linecap:square;stroke-linejoin:miter;stroke-width:1.25;"/>
   </g>
  </g>
 </g>
 <defs>
  <clipPath id="p8760ccf8f1">
   <path d="M 184.5 43.2 
L 66.807148 111.15 
L 66.807148 247.05 
L 184.5 315 
L 302.192852 247.05 
L 302.192852 111.15 
z
"/>
  </clipPath>
 </defs>
</svg>
